<svg width="25" height="24" viewBox="0 0 25 24" fill="none" xmlns="http://www.w3.org/2000/svg">
<path d="M21.75 21C21.75 21.1989 21.671 21.3897 21.5303 21.5303C21.3897 21.671 21.1989 21.75 21 21.75H4.5C4.30109 21.75 4.11032 21.671 3.96967 21.5303C3.82902 21.3897 3.75 21.1989 3.75 21C3.75 20.8011 3.82902 20.6103 3.96967 20.4697C4.11032 20.329 4.30109 20.25 4.5 20.25H21C21.1989 20.25 21.3897 20.329 21.5303 20.4697C21.671 20.6103 21.75 20.8011 21.75 21ZM21.75 13.5V17.25C21.75 17.6478 21.592 18.0294 21.3107 18.3107C21.0294 18.592 20.6478 18.75 20.25 18.75H5.25C4.85218 18.75 4.47064 18.592 4.18934 18.3107C3.90804 18.0294 3.75 17.6478 3.75 17.25V13.5C3.75 13.1022 3.90804 12.7206 4.18934 12.4393C4.47064 12.158 4.85218 12 5.25 12H10.3219L8.85 5.12813C8.75633 4.69068 8.76169 4.23783 8.86566 3.80273C8.96964 3.36762 9.16961 2.96128 9.45093 2.61345C9.73225 2.26561 10.0878 1.9851 10.4915 1.79245C10.8953 1.59979 11.337 1.49987 11.7844 1.5H13.7156C14.163 1.49987 14.6047 1.59979 15.0085 1.79245C15.4122 1.9851 15.7677 2.26561 16.0491 2.61345C16.3304 2.96128 16.5304 3.36762 16.6343 3.80273C16.7383 4.23783 16.7437 4.69068 16.65 5.12813L15.1781 12H20.25C20.6478 12 21.0294 12.158 21.3107 12.4393C21.592 12.7206 21.75 13.1022 21.75 13.5Z" fill="#1C1C1C"/>
<path d="M3 9.75L3.81516 10.5652" stroke="black" stroke-width="1.5" stroke-linecap="round" stroke-linejoin="round"/>
<path d="M6.47112 9.8046L5.25004 7.53439" stroke="black" stroke-width="1.5" stroke-linecap="round" stroke-linejoin="round"/>
<path d="M22.2212 9.75L21.406 10.5652" stroke="black" stroke-width="1.5" stroke-linecap="round" stroke-linejoin="round"/>
<path d="M18.7501 9.8046L19.9711 7.53439" stroke="black" stroke-width="1.5" stroke-linecap="round" stroke-linejoin="round"/>
</svg>
