<svg width="24" height="24" viewBox="0 0 24 24" fill="none" xmlns="http://www.w3.org/2000/svg">
<path d="M11.2315 20.1375C11.19 20.3002 11.0957 20.4447 10.9634 20.5482C10.8311 20.6516 10.6682 20.7083 10.5002 20.7093C10.4397 20.7091 10.3797 20.6997 10.3221 20.6812L7.49084 19.9781C7.26119 19.9201 7.04893 19.8075 6.87209 19.65L4.76271 17.8125C4.68884 17.7484 4.62831 17.6705 4.58456 17.5831C4.54081 17.4957 4.51471 17.4005 4.50775 17.303C4.50078 17.2055 4.51309 17.1076 4.54397 17.0148C4.57485 16.9221 4.62369 16.8363 4.68771 16.7625C4.75173 16.6886 4.82967 16.6281 4.91709 16.5843C5.0045 16.5406 5.09968 16.5145 5.19718 16.5075C5.29468 16.5005 5.3926 16.5128 5.48534 16.5437C5.57809 16.5746 5.66384 16.6234 5.73771 16.6875L7.85646 18.525L10.6783 19.2281C10.8713 19.2769 11.0374 19.3996 11.1409 19.5697C11.2443 19.7397 11.2769 19.9436 11.2315 20.1375ZM23.6627 11.2125C23.6011 11.4013 23.5021 11.5758 23.3716 11.7256C23.2412 11.8753 23.0819 11.9973 22.9033 12.0843L20.719 13.1812L19.3221 14.8218H19.3033C19.3033 14.8312 19.294 14.8312 19.294 14.8406H19.2846L15.8346 18.2906C15.5487 18.5701 15.1656 18.728 14.7658 18.7312C14.6456 18.7301 14.526 18.7144 14.4096 18.6843L8.97209 17.3437C8.76678 17.2958 8.57467 17.203 8.40959 17.0718L3.34709 13.1156L1.09709 11.9906C0.737678 11.8084 0.464755 11.4917 0.337711 11.1093C0.27765 10.9199 0.255837 10.7204 0.273541 10.5224C0.291244 10.3245 0.348111 10.132 0.440836 9.95621L2.74709 5.54059C2.92934 5.1931 3.23975 4.93025 3.61252 4.80774C3.98528 4.68524 4.39111 4.71271 4.74396 4.88434L6.84396 5.93434L11.4096 4.60309C11.7518 4.50983 12.1157 4.53629 12.4408 4.67809L15.5346 6.08434H17.0721L19.2565 4.98746C19.6078 4.81267 20.0136 4.78251 20.3869 4.90343C20.7602 5.02436 21.0712 5.28675 21.2533 5.63434L23.5596 10.05C23.6526 10.2274 23.7096 10.4214 23.7273 10.6209C23.745 10.8204 23.723 11.0215 23.6627 11.2125ZM17.5971 14.4187L14.6346 12.2625L13.8752 12.8343C13.2249 13.3183 12.4359 13.5797 11.6252 13.5797C10.8146 13.5797 10.0255 13.3183 9.37521 12.8343L8.86896 12.45C8.69601 12.3219 8.55285 12.1579 8.44931 11.9692C8.34577 11.7805 8.28432 11.5716 8.26918 11.357C8.25403 11.1423 8.28556 10.9269 8.36158 10.7255C8.43761 10.5242 8.55633 10.3417 8.70959 10.1906L12.3752 6.51559L12.544 6.37496L11.8221 6.04684L7.25646 7.37809L4.70646 12.2718L9.33771 15.8906L14.7658 17.25L17.5971 14.4187ZM19.3502 12.4781L16.8002 7.58434H13.4346L9.76896 11.25L10.2752 11.6343C10.6665 11.9222 11.1395 12.0774 11.6252 12.0774C12.1109 12.0774 12.584 11.9222 12.9752 11.6343L14.1752 10.7343C14.3032 10.6378 14.4587 10.5848 14.619 10.5831C14.7793 10.5814 14.9359 10.6311 15.0658 10.725L18.6283 13.3125L19.3502 12.4781Z" fill="#1C1C1C"/>
</svg>
