<svg width="25" height="24" viewBox="0 0 25 24" fill="none" xmlns="http://www.w3.org/2000/svg">
<path fill-rule="evenodd" clip-rule="evenodd" d="M6.41911 3.91911C7.96575 2.37247 10.0627 1.50248 12.25 1.5C14.4373 1.50248 16.5343 2.37247 18.0809 3.91911C19.6275 5.46575 20.4975 7.56273 20.5 9.75C20.5 16.8094 13 22.1437 12.6813 22.3687C12.5535 22.4538 12.4035 22.4992 12.25 22.4992C12.0965 22.4992 11.9465 22.4538 11.8188 22.3687C11.5 22.1437 4 16.8094 4 9.75C4.00248 7.56273 4.87247 5.46575 6.41911 3.91911ZM12.5875 6.12764L15.0875 8.33966C15.1387 8.38526 15.1796 8.44072 15.2075 8.50253C15.2355 8.56435 15.25 8.63115 15.25 8.6987V11.5132C15.25 11.6423 15.1973 11.7661 15.1036 11.8574C15.0098 11.9487 14.8826 12 14.75 12H9.75C9.61739 12 9.49021 11.9487 9.39645 11.8574C9.30268 11.7661 9.25 11.6423 9.25 11.5132V8.6987C9.25002 8.63115 9.26448 8.56435 9.29246 8.50253C9.32043 8.44072 9.36131 8.38526 9.4125 8.33966L11.9125 6.12764C12.0047 6.04553 12.1251 6 12.25 6C12.3749 6 12.4953 6.04553 12.5875 6.12764Z" fill="#1C1C1C"/>
</svg>
