<svg width="32" height="32" viewBox="0 0 32 32" fill="none" xmlns="http://www.w3.org/2000/svg">
<path fill-rule="evenodd" clip-rule="evenodd" d="M14.6515 3.87336C15.02 3.53691 15.501 3.35034 16 3.35034C16.499 3.35034 16.98 3.53691 17.3485 3.87336L17.35 3.87471L27.3475 12.96L27.3616 12.973C27.5592 13.1596 27.7175 13.3839 27.8271 13.6327C27.9367 13.8814 27.9955 14.1496 27.9999 14.4213L28 14.4375V26C28 26.5305 27.7893 27.0392 27.4142 27.4142C27.0391 27.7893 26.5304 28 26 28H6C5.46957 28 4.96086 27.7893 4.58579 27.4142C4.21071 27.0392 4 26.5305 4 26V14.4375L4.00013 14.4213C4.00453 14.1496 4.06326 13.8814 4.17288 13.6327C4.28249 13.3839 4.44076 13.1596 4.63838 12.973L4.65247 12.96L14.65 3.87471L14.6515 3.87336ZM6.00947 14.4292L15.9975 5.35259L16 5.35034L16.0025 5.35259L25.9905 14.4292C25.9932 14.4322 25.9953 14.4355 25.997 14.4392C25.9986 14.443 25.9996 14.447 26 14.4511V26H6V14.4511C6.00035 14.447 6.00138 14.443 6.00305 14.4392C6.00465 14.4355 6.00682 14.4322 6.00947 14.4292Z" fill="black"/>
<path fill-rule="evenodd" clip-rule="evenodd" d="M15.4375 14.5C13.8152 14.5 12.5 15.8152 12.5 17.4375C12.5 19.0598 13.8152 20.375 15.4375 20.375C17.0598 20.375 18.375 19.0598 18.375 17.4375C18.375 15.8152 17.0598 14.5 15.4375 14.5ZM10.5 17.4375C10.5 14.7106 12.7106 12.5 15.4375 12.5C18.1644 12.5 20.375 14.7106 20.375 17.4375C20.375 20.1644 18.1644 22.375 15.4375 22.375C12.7106 22.375 10.5 20.1644 10.5 17.4375Z" fill="black"/>
<path fill-rule="evenodd" clip-rule="evenodd" d="M17.5146 19.5148C17.9051 19.1243 18.5383 19.1243 18.9288 19.5148L21.2069 21.793C21.5974 22.1835 21.5974 22.8166 21.2069 23.2072C20.8164 23.5977 20.1832 23.5977 19.7927 23.2072L17.5146 20.929C17.124 20.5385 17.124 19.9053 17.5146 19.5148Z" fill="black"/>
</svg>
