<svg width="24" height="26" viewBox="0 0 24 26" fill="none" xmlns="http://www.w3.org/2000/svg">
<path id="Exclude" fill-rule="evenodd" clip-rule="evenodd" d="M13.35 1.20015L23.35 10.2876C23.5547 10.475 23.7183 10.7028 23.8302 10.9568C23.9421 11.2107 23.9999 11.4851 24 11.7626V23.3251C24 23.8556 23.7893 24.3643 23.4142 24.7394C23.0391 25.1144 22.5304 25.3251 22 25.3251H2C1.46957 25.3251 0.960859 25.1144 0.585786 24.7394C0.210714 24.3643 0 23.8556 0 23.3251V11.7626C8.81823e-05 11.4851 0.0579233 11.2107 0.169827 10.9568C0.281732 10.7028 0.445256 10.475 0.65 10.2876L10.65 1.20015C11.0187 0.862845 11.5003 0.675781 12 0.675781C12.4997 0.675781 12.9813 0.862845 13.35 1.20015ZM8.5 14.7626C8.5 13.1403 9.81516 11.8251 11.4375 11.8251C13.0598 11.8251 14.375 13.1403 14.375 14.7626C14.375 16.385 13.0598 17.7001 11.4375 17.7001C9.81516 17.7001 8.5 16.385 8.5 14.7626ZM11.4375 9.82513C8.71059 9.82513 6.5 12.0357 6.5 14.7626C6.5 17.4895 8.71059 19.7001 11.4375 19.7001C12.4392 19.7001 13.3712 19.4018 14.1496 18.8892L15.7927 20.5323C16.1832 20.9228 16.8164 20.9228 17.2069 20.5323C17.5974 20.1418 17.5974 19.5086 17.2069 19.1181L15.5639 17.4751C16.0766 16.6966 16.375 15.7645 16.375 14.7626C16.375 12.0357 14.1644 9.82513 11.4375 9.82513Z" fill="#5E52FF"/>
</svg>
