<?xml version="1.0" encoding="utf-8"?>
<!-- Generator: Adobe Illustrator 26.4.1, SVG Export Plug-In . SVG Version: 6.00 Build 0)  -->
<svg version="1.1" id="Layer_1" xmlns="http://www.w3.org/2000/svg" xmlns:xlink="http://www.w3.org/1999/xlink" x="0px" y="0px"
	 viewBox="0 0 48 48" style="enable-background:new 0 0 48 48;" xml:space="preserve">
<g>
	<path d="M30.5,11.1c1.4,0,2.6,1.1,2.6,2.6v7.7h4.3c1.4,0,2.6,1.1,2.6,2.6v12c0,1.4-1.2,2.6-2.6,2.6H26.2v-5.1
		c0-0.9-0.8-1.7-1.7-1.7c-0.9,0-1.7,0.8-1.7,1.7v5.1H11.6c-1.4,0-2.6-1.1-2.6-2.6V18.8c0-1.4,1.1-2.6,2.6-2.6h4.3v-2.6
		c0-1.4,1.1-2.6,2.6-2.6H30.5z M15.9,20.5c0-0.5-0.4-0.9-0.9-0.9h-1.7c-0.5,0-0.9,0.4-0.9,0.9v1.7c0,0.5,0.4,0.9,0.9,0.9H15
		c0.5,0,0.9-0.4,0.9-0.9V20.5z M15,28.2c0.5,0,0.9-0.4,0.9-0.9v-1.7c0-0.5-0.4-0.9-0.9-0.9h-1.7c-0.5,0-0.9,0.4-0.9,0.9v1.7
		c0,0.5,0.4,0.9,0.9,0.9H15z M15.9,30.8c0-0.5-0.4-0.9-0.9-0.9h-1.7c-0.5,0-0.9,0.4-0.9,0.9v1.7c0,0.5,0.4,0.9,0.9,0.9H15
		c0.5,0,0.9-0.4,0.9-0.9V30.8z M20.2,14.6c-0.5,0-0.9,0.4-0.9,0.9v1.7c0,0.5,0.4,0.9,0.9,0.9h1.7c0.5,0,0.9-0.4,0.9-0.9v-1.7
		c0-0.5-0.4-0.9-0.9-0.9H20.2z M21.9,23.1c0.5,0,0.9-0.4,0.9-0.9v-1.7c0-0.5-0.4-0.9-0.9-0.9h-1.7c-0.5,0-0.9,0.4-0.9,0.9v1.7
		c0,0.5,0.4,0.9,0.9,0.9H21.9z M21.9,28.2c0.5,0,0.9-0.4,0.9-0.9v-1.7c0-0.5-0.4-0.9-0.9-0.9h-1.7c-0.5,0-0.9,0.4-0.9,0.9v1.7
		c0,0.5,0.4,0.9,0.9,0.9H21.9z M29.6,15.4c0-0.5-0.4-0.9-0.9-0.9H27c-0.5,0-0.9,0.4-0.9,0.9v1.7c0,0.5,0.4,0.9,0.9,0.9h1.7
		c0.5,0,0.9-0.4,0.9-0.9V15.4z M29.6,20.5c0-0.5-0.4-0.9-0.9-0.9H27c-0.5,0-0.9,0.4-0.9,0.9v1.7c0,0.5,0.4,0.9,0.9,0.9h1.7
		c0.5,0,0.9-0.4,0.9-0.9V20.5z M28.7,28.2c0.5,0,0.9-0.4,0.9-0.9v-1.7c0-0.5-0.4-0.9-0.9-0.9H27c-0.5,0-0.9,0.4-0.9,0.9v1.7
		c0,0.5,0.4,0.9,0.9,0.9H28.7z M35.6,28.2c0.5,0,0.9-0.4,0.9-0.9v-1.7c0-0.5-0.4-0.9-0.9-0.9h-1.7c-0.5,0-0.9,0.4-0.9,0.9v1.7
		c0,0.5,0.4,0.9,0.9,0.9H35.6z M36.4,30.8c0-0.5-0.4-0.9-0.9-0.9h-1.7c-0.5,0-0.9,0.4-0.9,0.9v1.7c0,0.5,0.4,0.9,0.9,0.9h1.7
		c0.5,0,0.9-0.4,0.9-0.9V30.8z"/>
</g>
</svg>
