<?xml version="1.0" encoding="utf-8"?>
<!-- Generator: Adobe Illustrator 26.4.1, SVG Export Plug-In . SVG Version: 6.00 Build 0)  -->
<svg version="1.1" id="Layer_1" xmlns="http://www.w3.org/2000/svg" xmlns:xlink="http://www.w3.org/1999/xlink" x="0px" y="0px"
	 viewBox="0 0 48 48" style="enable-background:new 0 0 48 48;" xml:space="preserve">
<g>
	<path d="M35.41,20.37v-5.58L26.2,24l9.21,9.21v-5.58c0-0.86,0.7-1.56,1.56-1.56c0.86,0,1.56,0.7,1.56,1.56v9.34
		c0,0.2-0.04,0.4-0.12,0.59c-0.16,0.38-0.46,0.68-0.84,0.84c-0.19,0.08-0.39,0.12-0.6,0.12h-9.34c-0.86,0-1.56-0.69-1.56-1.56
		c0-0.86,0.7-1.56,1.56-1.56h5.58L24,26.2l-9.21,9.21h5.58c0.86,0,1.56,0.7,1.56,1.56c0,0.86-0.69,1.56-1.56,1.56h-9.34
		c-0.2,0-0.4-0.04-0.59-0.12c-0.38-0.16-0.68-0.46-0.84-0.84c-0.08-0.19-0.12-0.4-0.12-0.6v-9.34c0-0.86,0.7-1.56,1.56-1.56
		c0.86,0,1.56,0.7,1.56,1.56v5.58L21.8,24l-9.21-9.21v5.58c0,0.86-0.7,1.56-1.56,1.56c-0.86,0-1.56-0.69-1.56-1.56v-9.34
		c0-0.2,0.04-0.4,0.12-0.59c0.16-0.38,0.46-0.68,0.84-0.84c0.19-0.08,0.39-0.12,0.6-0.12h9.34c0.86,0,1.56,0.7,1.56,1.56
		c0,0.86-0.69,1.56-1.56,1.56h-5.58L24,21.8l9.21-9.21h-5.58c-0.86,0-1.56-0.7-1.56-1.56c0-0.86,0.7-1.56,1.56-1.56h9.34
		c0.2,0,0.4,0.04,0.59,0.12c0.38,0.16,0.68,0.46,0.84,0.84c0.08,0.19,0.12,0.39,0.12,0.59v9.34c0,0.86-0.69,1.56-1.56,1.56
		C36.1,21.93,35.41,21.23,35.41,20.37z"/>
</g>
</svg>
