<svg width="18" height="11" viewBox="0 0 18 11" fill="none" xmlns="http://www.w3.org/2000/svg">
<path d="M16.5502 9.82422L16.5505 9.82452C16.7028 9.9769 16.9095 10.0625 17.125 10.0625C17.3405 10.0625 17.5472 9.9769 17.6995 9.82452L17.7 9.82406L17.7065 9.81751L17.7069 9.81704C17.8548 9.66532 17.9375 9.46185 17.9375 9.25C17.9375 9.03451 17.8519 8.82785 17.6995 8.67548L17.6992 8.67517L9.57452 0.550475C9.42215 0.398102 9.21549 0.3125 9 0.3125C8.78451 0.3125 8.57785 0.398102 8.42548 0.550475L0.300475 8.67548C0.148102 8.82785 0.0624996 9.03451 0.0624996 9.25C0.0624996 9.46549 0.148102 9.67215 0.300475 9.82452C0.452848 9.9769 0.659511 10.0625 0.875 10.0625C1.09049 10.0625 1.29715 9.9769 1.44952 9.82452L9 2.27405L16.5502 9.82422Z" fill="#1C1C1C"/>
</svg>
