<svg width="26" height="26" viewBox="0 0 26 26" fill="none" xmlns="http://www.w3.org/2000/svg">
<path d="M16.8242 5.44983L16.8245 5.44952C16.9769 5.29715 17.0625 5.09049 17.0625 4.875C17.0625 4.65951 16.9769 4.45285 16.8245 4.30048L16.8241 4.30001L16.8175 4.29355L16.817 4.29309C16.6653 4.14524 16.4618 4.0625 16.25 4.0625C16.0345 4.0625 15.8278 4.1481 15.6755 4.30048L15.6752 4.30078L7.55048 12.4255C7.3981 12.5778 7.3125 12.7845 7.3125 13C7.3125 13.2155 7.3981 13.4222 7.55048 13.5745L15.6755 21.6995C15.8278 21.8519 16.0345 21.9375 16.25 21.9375C16.4655 21.9375 16.6722 21.8519 16.8245 21.6995C16.9769 21.5472 17.0625 21.3405 17.0625 21.125C17.0625 20.9095 16.9769 20.7028 16.8245 20.5505L9.27405 13L16.8242 5.44983Z" fill="#1C1C1C"/>
</svg>
