<svg width="24" height="24" viewBox="0 0 24 24" fill="none" xmlns="http://www.w3.org/2000/svg">
<g id="ArrowUp">
<path id="Vector" d="M12.75 20.25V3.75C12.75 3.33579 12.4142 3 12 3C11.5858 3 11.25 3.33579 11.25 3.75V20.25C11.25 20.6642 11.5858 21 12 21C12.4142 21 12.75 20.6642 12.75 20.25Z" fill="#5E52FF"/>
<path id="Vector_2" d="M12 4.81066L18.2197 11.0303C18.3603 11.171 18.5511 11.25 18.75 11.25C18.9489 11.25 19.1397 11.171 19.2803 11.0303C19.421 10.8897 19.5 10.6989 19.5 10.5C19.5 10.3011 19.421 10.1103 19.2803 9.96967L12.5303 3.21967C12.3897 3.07902 12.1989 3 12 3C11.8011 3 11.6103 3.07902 11.4697 3.21967L4.71995 9.96939L4.71967 9.96967C4.57902 10.1103 4.5 10.3011 4.5 10.5C4.5 10.6989 4.57902 10.8897 4.71967 11.0303C4.86032 11.171 5.05109 11.25 5.25 11.25C5.44891 11.25 5.63968 11.171 5.78033 11.0303L5.78061 11.03L12 4.81066Z" fill="#5E52FF"/>
</g>
</svg>
