<svg width="16" height="16" viewBox="0 0 16 16" fill="none" xmlns="http://www.w3.org/2000/svg">
<path d="M2.55561 11.1107C2.55561 11.8155 2.84728 12.4232 3.33339 12.8607V13.8329C3.33339 14.0516 3.50353 14.2218 3.72228 14.2218H4.50005C4.6945 14.2218 4.88894 14.0516 4.88894 13.8329V13.4683H11.1112V13.8329C11.1112 14.0516 11.2813 14.2218 11.5001 14.2218H12.2778C12.4723 14.2218 12.6667 14.0516 12.6667 13.8329V12.8607C13.1285 12.4232 13.4445 11.8155 13.4445 11.135V10.3329H2.55561V11.1107ZM13.8334 7.99957H4.11117V3.67318C4.08686 3.40582 4.47575 3.25998 4.64589 3.43012L4.98617 3.7704C4.76742 4.42665 4.91325 5.05859 5.27783 5.5204C5.10769 5.66623 5.10769 5.90929 5.27783 6.05512L5.54519 6.34679C5.69103 6.49262 5.93408 6.49262 6.07992 6.34679L8.6563 3.7704C8.80214 3.62457 8.80214 3.38151 8.6563 3.23568L8.38894 2.94401C8.2188 2.79818 7.97575 2.79818 7.82992 2.94401C7.36811 2.60373 6.73617 2.4579 6.07992 2.67665L5.73964 2.33637C5.39936 1.99609 4.91325 1.77734 4.42714 1.77734C3.382 1.77734 2.55561 2.62804 2.55561 3.67318V8.02387L2.16672 7.99957C1.94797 7.99957 1.77783 8.19401 1.77783 8.38845V9.16623C1.77783 9.38498 1.94797 9.55512 2.16672 9.55512H13.8334C14.0278 9.55512 14.2223 9.38498 14.2223 9.16623V8.38845C14.2223 8.19401 14.0278 7.99957 13.8334 7.99957Z" fill="#1C1C1C"/>
</svg>
