<?xml version="1.0" encoding="utf-8"?>
<!-- Generator: Adobe Illustrator 26.4.1, SVG Export Plug-In . SVG Version: 6.00 Build 0)  -->
<svg version="1.1" id="Layer_1" xmlns="http://www.w3.org/2000/svg" xmlns:xlink="http://www.w3.org/1999/xlink" x="0px" y="0px"
	 viewBox="0 0 48 48" style="enable-background:new 0 0 48 48;" xml:space="preserve">
<style type="text/css">
	.st0{opacity:0.4;enable-background:new    ;}
</style>
<g>
	<g>
		<path d="M38.54,22.26H10.77c-0.51,0-0.93,0.42-0.93,0.93v1.85c0,0.51,0.41,0.93,0.93,0.93h27.77c0.51,0,0.93-0.41,0.93-0.93v-1.85
			C39.47,22.68,39.05,22.26,38.54,22.26z M11.7,29.67c0,1.64,0.72,3.1,1.85,4.11v2.37c0,0.51,0.41,0.93,0.93,0.93h1.85
			c0.51,0,0.93-0.42,0.93-0.93v-0.87h14.81v0.87c0,0.51,0.41,0.93,0.93,0.93h1.85c0.51,0,0.93-0.41,0.93-0.93v-2.37
			c1.13-1.02,1.85-2.47,1.85-4.11v-1.85H11.7V29.67z"/>
		<g class="st0">
			<path d="M15.4,22.26V11.92c0-0.62,0.87-0.98,1.31-0.54l0.8,0.8c-0.51,1.56-0.17,3.06,0.68,4.14c-0.36,0.36-0.37,0.96-0.01,1.32
				l0.65,0.65c0.36,0.36,0.95,0.36,1.31,0l6.1-6.1c0.36-0.36,0.36-0.95,0-1.31l-0.65-0.65c-0.36-0.36-0.95-0.36-1.31,0
				c-1.08-0.85-2.59-1.18-4.15-0.67l-0.8-0.8c-0.83-0.83-1.98-1.31-3.16-1.31c-2.47,0-4.47,2-4.47,4.47v10.34L15.4,22.26z"/>
		</g>
	</g>
</g>
</svg>
