<svg width="20" height="20" viewBox="0 0 20 20" fill="none" xmlns="http://www.w3.org/2000/svg">
<path d="M3.875 13.5C3.875 14.293 4.20312 14.9766 4.75 15.4687V16.5625C4.75 16.8086 4.94141 17 5.1875 17H6.0625C6.28125 17 6.5 16.8086 6.5 16.5625V16.1523H13.5V16.5625C13.5 16.8086 13.6914 17 13.9375 17H14.8125C15.0312 17 15.25 16.8086 15.25 16.5625V15.4687C15.7695 14.9766 16.125 14.293 16.125 13.5273V12.625H3.875V13.5ZM16.5625 10H5.625V5.13281C5.59766 4.83203 6.03516 4.66797 6.22656 4.85938L6.60938 5.24219C6.36328 5.98047 6.52734 6.69141 6.9375 7.21094C6.74609 7.375 6.74609 7.64844 6.9375 7.8125L7.23828 8.14062C7.40234 8.30469 7.67578 8.30469 7.83984 8.14062L10.7383 5.24219C10.9023 5.07812 10.9023 4.80469 10.7383 4.64062L10.4375 4.3125C10.2461 4.14844 9.97266 4.14844 9.80859 4.3125C9.28906 3.92969 8.57812 3.76562 7.83984 4.01172L7.45703 3.62891C7.07422 3.24609 6.52734 3 5.98047 3C4.80469 3 3.875 3.95703 3.875 5.13281V10.0273L3.4375 10C3.19141 10 3 10.2188 3 10.4375V11.3125C3 11.5586 3.19141 11.75 3.4375 11.75H16.5625C16.7812 11.75 17 11.5586 17 11.3125V10.4375C17 10.2188 16.7812 10 16.5625 10Z" fill="#999999"/>
</svg>
