<svg width="18" height="14" viewBox="0 0 18 14" fill="none" xmlns="http://www.w3.org/2000/svg">
<path d="M5.85 7.6875C6.8125 7.6875 7.6 6.93555 7.6 5.96875C7.6 5.02344 6.8125 4.25 5.85 4.25C4.86562 4.25 4.1 5.02344 4.1 5.96875C4.1 6.93555 4.86562 7.6875 5.85 7.6875ZM13.9 4.25H8.65C8.45312 4.25 8.3 4.42188 8.3 4.59375V8.375H3.4V2.53125C3.4 2.35938 3.225 2.1875 3.05 2.1875H2.35C2.15313 2.1875 2 2.35938 2 2.53125V11.4688C2 11.6621 2.15313 11.8125 2.35 11.8125H3.05C3.225 11.8125 3.4 11.6621 3.4 11.4688V10.4375H14.6V11.4688C14.6 11.6621 14.7531 11.8125 14.95 11.8125H15.65C15.825 11.8125 16 11.6621 16 11.4688V6.3125C16 5.17383 15.0594 4.25 13.9 4.25Z" fill="#1C1C1C"/>
</svg>
