<svg width="20" height="20" viewBox="0 0 20 20" fill="none" xmlns="http://www.w3.org/2000/svg">
<path d="M6.4 11.2857C7.5 11.2857 8.4 10.4263 8.4 9.32143C8.4 8.24107 7.5 7.35714 6.4 7.35714C5.275 7.35714 4.4 8.24107 4.4 9.32143C4.4 10.4263 5.275 11.2857 6.4 11.2857ZM15.6 7.35714H9.6C9.375 7.35714 9.2 7.55357 9.2 7.75V12.0714H3.6V5.39286C3.6 5.19643 3.4 5 3.2 5H2.4C2.175 5 2 5.19643 2 5.39286V15.6071C2 15.8281 2.175 16 2.4 16H3.2C3.4 16 3.6 15.8281 3.6 15.6071V14.4286H16.4V15.6071C16.4 15.8281 16.575 16 16.8 16H17.6C17.8 16 18 15.8281 18 15.6071V9.71429C18 8.41295 16.925 7.35714 15.6 7.35714Z" fill="#999999"/>
</svg>
