<svg width="25" height="24" viewBox="0 0 25 24" fill="none" xmlns="http://www.w3.org/2000/svg">
<path d="M21.8496 10.5V15.75C21.8496 16.1642 22.1854 16.5 22.5996 16.5C23.0138 16.5 23.3496 16.1642 23.3496 15.75V10.5C23.3496 8.9467 22.2513 7.84835 22.2513 7.84835C21.1529 6.75 19.5996 6.75 19.5996 6.75H9.84961C9.4354 6.75 9.09961 7.08579 9.09961 7.5V15.75C9.09961 16.1642 9.4354 16.5 9.84961 16.5C10.2638 16.5 10.5996 16.1642 10.5996 15.75V8.25H19.5996C20.5316 8.25 21.1906 8.90901 21.1906 8.90901C21.8496 9.56802 21.8496 10.5 21.8496 10.5Z" fill="#1C1C1C"/>
<path d="M2.34961 19.5V4.5C2.34961 4.08579 2.01382 3.75 1.59961 3.75C1.1854 3.75 0.849609 4.08579 0.849609 4.5V19.5C0.849609 19.9142 1.1854 20.25 1.59961 20.25C2.01382 20.25 2.34961 19.9142 2.34961 19.5Z" fill="#1C1C1C"/>
<path d="M21.8496 16.5V19.5C21.8496 19.9142 22.1854 20.25 22.5996 20.25C23.0138 20.25 23.3496 19.9142 23.3496 19.5V15.75C23.3496 15.3358 23.0138 15 22.5996 15H1.59961C1.1854 15 0.849609 15.3358 0.849609 15.75C0.849609 16.1642 1.1854 16.5 1.59961 16.5H21.8496Z" fill="#1C1C1C"/>
<path d="M9.84961 6.75H1.59961C1.1854 6.75 0.849609 7.08579 0.849609 7.5C0.849609 7.91421 1.1854 8.25 1.59961 8.25H9.84961C10.2638 8.25 10.5996 7.91421 10.5996 7.5C10.5996 7.08579 10.2638 6.75 9.84961 6.75Z" fill="#1C1C1C"/>
</svg>
