<svg width="32" height="32" viewBox="0 0 32 32" fill="none" xmlns="http://www.w3.org/2000/svg">
<path fill-rule="evenodd" clip-rule="evenodd" d="M6.02538 13.9999V12.9999C6.02538 12.9999 6.02258 11.0056 6.78692 9.16207C6.78692 9.16207 7.55125 7.31855 8.96534 5.91033C8.96534 5.91033 10.3794 4.5021 12.2261 3.74544C12.2261 3.74544 14.0728 2.98877 16.0684 2.99988C16.0684 2.99988 18.0977 3.01525 19.9455 3.82591C19.9455 3.82591 21.7233 4.60585 23.0919 6.01167C23.0919 6.01167 24.4552 7.41201 25.2028 9.21769C25.2028 9.21769 25.9754 11.0835 25.9754 13.1124V13.9999C25.9754 13.9999 25.9754 19.187 27.6033 21.9988C27.6033 21.9988 27.8714 22.4631 27.8719 22.9981C27.8719 22.9981 27.8723 23.5331 27.6057 23.9968C27.6057 23.9968 27.339 24.4606 26.8764 24.7293C26.8764 24.7293 26.4139 24.998 25.8789 24.9999L6.12538 24.9999C6.12538 24.9999 5.5869 24.998 5.12433 24.7293C5.12433 24.7293 4.66176 24.4606 4.3951 23.9968C4.3951 23.9968 4.12843 23.5331 4.12891 22.9981C4.12891 22.9981 4.12938 22.4631 4.39686 21.9999C4.39686 21.9999 6.02539 19.187 6.02538 13.9999ZM8.02539 13.9999C8.02539 13.9999 8.02539 19.7241 6.12891 22.9999L25.8719 22.9999C25.8719 22.9999 23.9754 19.7232 23.9754 13.9999V13.1124C23.9754 13.1124 23.9754 9.7863 21.6589 7.4068C21.6589 7.4068 19.3398 5.02472 16.0573 4.99985C16.0573 4.99985 14.4613 4.99097 12.9844 5.59611C12.9844 5.59611 11.5075 6.20125 10.3766 7.32748C10.3766 7.32748 9.24569 8.45371 8.63442 9.92806C8.63442 9.92806 8.02314 11.4024 8.02539 12.9999V13.9999Z" fill="#1C1C1C"/>
<path d="M21.0004 25V24C21.0004 23.4477 20.5527 23 20.0004 23C19.4481 23 19.0004 23.4477 19.0004 24V25C19.0004 26.2426 18.1217 27.1213 18.1217 27.1213C17.243 28 16.0004 28 16.0004 28C14.7577 28 13.879 27.1213 13.879 27.1213C13.0004 26.2426 13.0004 25 13.0004 25V24C13.0004 23.4477 12.5527 23 12.0004 23C11.4481 23 11.0004 23.4477 11.0004 24V25C11.0004 27.071 12.4648 28.5355 12.4648 28.5355C13.9293 30 16.0004 30 16.0004 30C18.0714 30 19.5359 28.5355 19.5359 28.5355C21.0004 27.071 21.0004 25 21.0004 25Z" fill="#1C1C1C"/>
<circle cx="23" cy="7" r="5" fill="#FF4747"/>
</svg>
