<svg width="17" height="18" viewBox="0 0 17 18" fill="none" xmlns="http://www.w3.org/2000/svg">
<path fill-rule="evenodd" clip-rule="evenodd" d="M8.26146 3.86684C7.7225 3.86395 7.18826 3.96726 6.68923 4.17084C6.19019 4.37443 5.73615 4.67431 5.35301 5.05338C4.96987 5.43244 4.66515 5.88325 4.45624 6.38008C4.24732 6.8769 4.13832 7.41002 4.13543 7.94897C4.12273 10.3243 3.61704 11.7521 3.1347 12.5753L13.2948 12.6296C12.8213 11.8013 12.3309 10.3682 12.3436 7.99286C12.3465 7.45391 12.2432 6.91966 12.0396 6.42063C11.836 5.9216 11.5361 5.46755 11.1571 5.08441C10.778 4.70127 10.3272 4.39655 9.83035 4.18764C9.33353 3.97873 8.80041 3.86972 8.26146 3.86684ZM6.30044 3.21785C6.92462 2.9632 7.59285 2.834 8.26696 2.8376C8.94108 2.84121 9.60789 2.97755 10.2293 3.23886C10.8507 3.50016 11.4146 3.8813 11.8887 4.36052C12.3628 4.83975 12.7379 5.40766 12.9926 6.03184C13.2472 6.65602 13.3764 7.32425 13.3728 7.99837C13.3609 10.2284 13.8209 11.4763 14.1886 12.1193L14.1889 12.1198C14.2782 12.2765 14.3248 12.4539 14.324 12.6342C14.3232 12.8146 14.275 12.9916 14.1843 13.1475C14.0936 13.3033 13.9634 13.4326 13.807 13.5224C13.6506 13.6122 13.4733 13.6592 13.2929 13.6589L13.2911 13.6589L3.12739 13.6045L3.12558 13.6045C2.94522 13.6029 2.76845 13.554 2.61297 13.4625C2.4575 13.3711 2.32878 13.2404 2.23971 13.0836C2.15064 12.9268 2.10435 12.7493 2.10547 12.5689C2.1066 12.3885 2.1551 12.2116 2.24611 12.0559L2.24642 12.0554C2.62095 11.4164 3.09427 10.1735 3.1062 7.94347C3.1098 7.26935 3.24615 6.60254 3.50745 5.98112C3.76876 5.3597 4.1499 4.79583 4.62912 4.3217C5.10834 3.84758 5.67626 3.47249 6.30044 3.21785Z" fill="#1C1C1C"/>
<path fill-rule="evenodd" clip-rule="evenodd" d="M6.15628 12.5916C6.4405 12.5931 6.66967 12.8248 6.66815 13.109L6.6654 13.6236C6.66321 14.0331 6.82376 14.4266 7.11174 14.7177C7.39972 15.0088 7.79154 15.1735 8.20099 15.1757C8.61045 15.1779 9.004 15.0174 9.29508 14.7294C9.58616 14.4414 9.75091 14.0496 9.7531 13.6401L9.75586 13.1255C9.75738 12.8413 9.98901 12.6121 10.2732 12.6136C10.5574 12.6152 10.7866 12.8468 10.7851 13.131L10.7823 13.6456C10.7787 14.328 10.5041 14.9811 10.019 15.461C9.53384 15.941 8.87792 16.2086 8.19549 16.205C7.51306 16.2013 6.86004 15.9267 6.38007 15.4416C5.9001 14.9565 5.63251 14.3005 5.63616 13.6181L5.63891 13.1035C5.64043 12.8193 5.87207 12.5901 6.15628 12.5916Z" fill="#1C1C1C"/>
<path fill-rule="evenodd" clip-rule="evenodd" d="M11.3999 2.05218C11.5529 1.81265 11.8711 1.74251 12.1107 1.8955C13.2345 2.61335 14.1392 3.6265 14.7258 4.82409C14.8508 5.07934 14.7452 5.3876 14.49 5.51262C14.2347 5.63764 13.9265 5.53207 13.8014 5.27682C13.2979 4.24881 12.5213 3.37911 11.5566 2.7629C11.3171 2.60991 11.247 2.2917 11.3999 2.05218Z" fill="#1C1C1C"/>
<path fill-rule="evenodd" clip-rule="evenodd" d="M5.14275 2.01863C5.29318 2.25978 5.21963 2.57722 4.97848 2.72764C4.00725 3.33349 3.22139 4.19484 2.70691 5.21741C2.57917 5.47131 2.26979 5.57357 2.0159 5.44583C1.762 5.31809 1.65973 5.00871 1.78747 4.75482C2.38682 3.56357 3.3023 2.56015 4.43374 1.85437C4.67489 1.70394 4.99232 1.77749 5.14275 2.01863Z" fill="#1C1C1C"/>
</svg>
