<svg width="17" height="17" viewBox="0 0 17 17" fill="none" xmlns="http://www.w3.org/2000/svg">
<path fill-rule="evenodd" clip-rule="evenodd" d="M8.23388 3.10054C7.69491 3.10054 7.16123 3.2067 6.66329 3.41295C6.16535 3.6192 5.71292 3.92151 5.33181 4.30261C4.95071 4.68372 4.6484 5.13616 4.44215 5.63409C4.2359 6.13203 4.12974 6.66572 4.12974 7.20468C4.12974 9.58001 3.63169 11.0106 3.15376 11.8363H13.314C12.8361 11.0106 12.338 9.58001 12.338 7.20468C12.338 6.66572 12.2319 6.13203 12.0256 5.63409C11.8194 5.13616 11.517 4.68372 11.1359 4.30261C10.7548 3.92151 10.3024 3.6192 9.80446 3.41295C9.30653 3.2067 8.77284 3.10054 8.23388 3.10054ZM6.26941 2.46204C6.89223 2.20407 7.55975 2.07129 8.23388 2.07129C8.908 2.07129 9.57553 2.20407 10.1983 2.46204C10.8212 2.72002 11.3871 3.09815 11.8637 3.57482C12.3404 4.0515 12.7185 4.6174 12.9765 5.24022C13.2345 5.86303 13.3673 6.53055 13.3673 7.20468C13.3673 9.43473 13.8339 10.6801 14.205 11.3212L14.2053 11.3217C14.2955 11.4779 14.3431 11.655 14.3432 11.8354C14.3434 12.0158 14.2962 12.193 14.2063 12.3494C14.1164 12.5057 13.9869 12.6357 13.831 12.7263C13.675 12.8169 13.498 12.8649 13.3176 12.8656L13.3158 12.8656H3.15195L3.15014 12.8656C2.96978 12.8649 2.79275 12.8169 2.63678 12.7263C2.48082 12.6357 2.3514 12.5057 2.2615 12.3494C2.17159 12.193 2.12435 12.0158 2.12451 11.8354C2.12467 11.655 2.17222 11.4779 2.26241 11.3217L2.26272 11.3212C2.63382 10.6801 3.10049 9.43473 3.10049 7.20468C3.10049 6.53055 3.23327 5.86303 3.49124 5.24022C3.74922 4.6174 4.12734 4.0515 4.60402 3.57482C5.0807 3.09814 5.6466 2.72002 6.26941 2.46204Z" fill="#F76754"/>
<path fill-rule="evenodd" clip-rule="evenodd" d="M6.17527 11.8369C6.45949 11.8369 6.6899 12.0673 6.6899 12.3515V12.8662C6.6899 13.2756 6.85255 13.6683 7.14209 13.9579C7.43162 14.2474 7.82431 14.41 8.23377 14.41C8.64323 14.41 9.03592 14.2474 9.32546 13.9579C9.61499 13.6683 9.77765 13.2756 9.77765 12.8662V12.3515C9.77765 12.0673 10.0081 11.8369 10.2923 11.8369C10.5765 11.8369 10.8069 12.0673 10.8069 12.3515V12.8662C10.8069 13.5486 10.5358 14.2031 10.0532 14.6856C9.57069 15.1682 8.91621 15.4393 8.23377 15.4393C7.55134 15.4393 6.89685 15.1682 6.4143 14.6856C5.93174 14.2031 5.66064 13.5486 5.66064 12.8662V12.3515C5.66064 12.0673 5.89105 11.8369 6.17527 11.8369Z" fill="#F76754"/>
<path fill-rule="evenodd" clip-rule="evenodd" d="M11.3627 1.26929C11.5144 1.02894 11.8323 0.957099 12.0726 1.10881C13.2002 1.82064 14.1103 2.82894 14.7033 4.02337C14.8297 4.27795 14.7258 4.58677 14.4712 4.71316C14.2166 4.83954 13.9078 4.73562 13.7814 4.48104C13.2724 3.45573 12.4912 2.5902 11.5232 1.97916C11.2829 1.82745 11.211 1.50963 11.3627 1.26929Z" fill="#F76754"/>
<path fill-rule="evenodd" clip-rule="evenodd" d="M5.10532 1.26929C5.25704 1.50963 5.18519 1.82745 4.94485 1.97916C3.97687 2.5902 3.19563 3.45573 2.68663 4.48104C2.56024 4.73562 2.25142 4.83954 1.99684 4.71316C1.74227 4.58677 1.63835 4.27795 1.76473 4.02337C2.35769 2.82894 3.2678 1.82064 4.39544 1.10881C4.63579 0.957099 4.95361 1.02894 5.10532 1.26929Z" fill="#F76754"/>
</svg>
