<svg width="32" height="33" viewBox="0 0 32 33" fill="none" xmlns="http://www.w3.org/2000/svg">
<path d="M13 12.4697H19" stroke="black" stroke-width="2" stroke-linecap="round" stroke-linejoin="round"/>
<path d="M28.7 20.2571L23.2375 7.84463C22.6735 7.28662 21.9121 6.97363 21.1187 6.97363C20.3254 6.97363 19.564 7.28662 19 7.84463V21.9696" stroke="black" stroke-width="2" stroke-linecap="round" stroke-linejoin="round"/>
<path d="M13 21.9696V7.84463C12.436 7.28662 11.6747 6.97363 10.8813 6.97363C10.0879 6.97363 9.32655 7.28662 8.76255 7.84463L3.30005 20.2571" stroke="black" stroke-width="2" stroke-linecap="round" stroke-linejoin="round"/>
<path d="M8 26.9697C10.7614 26.9697 13 24.7312 13 21.9697C13 19.2083 10.7614 16.9697 8 16.9697C5.23858 16.9697 3 19.2083 3 21.9697C3 24.7312 5.23858 26.9697 8 26.9697Z" stroke="black" stroke-width="2" stroke-linecap="round" stroke-linejoin="round"/>
<path d="M24 26.9697C26.7614 26.9697 29 24.7312 29 21.9697C29 19.2083 26.7614 16.9697 24 16.9697C21.2386 16.9697 19 19.2083 19 21.9697C19 24.7312 21.2386 26.9697 24 26.9697Z" stroke="black" stroke-width="2" stroke-linecap="round" stroke-linejoin="round"/>
</svg>
