<svg width="53" height="52" viewBox="0 0 53 52" fill="none" xmlns="http://www.w3.org/2000/svg">
<path d="M21.625 18.6875H31.375" stroke="black" stroke-width="3.25" stroke-linecap="round" stroke-linejoin="round"/>
<path d="M47.1375 31.342L38.2609 11.1717C37.3444 10.265 36.1072 9.75635 34.818 9.75635C33.5287 9.75635 32.2915 10.265 31.375 11.1717V34.1248" fill="url(#paint0_radial_1384_5250)"/>
<path d="M47.1375 31.342L38.2609 11.1717C37.3444 10.265 36.1072 9.75635 34.818 9.75635C33.5287 9.75635 32.2915 10.265 31.375 11.1717V34.1248" stroke="black" stroke-width="3.25" stroke-linecap="round" stroke-linejoin="round"/>
<path d="M21.625 34.1248V11.1717C20.7085 10.265 19.4713 9.75635 18.1821 9.75635C16.8928 9.75635 15.6556 10.265 14.7391 11.1717L5.86255 31.342" fill="url(#paint1_radial_1384_5250)"/>
<path d="M21.625 34.1248V11.1717C20.7085 10.265 19.4713 9.75635 18.1821 9.75635C16.8928 9.75635 15.6556 10.265 14.7391 11.1717L5.86255 31.342" stroke="black" stroke-width="3.25" stroke-linecap="round" stroke-linejoin="round"/>
<path d="M13.5 42.25C17.9873 42.25 21.625 38.6123 21.625 34.125C21.625 29.6377 17.9873 26 13.5 26C9.01269 26 5.375 29.6377 5.375 34.125C5.375 38.6123 9.01269 42.25 13.5 42.25Z" fill="url(#paint2_radial_1384_5250)" stroke="black" stroke-width="3.25" stroke-linecap="round" stroke-linejoin="round"/>
<path d="M39.5 42.25C43.9873 42.25 47.625 38.6123 47.625 34.125C47.625 29.6377 43.9873 26 39.5 26C35.0127 26 31.375 29.6377 31.375 34.125C31.375 38.6123 35.0127 42.25 39.5 42.25Z" fill="url(#paint3_radial_1384_5250)" stroke="black" stroke-width="3.25" stroke-linecap="round" stroke-linejoin="round"/>
<defs>
<radialGradient id="paint0_radial_1384_5250" cx="0" cy="0" r="1" gradientUnits="userSpaceOnUse" gradientTransform="translate(24.5 13.5) rotate(32.2288) scale(27.1892 17.587)">
<stop stop-color="white"/>
<stop offset="0.0001" stop-color="white" stop-opacity="0.989583"/>
<stop offset="1" stop-color="#E3F5FF"/>
</radialGradient>
<radialGradient id="paint1_radial_1384_5250" cx="0" cy="0" r="1" gradientUnits="userSpaceOnUse" gradientTransform="translate(9.00004 14.5) rotate(48.4682) scale(23.3773 15.1214)">
<stop stop-color="white"/>
<stop offset="0.0001" stop-color="white" stop-opacity="0.989583"/>
<stop offset="1" stop-color="#E3F5FF"/>
</radialGradient>
<radialGradient id="paint2_radial_1384_5250" cx="0" cy="0" r="1" gradientUnits="userSpaceOnUse" gradientTransform="translate(10 30) rotate(59.0362) scale(11.6619)">
<stop stop-color="white"/>
<stop offset="1" stop-color="#E3F5FF" stop-opacity="0.81"/>
</radialGradient>
<radialGradient id="paint3_radial_1384_5250" cx="0" cy="0" r="1" gradientUnits="userSpaceOnUse" gradientTransform="translate(34.5 28.5) rotate(51.953) scale(14.6031)">
<stop stop-color="white"/>
<stop offset="1" stop-color="#E3F5FF"/>
</radialGradient>
</defs>
</svg>
