<svg width="12" height="13" viewBox="0 0 12 13" fill="none" xmlns="http://www.w3.org/2000/svg">
<path d="M7.6875 2.49219C7.5625 2.53906 7.5 2.625 7.5 2.75C7.5 2.875 7.5625 2.96094 7.6875 3.00781L9 3.5L9.49219 4.83594C9.53906 4.94531 9.625 5 9.75 5C9.875 5 9.96094 4.94531 10.0078 4.83594L10.5 3.5L11.8359 3.00781C11.9453 2.96094 12 2.875 12 2.75C12 2.625 11.9453 2.53906 11.8359 2.49219L10.5 2L10.0078 0.6875C9.96094 0.5625 9.875 0.5 9.75 0.5C9.625 0.5 9.53906 0.5625 9.49219 0.6875L9 2L7.6875 2.49219ZM4.80469 2.21094C4.74219 2.07031 4.63281 2 4.47656 2C4.32031 2 4.20312 2.07031 4.125 2.21094L2.88281 4.88281L0.210938 6.125C0.0703125 6.20312 0 6.32031 0 6.47656C0 6.63281 0.0703125 6.74219 0.210938 6.80469L2.88281 8.04688L4.125 10.7188C4.20312 10.8594 4.32031 10.9297 4.47656 10.9297C4.61719 10.9297 4.72656 10.8594 4.80469 10.7188L6.04688 8.04688L8.71875 6.80469C8.85938 6.72656 8.92969 6.60938 8.92969 6.45312C8.92969 6.3125 8.85938 6.20312 8.71875 6.125L6.04688 4.88281L4.80469 2.21094ZM9 9.5L7.6875 9.99219C7.5625 10.0391 7.5 10.125 7.5 10.25C7.5 10.375 7.5625 10.4609 7.6875 10.5078L9 11L9.49219 12.3359C9.53906 12.4453 9.625 12.5 9.75 12.5C9.875 12.5 9.96094 12.4453 10.0078 12.3359L10.5 11L11.8359 10.5078C11.9453 10.4609 12 10.375 12 10.25C12 10.125 11.9453 10.0391 11.8359 9.99219L10.5 9.5L10.0078 8.1875C9.96094 8.0625 9.875 8 9.75 8C9.625 8 9.53906 8.0625 9.49219 8.1875L9 9.5Z" fill="#48BD48"/>
</svg>
