<svg width="20" height="21" viewBox="0 0 20 21" fill="none" xmlns="http://www.w3.org/2000/svg">
<g id="Building_Level">
<g id="Vector">
<path d="M3.125 16.75L16.875 16.75C17.2202 16.75 17.5 17.0298 17.5 17.375C17.5 17.7202 17.2202 18 16.875 18L3.125 18C2.77982 18 2.5 17.7202 2.5 17.375C2.5 17.0298 2.77982 16.75 3.125 16.75Z" fill="#999999"/>
<path d="M15 8L11.875 8C11.5298 8 11.25 7.72018 11.25 7.375C11.25 7.02982 11.5298 6.75 11.875 6.75L15.625 6.75C15.9702 6.75 16.25 7.02982 16.25 7.375L16.25 17.375C16.25 17.7202 15.9702 18 15.625 18C15.2798 18 15 17.7202 15 17.375L15 8Z" fill="#999999"/>
<path fill-rule="evenodd" clip-rule="evenodd" d="M8.125 18L11.875 18C12.2202 18 12.5 17.7202 12.5 17.375L12.5 3.625C12.5 3.27982 12.2202 3 11.875 3L8.125 3C7.77982 3 7.5 3.27982 7.5 3.625L7.5 17.375C7.5 17.7202 7.77982 18 8.125 18ZM8.75 4.25L8.75 16.75L11.25 16.75L11.25 4.25L8.75 4.25Z" fill="#999999"/>
<path d="M5 10.5L5 17.375C5 17.7202 4.72018 18 4.375 18C4.02982 18 3.75 17.7202 3.75 17.375L3.75 9.875C3.75 9.52982 4.02982 9.25 4.375 9.25L8.125 9.25C8.47018 9.25 8.75 9.52982 8.75 9.875C8.75 10.2202 8.47018 10.5 8.125 10.5L5 10.5Z" fill="#999999"/>
</g>
</g>
</svg>
