<svg width="25" height="24" viewBox="0 0 25 24" fill="none" xmlns="http://www.w3.org/2000/svg">
<path d="M4.25 19.5L20.75 19.5C21.1642 19.5 21.5 19.8358 21.5 20.25C21.5 20.6642 21.1642 21 20.75 21L4.25 21C3.83579 21 3.5 20.6642 3.5 20.25C3.5 19.8358 3.83579 19.5 4.25 19.5Z" fill="#1C1C1C"/>
<path d="M18.5 9L14.75 9C14.3358 9 14 8.66421 14 8.25C14 7.83579 14.3358 7.5 14.75 7.5L19.25 7.5C19.6642 7.5 20 7.83579 20 8.25L20 20.25C20 20.6642 19.6642 21 19.25 21C18.8358 21 18.5 20.6642 18.5 20.25L18.5 9Z" fill="#1C1C1C"/>
<path fill-rule="evenodd" clip-rule="evenodd" d="M10.25 21L14.75 21C15.1642 21 15.5 20.6642 15.5 20.25L15.5 3.75C15.5 3.33579 15.1642 3 14.75 3L10.25 3C9.83579 3 9.5 3.33579 9.5 3.75L9.5 20.25C9.5 20.6642 9.83579 21 10.25 21ZM11 4.5L11 19.5L14 19.5L14 4.5L11 4.5Z" fill="#1C1C1C"/>
<path d="M6.5 12L6.5 20.25C6.5 20.6642 6.16421 21 5.75 21C5.33579 21 5 20.6642 5 20.25L5 11.25C5 10.8358 5.33579 10.5 5.75 10.5L10.25 10.5C10.6642 10.5 11 10.8358 11 11.25C11 11.6642 10.6642 12 10.25 12L6.5 12Z" fill="#1C1C1C"/>
</svg>
