<svg width="16" height="17" viewBox="0 0 16 17" fill="none" xmlns="http://www.w3.org/2000/svg">
<path d="M14.25 1.49988H12.375V0.874878C12.375 0.709118 12.3092 0.550146 12.1919 0.432936C12.0747 0.315726 11.9158 0.249878 11.75 0.249878C11.5842 0.249878 11.4253 0.315726 11.3081 0.432936C11.1908 0.550146 11.125 0.709118 11.125 0.874878V1.49988H4.875V0.874878C4.875 0.709118 4.80915 0.550146 4.69194 0.432936C4.57473 0.315726 4.41576 0.249878 4.25 0.249878C4.08424 0.249878 3.92527 0.315726 3.80806 0.432936C3.69085 0.550146 3.625 0.709118 3.625 0.874878V1.49988H1.75C1.41848 1.49988 1.10054 1.63157 0.866116 1.86599C0.631696 2.10041 0.5 2.41836 0.5 2.74988V15.2499C0.5 15.5814 0.631696 15.8993 0.866116 16.1338C1.10054 16.3682 1.41848 16.4999 1.75 16.4999H14.25C14.5815 16.4999 14.8995 16.3682 15.1339 16.1338C15.3683 15.8993 15.5 15.5814 15.5 15.2499V2.74988C15.5 2.41836 15.3683 2.10041 15.1339 1.86599C14.8995 1.63157 14.5815 1.49988 14.25 1.49988ZM14.25 5.24988H1.75V2.74988H3.625V3.37488C3.625 3.54064 3.69085 3.69961 3.80806 3.81682C3.92527 3.93403 4.08424 3.99988 4.25 3.99988C4.41576 3.99988 4.57473 3.93403 4.69194 3.81682C4.80915 3.69961 4.875 3.54064 4.875 3.37488V2.74988H11.125V3.37488C11.125 3.54064 11.1908 3.69961 11.3081 3.81682C11.4253 3.93403 11.5842 3.99988 11.75 3.99988C11.9158 3.99988 12.0747 3.93403 12.1919 3.81682C12.3092 3.69961 12.375 3.54064 12.375 3.37488V2.74988H14.25V5.24988Z" fill="#999999"/>
</svg>
