<svg width="16" height="16" viewBox="0 0 16 16" fill="none" xmlns="http://www.w3.org/2000/svg">
<path d="M13 2H11.5V1.5C11.5 1.36739 11.4473 1.24021 11.3536 1.14645C11.2598 1.05268 11.1326 1 11 1C10.8674 1 10.7402 1.05268 10.6464 1.14645C10.5527 1.24021 10.5 1.36739 10.5 1.5V2H5.5V1.5C5.5 1.36739 5.44732 1.24021 5.35355 1.14645C5.25979 1.05268 5.13261 1 5 1C4.86739 1 4.74021 1.05268 4.64645 1.14645C4.55268 1.24021 4.5 1.36739 4.5 1.5V2H3C2.73478 2 2.48043 2.10536 2.29289 2.29289C2.10536 2.48043 2 2.73478 2 3V13C2 13.2652 2.10536 13.5196 2.29289 13.7071C2.48043 13.8946 2.73478 14 3 14H13C13.2652 14 13.5196 13.8946 13.7071 13.7071C13.8946 13.5196 14 13.2652 14 13V3C14 2.73478 13.8946 2.48043 13.7071 2.29289C13.5196 2.10536 13.2652 2 13 2ZM9.85625 10.6438C9.95014 10.7385 10.0028 10.8666 10.0028 11C10.0028 11.1334 9.95014 11.2615 9.85625 11.3562C9.75959 11.4469 9.63252 11.4982 9.5 11.5C9.36723 11.4994 9.23973 11.448 9.14375 11.3562L8 10.2063L6.85625 11.3562C6.75959 11.4469 6.63252 11.4982 6.5 11.5C6.36723 11.4994 6.23973 11.448 6.14375 11.3562C6.04986 11.2615 5.99719 11.1334 5.99719 11C5.99719 10.8666 6.04986 10.7385 6.14375 10.6438L7.29375 9.5L6.14375 8.35625C6.06402 8.2591 6.02327 8.13577 6.02944 8.01024C6.0356 7.88472 6.08824 7.76597 6.17711 7.67711C6.26597 7.58824 6.38472 7.5356 6.51024 7.52944C6.63577 7.52327 6.7591 7.56402 6.85625 7.64375L8 8.79375L9.14375 7.64375C9.2409 7.56402 9.36423 7.52327 9.48976 7.52944C9.61528 7.5356 9.73403 7.58824 9.8229 7.67711C9.91176 7.76597 9.9644 7.88472 9.97056 8.01024C9.97673 8.13577 9.93598 8.2591 9.85625 8.35625L8.70625 9.5L9.85625 10.6438ZM13 5H3V3H4.5V3.5C4.5 3.63261 4.55268 3.75979 4.64645 3.85355C4.74021 3.94732 4.86739 4 5 4C5.13261 4 5.25979 3.94732 5.35355 3.85355C5.44732 3.75979 5.5 3.63261 5.5 3.5V3H10.5V3.5C10.5 3.63261 10.5527 3.75979 10.6464 3.85355C10.7402 3.94732 10.8674 4 11 4C11.1326 4 11.2598 3.94732 11.3536 3.85355C11.4473 3.75979 11.5 3.63261 11.5 3.5V3H13V5Z" fill="#CCCCCC"/>
</svg>
