<svg width="32" height="32" viewBox="0 0 32 32" fill="none" xmlns="http://www.w3.org/2000/svg">
<path fill-rule="evenodd" clip-rule="evenodd" d="M13.7436 28.805C13.7436 28.805 11.6219 28.4328 9.74413 27.4014L5.9977 28.4622C5.9977 28.4622 5.48321 28.6127 4.95553 28.4777C4.95553 28.4777 4.42784 28.3427 4.04269 27.9576C4.04269 27.9576 3.65755 27.5724 3.52257 27.0447C3.52257 27.0447 3.38758 26.517 3.54048 25.9943L4.59884 22.2561C4.59884 22.2561 3.56743 20.3783 3.19527 18.2566C3.19527 18.2566 2.78533 15.9196 3.22823 13.5885C3.22823 13.5885 3.67114 11.2575 4.90967 9.23359C4.90967 9.23359 6.1482 7.20973 8.02233 5.75454C8.02233 5.75454 9.89647 4.29934 12.1641 3.60083C12.1641 3.60083 14.4317 2.90231 16.7998 3.05072C16.7998 3.05072 19.1679 3.19913 21.3306 4.17529C21.3306 4.17529 23.4932 5.15145 25.171 6.82924C25.171 6.82924 26.8488 8.50703 27.825 10.6697C27.825 10.6697 28.8011 12.8323 28.9495 15.2005C28.9495 15.2005 29.0979 17.5686 28.3994 19.8362C28.3994 19.8362 27.7009 22.1038 26.2457 23.9779C26.2457 23.9779 24.7905 25.8521 22.7667 27.0906C22.7667 27.0906 20.7428 28.3291 18.4118 28.772C18.4118 28.772 16.0807 29.2149 13.7436 28.805ZM18.0384 26.8072C18.0384 26.8072 13.9585 27.5824 10.3859 25.4652C10.1501 25.3254 9.86657 25.2881 9.60285 25.3628L5.4662 26.534L6.63745 22.3974C6.71212 22.1337 6.67527 21.8509 6.53552 21.6151C6.53552 21.6151 4.4178 18.0422 5.19308 13.9618C5.19308 13.9618 5.96836 9.88147 9.24892 7.33425C9.24892 7.33425 12.5295 4.78703 16.6747 5.04681C16.6747 5.04681 20.8199 5.30659 23.7568 8.24346C23.7568 8.24346 26.6937 11.1803 26.9535 15.3256C26.9535 15.3256 27.2132 19.4708 24.666 22.7513C24.666 22.7513 22.1188 26.0319 18.0384 26.8072Z" fill="#1C1C1C"/>
<circle cx="24" cy="8" r="5" fill="#FF4747"/>
</svg>
