<svg width="36" height="36" viewBox="0 0 36 36" fill="none" xmlns="http://www.w3.org/2000/svg">
<path fill-rule="evenodd" clip-rule="evenodd" d="M15.4612 32.4055C15.4612 32.4055 13.0743 31.9868 10.9618 30.8265L6.74704 32.0198C6.74704 32.0198 6.16825 32.1892 5.5746 32.0373C5.5746 32.0373 4.98095 31.8855 4.54766 31.4522C4.54766 31.4522 4.11438 31.0189 3.96252 30.4252C3.96252 30.4252 3.81067 29.8316 3.98268 29.2435L5.17332 25.0381C5.17332 25.0381 4.01299 22.9255 3.59431 20.5386C3.59431 20.5386 3.13313 17.9094 3.6314 15.287C3.6314 15.287 4.12967 12.6645 5.52301 10.3877C5.52301 10.3877 6.91636 8.11085 9.02476 6.47376C9.02476 6.47376 11.1332 4.83667 13.6842 4.05084C13.6842 4.05084 16.2353 3.26501 18.8994 3.43197C18.8994 3.43197 21.5635 3.59893 23.9965 4.69711C23.9965 4.69711 26.4295 5.79529 28.317 7.68281C28.317 7.68281 30.2045 9.57032 31.3027 12.0033C31.3027 12.0033 32.4009 14.4363 32.5679 17.1004C32.5679 17.1004 32.7348 19.7645 31.949 22.3156C31.949 22.3156 31.1632 24.8667 29.5261 26.9751C29.5261 26.9751 27.889 29.0835 25.6121 30.4768C25.6121 30.4768 23.3353 31.8702 20.7129 32.3684C20.7129 32.3684 18.0904 32.8667 15.4612 32.4055ZM20.2929 30.158C20.2929 30.158 15.7029 31.0301 11.6837 28.6482C11.4185 28.491 11.0995 28.4491 10.8028 28.5331L6.14911 29.8507L7.46677 25.197C7.55077 24.9003 7.50931 24.5822 7.35209 24.3169C7.35209 24.3169 4.96966 20.2974 5.84185 15.707C5.84185 15.707 6.71404 11.1166 10.4047 8.25094C10.4047 8.25094 14.0953 5.38531 18.7587 5.67757C18.7587 5.67757 23.422 5.96982 26.726 9.2738C26.726 9.2738 30.03 12.5778 30.3223 17.2412C30.3223 17.2412 30.6145 21.9045 27.7489 25.5952C27.7489 25.5952 24.8833 29.2858 20.2929 30.158Z" fill="#1C1C1C"/>
</svg>
