<?xml version="1.0" encoding="utf-8"?>
<!-- Generator: Adobe Illustrator 26.4.1, SVG Export Plug-In . SVG Version: 6.00 Build 0)  -->
<svg version="1.1" id="Layer_1" xmlns="http://www.w3.org/2000/svg" xmlns:xlink="http://www.w3.org/1999/xlink" x="0px" y="0px"
	 viewBox="0 0 48 48" style="enable-background:new 0 0 48 48;" xml:space="preserve">
<g>
	<path d="M33.1,12.1c2,0,3.6,1.6,3.6,3.6v18.1c0,2-1.6,3.6-3.6,3.6H14.9c-2,0-3.6-1.6-3.6-3.6V15.8c0-2,1.6-3.6,3.6-3.6H33.1z
		 M30.6,22.3c0.6-0.6,0.6-1.6,0-2.2c-0.6-0.6-1.6-0.6-2.2,0l-6.1,6.1l-2.5-2.5c-0.6-0.6-1.6-0.6-2.2,0c-0.6,0.6-0.6,1.6,0,2.2
		l3.6,3.6c0.6,0.6,1.6,0.6,2.2,0L30.6,22.3z"/>
</g>
</svg>
