<svg width="23" height="22" viewBox="0 0 23 22" fill="none" xmlns="http://www.w3.org/2000/svg">
<path d="M13.7256 7.63007L6.3702 14.9855C6.24239 15.1091 6.07156 15.1782 5.89377 15.1782C5.71598 15.1782 5.54515 15.1091 5.41734 14.9855L1.73963 11.3078C1.633 11.1779 1.57851 11.0129 1.58675 10.845C1.595 10.6772 1.66539 10.5184 1.78424 10.3995C1.90308 10.2807 2.06189 10.2103 2.22976 10.202C2.39763 10.1938 2.56257 10.2483 2.69249 10.3549L5.89377 13.5646L12.7728 6.67721C12.9027 6.57058 13.0676 6.51609 13.2355 6.52433C13.4034 6.53258 13.5622 6.60297 13.681 6.72181C13.7999 6.84066 13.8703 6.99947 13.8785 7.16734C13.8867 7.33521 13.8323 7.50015 13.7256 7.63007ZM21.4154 6.67721C21.2886 6.55164 21.1174 6.4812 20.939 6.4812C20.7605 6.4812 20.5893 6.55164 20.4625 6.67721L13.5835 13.5646L12.1041 12.0851C11.9769 11.9699 11.8102 11.9079 11.6386 11.9122C11.4671 11.9164 11.3037 11.9864 11.1823 12.1078C11.0609 12.2292 10.9909 12.3926 10.9866 12.5642C10.9824 12.7358 11.0443 12.9024 11.1596 13.0296L13.1071 14.9855C13.2349 15.1091 13.4057 15.1782 13.5835 15.1782C13.7613 15.1782 13.9322 15.1091 14.06 14.9855L21.4154 7.63007C21.5409 7.50329 21.6114 7.33207 21.6114 7.15364C21.6114 6.9752 21.5409 6.80398 21.4154 6.67721Z" fill="#1C1C1C"/>
</svg>
