<svg width="25" height="24" viewBox="0 0 25 24" fill="none" xmlns="http://www.w3.org/2000/svg">
<path d="M15.0092 8.40944L6.7592 16.6594C6.61584 16.7981 6.42424 16.8755 6.22482 16.8755C6.02541 16.8755 5.8338 16.7981 5.69045 16.6594L1.56545 12.5344C1.44585 12.3887 1.38473 12.2037 1.39398 12.0154C1.40323 11.8271 1.48218 11.649 1.61548 11.5157C1.74878 11.3824 1.9269 11.3035 2.11519 11.2942C2.30348 11.285 2.48848 11.3461 2.6342 11.4657L6.22482 15.0657L13.9405 7.34069C14.0862 7.2211 14.2712 7.15998 14.4595 7.16923C14.6477 7.17847 14.8259 7.25743 14.9592 7.39073C15.0925 7.52403 15.1714 7.70215 15.1807 7.89044C15.1899 8.07872 15.1288 8.26372 15.0092 8.40944ZM23.6342 7.34069C23.492 7.19986 23.3 7.12085 23.0998 7.12085C22.8997 7.12085 22.7076 7.19986 22.5655 7.34069L14.8498 15.0657L13.1905 13.4063C13.0478 13.277 12.8609 13.2076 12.6684 13.2123C12.4759 13.2171 12.2927 13.2956 12.1565 13.4318C12.0204 13.5679 11.9418 13.7512 11.9371 13.9436C11.9323 14.1361 12.0018 14.323 12.1311 14.4657L14.3155 16.6594C14.4588 16.7981 14.6504 16.8755 14.8498 16.8755C15.0492 16.8755 15.2408 16.7981 15.3842 16.6594L23.6342 8.40944C23.775 8.26725 23.854 8.0752 23.854 7.87507C23.854 7.67493 23.775 7.48289 23.6342 7.34069Z" fill="#999999"/>
</svg>
