<svg width="20" height="20" viewBox="0 0 20 20" fill="none" xmlns="http://www.w3.org/2000/svg">
<path d="M9.375 6.24999V9.99999C9.375 10.3452 9.65482 10.625 10 10.625C10.3452 10.625 10.625 10.3452 10.625 9.99999V6.24999C10.625 5.90481 10.3452 5.62499 10 5.62499C9.65482 5.62499 9.375 5.90481 9.375 6.24999Z" fill="#1C1C1C"/>
<path d="M10.3124 9.45867L13.5623 11.3336C13.7451 11.439 13.8623 11.6295 13.874 11.8402C13.8747 11.8518 13.875 11.8634 13.875 11.875C13.875 11.9846 13.8462 12.0923 13.7914 12.1873C13.6859 12.37 13.4955 12.4873 13.2848 12.499C13.2732 12.4997 13.2616 12.5 13.25 12.5C13.1404 12.5 13.0326 12.4711 12.9377 12.4164L9.68776 10.5414C9.54721 10.4603 9.44375 10.3279 9.39913 10.172L9.39635 10.1619C9.38218 10.1091 9.375 10.0547 9.375 9.99999C9.375 9.9001 9.39894 9.80166 9.44482 9.71293C9.44923 9.7044 9.45384 9.69598 9.45863 9.68766C9.53967 9.5472 9.67213 9.44373 9.82803 9.39911L9.83804 9.39634C9.89086 9.38217 9.94531 9.37499 10 9.37499C10.0999 9.37499 10.1983 9.39893 10.2871 9.44481C10.2956 9.44922 10.304 9.45383 10.3124 9.45867Z" fill="#1C1C1C"/>
<path d="M18.1406 7.78907V4.66407C18.1406 4.31889 17.8608 4.03907 17.5156 4.03907C17.1705 4.03907 16.8906 4.31889 16.8906 4.66407V7.16407H14.3906C14.0455 7.16407 13.7656 7.44389 13.7656 7.78907C13.7656 8.13424 14.0455 8.41407 14.3906 8.41407H17.5156C17.8608 8.41407 18.1406 8.13424 18.1406 7.78907Z" fill="#1C1C1C"/>
<path d="M17.0743 8.23162C17.1915 8.34843 17.3502 8.41407 17.5156 8.41407L17.5165 8.41402C17.6823 8.41378 17.8412 8.3477 17.9582 8.23031C18.075 8.11316 18.1406 7.95451 18.1406 7.78907L18.1406 7.7881C18.1404 7.62234 18.0743 7.46347 17.9569 7.34643L15.3007 4.69799C13.6931 3.08913 11.4615 2.64452 11.4615 2.64452C9.2298 2.19991 7.12732 3.07028 7.12732 3.07028C5.02484 3.94065 3.76044 5.83255 3.76044 5.83255C2.49603 7.72444 2.49603 9.99996 2.49603 9.99996C2.49603 12.2755 3.76044 14.1674 3.76044 14.1674C5.02484 16.0593 7.12732 16.9296 7.12732 16.9296C9.2298 17.8 11.4615 17.3554 11.4615 17.3554C13.6929 16.9108 15.3012 15.3014 15.3012 15.3014C15.4183 15.1842 15.4844 15.025 15.4844 14.8593C15.4843 14.6936 15.4184 14.5344 15.3011 14.4172C15.1839 14.3001 15.025 14.2343 14.8594 14.2343C14.6936 14.2344 14.5344 14.3003 14.4173 14.4176C13.0769 15.759 11.2172 16.1295 11.2172 16.1295C9.35751 16.5 7.60544 15.7747 7.60544 15.7747C5.85337 15.0494 4.7997 13.4728 4.7997 13.4728C3.74603 11.8962 3.74603 9.99996 3.74603 9.99996C3.74603 8.1037 4.7997 6.52712 4.7997 6.52712C5.85337 4.95054 7.60544 4.22523 7.60544 4.22523C9.35751 3.49991 11.2172 3.87043 11.2172 3.87043C13.0769 4.24094 14.4181 5.58318 14.4181 5.58318L17.0743 8.23162Z" fill="#1C1C1C"/>
</svg>
