<svg width="512" height="512" viewBox="0 0 512 512" fill="none" xmlns="http://www.w3.org/2000/svg">
<g clip-path="url(#clip0_585_1026)">
<path d="M256 512C397.4 512 512 397.4 512 256C512 114.6 397.4 0 256 0C114.6 0 0 114.6 0 256C0 397.4 114.6 512 256 512ZM306.7 325.1L162.4 380.6C143 388.1 123.9 369 131.4 349.6L186.9 205.3C190.2 196.8 196.8 190.2 205.3 186.9L349.6 131.4C369 123.9 388.1 143 380.6 162.4L325.1 306.7C321.9 315.2 315.2 321.8 306.7 325.1ZM288 256C288 238.3 273.7 224 256 224C238.3 224 224 238.3 224 256C224 273.7 238.3 288 256 288C273.7 288 288 273.7 288 256Z" fill="#999999"/>
</g>
<defs>
<clipPath id="clip0_585_1026">
<rect width="512" height="512" fill="white"/>
</clipPath>
</defs>
</svg>
