<svg width="25" height="24" viewBox="0 0 25 24" fill="none" xmlns="http://www.w3.org/2000/svg">
<path fill-rule="evenodd" clip-rule="evenodd" d="M12.1016 2.25C12.1016 2.25 10.1184 2.25 8.30619 3.01651C8.30619 3.01651 6.55635 3.75663 5.20727 5.10571C5.20727 5.10571 3.85819 6.45478 3.11807 8.20463C3.11807 8.20463 2.35156 10.0169 2.35156 12C2.35156 12 2.35157 13.9831 3.11807 15.7954C3.11807 15.7954 3.85819 17.5452 5.20727 18.8943C5.20727 18.8943 6.55635 20.2434 8.30619 20.9835C8.30619 20.9835 10.1184 21.75 12.1016 21.75C12.1016 21.75 14.0847 21.75 15.8969 20.9835C15.8969 20.9835 17.6468 20.2434 18.9959 18.8943C18.9959 18.8943 20.3449 17.5452 21.0851 15.7954C21.0851 15.7954 21.8516 13.9831 21.8516 12C21.8516 12 21.8516 10.0169 21.0851 8.20463C21.0851 8.20463 20.3449 6.45478 18.9959 5.10571C18.9959 5.10571 17.6468 3.75663 15.8969 3.01651C15.8969 3.01651 14.0847 2.25 12.1016 2.25ZM12.1016 3.75C12.1016 3.75 13.7805 3.75 15.3126 4.39802C15.3126 4.39802 16.793 5.02417 17.9352 6.16637C17.9352 6.16637 19.0774 7.30857 19.7035 8.78896C19.7035 8.78896 20.3516 10.321 20.3516 12C20.3516 12 20.3516 13.679 19.7035 15.211C19.7035 15.211 19.0774 16.6914 17.9352 17.8336C17.9352 17.8336 16.793 18.9758 15.3126 19.602C15.3126 19.602 13.7805 20.25 12.1016 20.25C12.1016 20.25 10.4226 20.25 8.89052 19.602C8.89052 19.602 7.41013 18.9758 6.26793 17.8336C6.26793 17.8336 5.12573 16.6914 4.49958 15.211C4.49958 15.211 3.85156 13.6789 3.85156 12C3.85156 12 3.85156 10.3211 4.49958 8.78896C4.49958 8.78896 5.12573 7.30857 6.26793 6.16637C6.26793 6.16637 7.41013 5.02417 8.89052 4.39802C8.89052 4.39802 10.4226 3.75 12.1016 3.75Z" fill="#1C1C1C"/>
<path fill-rule="evenodd" clip-rule="evenodd" d="M16.3714 16.6647C16.7523 16.5018 16.929 16.061 16.7662 15.6802L14.3849 10.1114C14.3113 9.93927 14.1759 9.80086 14.0054 9.72344L8.18354 7.07969C7.98695 6.99041 7.76142 6.99019 7.56466 7.07909C7.38339 7.16098 7.24207 7.31153 7.1718 7.49761C7.10153 7.6837 7.10805 7.89008 7.18995 8.07135L9.82432 13.9026C9.90162 14.0737 10.0403 14.2096 10.2129 14.2834L15.7817 16.6647C15.97 16.7452 16.1831 16.7452 16.3714 16.6647ZM11.0711 13.019L14.6515 14.55L13.1202 10.9689L9.377 9.26906L11.0711 13.019Z" fill="#1C1C1C"/>
</svg>
