<svg width="21" height="20" viewBox="0 0 21 20" fill="none" xmlns="http://www.w3.org/2000/svg">
<g id="Compass">
<g id="Vector">
<path fill-rule="evenodd" clip-rule="evenodd" d="M10.8008 1.875C10.8008 1.875 9.14817 1.875 7.63797 2.51376C7.63797 2.51376 6.17977 3.13053 5.05554 4.25476C5.05554 4.25476 3.9313 5.37899 3.31454 6.83719C3.31454 6.83719 2.67578 8.34739 2.67578 10C2.67578 10 2.67578 11.6526 3.31454 13.1628C3.31454 13.1628 3.9313 14.621 5.05554 15.7452C5.05554 15.7452 6.17977 16.8695 7.63797 17.4862C7.63797 17.4862 9.14818 18.125 10.8008 18.125C10.8008 18.125 12.4534 18.125 13.9636 17.4862C13.9636 17.4862 15.4218 16.8695 16.546 15.7452C16.546 15.7452 17.6703 14.621 18.287 13.1628C18.287 13.1628 18.9258 11.6526 18.9258 10C18.9258 10 18.9258 8.34739 18.287 6.83719C18.287 6.83719 17.6703 5.37899 16.546 4.25476C16.546 4.25476 15.4218 3.13053 13.9636 2.51376C13.9636 2.51376 12.4534 1.875 10.8008 1.875ZM10.8008 3.125C10.8008 3.125 12.1999 3.125 13.4766 3.66501C13.4766 3.66501 14.7103 4.18681 15.6621 5.13864C15.6621 5.13864 16.614 6.09047 17.1358 7.32413C17.1358 7.32413 17.6758 8.60087 17.6758 10C17.6758 10 17.6758 11.3991 17.1358 12.6759C17.1358 12.6759 16.614 13.9095 15.6621 14.8614C15.6621 14.8614 14.7103 15.8132 13.4766 16.335C13.4766 16.335 12.1999 16.875 10.8008 16.875C10.8008 16.875 9.40166 16.875 8.12491 16.335C8.12491 16.335 6.89126 15.8132 5.93942 14.8614C5.93942 14.8614 4.98759 13.9095 4.4658 12.6759C4.4658 12.6759 3.92578 11.3991 3.92578 10C3.92578 10 3.92578 8.60087 4.4658 7.32413C4.4658 7.32413 4.98759 6.09047 5.93942 5.13864C5.93942 5.13864 6.89126 4.18681 8.12491 3.66501C8.12491 3.66501 9.40165 3.125 10.8008 3.125Z" fill="#999999"/>
<path fill-rule="evenodd" clip-rule="evenodd" d="M14.359 13.8872C14.6764 13.7515 14.8237 13.3842 14.6879 13.0668L12.7036 8.4262C12.6422 8.28272 12.5294 8.16738 12.3873 8.10286L7.53576 5.89974C7.37194 5.82534 7.184 5.82516 7.02003 5.89924C6.86897 5.96748 6.7512 6.09294 6.69264 6.24801C6.63408 6.40308 6.63952 6.57507 6.70777 6.72613L8.90308 11.5855C8.9675 11.7281 9.08306 11.8413 9.22692 11.9029L13.8675 13.8872C14.0245 13.9543 14.2021 13.9543 14.359 13.8872ZM9.94207 10.8492L12.9257 12.125L11.6496 9.14071L8.53032 7.72422L9.94207 10.8492Z" fill="#999999"/>
</g>
</g>
</svg>
