<svg width="28" height="24" viewBox="0 0 28 24" fill="none" xmlns="http://www.w3.org/2000/svg">
<path d="M13 1V23C13 23.5523 13.4477 24 14 24C14.5523 24 15 23.5523 15 23V1C15 0.447715 14.5523 0 14 0C13.4477 0 13 0.447715 13 1Z" fill="#1C1C1C"/>
<path d="M11 24H17C17.5523 24 18 23.5523 18 23C18 22.4477 17.5523 22 17 22H11C10.4477 22 10 22.4477 10 23C10 23.5523 10.4477 24 11 24Z" fill="#1C1C1C"/>
<path d="M23.2169 3.97619C23.6745 3.87451 24 3.46871 24 3.00001L23.9999 2.98801C23.9991 2.91906 23.9911 2.85038 23.9762 2.78307C23.9187 2.52417 23.7606 2.29873 23.5369 2.15634C23.3764 2.05423 23.1902 2 23 2L22.9758 2.00029C22.9109 2.00186 22.8464 2.00974 22.7831 2.02381L4.78342 6.02373C4.52452 6.08127 4.29873 6.23937 4.15634 6.46312C4.05423 6.62358 4 6.80982 4 7L4.00029 7.02423C4.00187 7.08907 4.00974 7.15361 4.02381 7.21693C4.12549 7.67447 4.5313 8 5 8L5.01199 7.99993C5.08094 7.9991 5.14962 7.99115 5.21693 7.97619L23.2169 3.97619Z" fill="#1C1C1C"/>
<path fill-rule="evenodd" clip-rule="evenodd" d="M4.07152 6.62863C4.17316 6.37453 4.37451 6.17319 4.62861 6.07155C5.14139 5.86643 5.72336 6.11585 5.92848 6.62863L9.92848 16.6286C9.97572 16.7468 10 16.8728 10 17C10 17 10 19.0668 8.06596 20.1937C8.06596 20.1937 6.68222 21 5 21C5 21 3.31778 21 1.93404 20.1937C1.93404 20.1937 0 19.0668 0 17C0 16.8728 0.0242752 16.7468 0.0715233 16.6286L4.07152 6.62863ZM2.00852 17.1713L5 9.6926L7.99148 17.1713C7.99148 17.1713 7.91045 17.9696 7.05904 18.4657C7.05904 18.4657 6.14204 19 5 19C5 19 3.85796 19 2.94096 18.4657C2.94096 18.4657 2.08955 17.9696 2.00852 17.1713Z" fill="#1C1C1C"/>
<path fill-rule="evenodd" clip-rule="evenodd" d="M22.0715 2.62863C22.1732 2.37453 22.3745 2.17319 22.6286 2.07155C23.1414 1.86643 23.7234 2.11585 23.9285 2.62863L27.9285 12.6286C27.9757 12.7468 28 12.8728 28 13C28 13 28 15.0668 26.066 16.1937C26.066 16.1937 24.6822 17 23 17C23 17 21.3178 17 19.934 16.1937C19.934 16.1937 18 15.0668 18 13C18 12.8728 18.0243 12.7468 18.0715 12.6286L22.0715 2.62863ZM20.0085 13.1713L23 5.6926L25.9915 13.1713C25.9915 13.1713 25.9104 13.9696 25.059 14.4657C25.059 14.4657 24.142 15 23 15C23 15 21.858 15 20.941 14.4657C20.941 14.4657 20.0896 13.9696 20.0085 13.1713Z" fill="#1C1C1C"/>
</svg>
