<svg width="16" height="16" viewBox="0 0 16 16" fill="none" xmlns="http://www.w3.org/2000/svg">
<path d="M0 8C0 12.4183 3.58172 16 8 16C12.4183 16 16 12.4183 16 8C16 3.58172 12.4183 0 8 0C3.58172 0 0 3.58172 0 8Z" fill="black" fill-opacity="0.1"/>
<path fill-rule="evenodd" clip-rule="evenodd" d="M10.7071 6.70686C11.0976 6.31634 11.0976 5.68317 10.7071 5.29265C10.3166 4.90212 9.68342 4.90212 9.29289 5.29265L8 6.58554L6.70711 5.29265C6.31658 4.90212 5.68342 4.90212 5.29289 5.29265C4.90237 5.68317 4.90237 6.31634 5.29289 6.70686L6.58579 7.99976L5.29289 9.29265C4.90237 9.68317 4.90237 10.3163 5.29289 10.7069C5.68342 11.0974 6.31658 11.0974 6.70711 10.7069L8 9.41397L9.29289 10.7069C9.68342 11.0974 10.3166 11.0974 10.7071 10.7069C11.0976 10.3163 11.0976 9.68317 10.7071 9.29265L9.41421 7.99976L10.7071 6.70686Z" fill="white"/>
</svg>
