<svg width="16" height="16" viewBox="0 0 16 16" fill="none" xmlns="http://www.w3.org/2000/svg">
<path d="M8.77783 7.99957C8.77783 8.43707 8.41325 8.77734 8.00005 8.77734C7.56255 8.77734 7.22228 8.43707 7.22228 7.99957C7.22228 7.58637 7.56255 7.22179 8.00005 7.22179C8.41325 7.22179 8.77783 7.58637 8.77783 7.99957ZM1.77783 7.99957C1.77783 4.57248 4.54867 1.77734 8.00005 1.77734C11.4271 1.77734 14.2223 4.57248 14.2223 7.99957C14.2223 11.451 11.4271 14.2218 8.00005 14.2218C4.54867 14.2218 1.77783 11.451 1.77783 7.99957ZM9.67714 9.23915L11.0139 5.73915C11.2084 5.25304 10.7466 4.79123 10.2605 4.98568L6.76047 6.32248C6.54172 6.4197 6.39589 6.56554 6.29867 6.78429L4.96186 10.2843C4.76742 10.7461 5.22922 11.2322 5.71533 11.0378L9.21533 9.70095C9.43408 9.60373 9.57992 9.4579 9.67714 9.23915Z" fill="#1C1C1C"/>
</svg>
