<svg width="14" height="16" viewBox="0 0 14 16" fill="none" xmlns="http://www.w3.org/2000/svg">
<path fill-rule="evenodd" clip-rule="evenodd" d="M7 3.5C7 3.5 8.16498 3.5 8.98874 4.32376C8.98874 4.32376 9.8125 5.14752 9.8125 6.3125C9.8125 6.3125 9.8125 7.47748 8.98874 8.30124C8.98874 8.30124 8.16498 9.125 7 9.125C7 9.125 5.83502 9.125 5.01126 8.30124C5.01126 8.30124 4.1875 7.47748 4.1875 6.3125C4.1875 6.3125 4.1875 5.14752 5.01126 4.32376C5.01126 4.32376 5.83502 3.5 7 3.5ZM7 4.625C7 4.625 6.30101 4.625 5.80676 5.11926C5.80676 5.11926 5.3125 5.61351 5.3125 6.3125C5.3125 6.3125 5.3125 7.01149 5.80676 7.50574C5.80676 7.50574 6.30101 8 7 8C7 8 7.69899 8 8.19324 7.50574C8.19324 7.50574 8.6875 7.01149 8.6875 6.3125C8.6875 6.3125 8.6875 5.61351 8.19324 5.11926C8.19324 5.11926 7.69899 4.625 7 4.625Z" fill="black" fill-opacity="0.4"/>
<path fill-rule="evenodd" clip-rule="evenodd" d="M12.7165 3.94465C12.7165 3.94465 13.1875 5.08173 13.1875 6.3125C13.1875 6.3125 13.1875 9.68692 10.237 13.08C10.237 13.08 9.33022 14.1228 8.24321 15.0468C8.24321 15.0468 7.69576 15.5121 7.32257 15.7733C7.12889 15.9089 6.87111 15.9089 6.67743 15.7733C6.67743 15.7733 6.30424 15.5121 5.75679 15.0468C5.75679 15.0468 4.66978 14.1228 3.76303 13.08C3.76303 13.08 0.8125 9.68692 0.8125 6.3125C0.8125 6.3125 0.8125 5.08173 1.2835 3.94465C1.2835 3.94465 1.75449 2.80756 2.62478 1.93728C2.62478 1.93728 3.49506 1.06699 4.63215 0.595995C4.63215 0.595995 5.76923 0.125 7 0.125C7 0.125 8.23077 0.125 9.36785 0.595995C9.36785 0.595995 10.5049 1.06699 11.3752 1.93728C11.3752 1.93728 12.2455 2.80756 12.7165 3.94465ZM12.0625 6.3125C12.0625 6.3125 12.0625 5.30551 11.6771 4.37516C11.6771 4.37516 11.2918 3.44483 10.5797 2.73277C10.5797 2.73277 9.86768 2.02072 8.93733 1.63536C8.93733 1.63536 8.00699 1.25 7 1.25C7 1.25 5.99301 1.25 5.06266 1.63536C5.06266 1.63536 4.13232 2.02072 3.42027 2.73277C3.42027 2.73277 2.70822 3.44482 2.32286 4.37516C2.32286 4.37516 1.9375 5.30551 1.9375 6.3125C1.9375 6.3125 1.9375 9.2662 4.61197 12.3418C4.61197 12.3418 5.46303 13.3206 6.4854 14.1896C6.4854 14.1896 6.77076 14.4321 7 14.6113C7 14.6113 7.22924 14.4321 7.5146 14.1896C7.5146 14.1896 8.53697 13.3206 9.38803 12.3418C9.38803 12.3418 12.0625 9.2662 12.0625 6.3125Z" fill="black" fill-opacity="0.4"/>
</svg>
