<svg width="21" height="20" viewBox="0 0 21 20" fill="none" xmlns="http://www.w3.org/2000/svg">
<path d="M18.9258 18.125H2.67578C2.3306 18.125 2.05078 17.8452 2.05078 17.5C2.05078 17.1548 2.3306 16.875 2.67578 16.875H18.9258C19.271 16.875 19.5508 17.1548 19.5508 17.5C19.5508 17.8452 19.271 18.125 18.9258 18.125Z" fill="#1C1C1C"/>
<path d="M5.80078 3.125V17.5C5.80078 17.8452 5.52096 18.125 5.17578 18.125C4.8306 18.125 4.55078 17.8452 4.55078 17.5V3.125C4.55078 2.60723 4.9169 2.24112 4.9169 2.24112C5.28301 1.875 5.80078 1.875 5.80078 1.875H15.8008C16.3185 1.875 16.6847 2.24112 16.6847 2.24112C17.0508 2.60723 17.0508 3.125 17.0508 3.125V17.5C17.0508 17.8452 16.771 18.125 16.4258 18.125C16.0806 18.125 15.8008 17.8452 15.8008 17.5V3.125H5.80078Z" fill="#1C1C1C"/>
<path d="M7.67578 10C7.67578 10.5177 8.09555 10.9375 8.61328 10.9375C9.13101 10.9375 9.55078 10.5177 9.55078 10C9.55078 9.48227 9.13101 9.0625 8.61328 9.0625C8.09555 9.0625 7.67578 9.48227 7.67578 10Z" fill="#1C1C1C"/>
</svg>
