<svg width="20" height="20" viewBox="0 0 20 20" fill="none" xmlns="http://www.w3.org/2000/svg">
<g id="DotsThreeVertical">
<g id="Vector">
<path d="M10.9375 10C10.9375 10.5177 10.5177 10.9375 10 10.9375C9.48227 10.9375 9.0625 10.5177 9.0625 10C9.0625 9.48227 9.48227 9.0625 10 9.0625C10.5177 9.0625 10.9375 9.48227 10.9375 10Z" fill="#1C1C1C"/>
<path d="M10.9375 5C10.9375 5.51773 10.5177 5.9375 10 5.9375C9.48227 5.9375 9.0625 5.51773 9.0625 5C9.0625 4.48227 9.48227 4.0625 10 4.0625C10.5177 4.0625 10.9375 4.48227 10.9375 5Z" fill="#1C1C1C"/>
<path d="M10.9375 15C10.9375 15.5177 10.5177 15.9375 10 15.9375C9.48227 15.9375 9.0625 15.5177 9.0625 15C9.0625 14.4823 9.48227 14.0625 10 14.0625C10.5177 14.0625 10.9375 14.4823 10.9375 15Z" fill="#1C1C1C"/>
</g>
</g>
</svg>
