<svg width="17" height="17" viewBox="0 0 17 17" fill="none" xmlns="http://www.w3.org/2000/svg">
<path d="M11.6645 7.68054C11.7641 7.58091 11.8203 7.44558 11.8203 7.30469C11.8203 7.16379 11.7643 7.02867 11.6647 6.92904C11.5651 6.82941 11.43 6.77344 11.2891 6.77344C11.1482 6.77344 11.013 6.82941 10.9134 6.92904L8.5 9.34245L6.08665 6.9291C5.98696 6.82941 5.85183 6.77344 5.71094 6.77344C5.57004 6.77344 5.43492 6.82941 5.33529 6.92904C5.23566 7.02867 5.17969 7.16379 5.17969 7.30469C5.17969 7.44558 5.23566 7.58071 5.33529 7.68034L8.12435 10.4694C8.22398 10.569 8.3591 10.625 8.5 10.625C8.6409 10.625 8.77602 10.569 8.87565 10.4694L11.6645 7.68054Z" fill="white"/>
<path d="M7.96875 2.65625V10.0938C7.96875 10.3872 8.2066 10.625 8.5 10.625C8.7934 10.625 9.03125 10.3872 9.03125 10.0938V2.65625C9.03125 2.36285 8.7934 2.125 8.5 2.125C8.2066 2.125 7.96875 2.36285 7.96875 2.65625Z" fill="white"/>
<path d="M3.1875 13.8125V10.0938C3.1875 9.80035 2.94965 9.5625 2.65625 9.5625C2.36285 9.5625 2.125 9.80035 2.125 10.0938V13.8125C2.125 14.2526 2.4362 14.5638 2.4362 14.5638C2.7474 14.875 3.1875 14.875 3.1875 14.875H13.8125C14.2526 14.875 14.5638 14.5638 14.5638 14.5638C14.875 14.2526 14.875 13.8125 14.875 13.8125V10.0938C14.875 9.80035 14.6372 9.5625 14.3438 9.5625C14.0503 9.5625 13.8125 9.80035 13.8125 10.0938V13.8125H3.1875Z" fill="white"/>
</svg>
