<svg width="26" height="26" viewBox="0 0 26 26" fill="none" xmlns="http://www.w3.org/2000/svg">
<g id="DownloadSimple">
<path id="Vector" d="M17.7855 11.7608L17.7858 11.7605C17.9365 11.6098 18.0212 11.4054 18.0212 11.1922C18.0212 10.9791 17.9365 10.7747 17.7858 10.624C17.6351 10.4733 17.4308 10.3887 17.2176 10.3887C17.0045 10.3887 16.8001 10.4733 16.6494 10.624L16.6491 10.6243L12.9989 14.2746L9.34844 10.6241C9.19765 10.4733 8.99325 10.3887 8.78013 10.3887C8.56701 10.3887 8.36262 10.4733 8.21192 10.624C8.06122 10.7747 7.97656 10.9791 7.97656 11.1922C7.97656 11.4054 8.06122 11.6098 8.21192 11.7605L12.4307 15.9792C12.5814 16.1299 12.7858 16.2146 12.9989 16.2146C13.212 16.2146 13.4164 16.1299 13.5671 15.9792L17.7855 11.7608Z" fill="#1C1C1C"/>
<path id="Vector_2" d="M12.1953 4.16099V15.411C12.1953 15.8548 12.5551 16.2146 12.9989 16.2146C13.4427 16.2146 13.8025 15.8548 13.8025 15.411V4.16099C13.8025 3.71719 13.4427 3.35742 12.9989 3.35742C12.5551 3.35742 12.1953 3.71719 12.1953 4.16099Z" fill="#1C1C1C"/>
<path id="Vector_3" d="M4.96456 21.036V15.411C4.96456 14.9672 4.60479 14.6074 4.16099 14.6074C3.71719 14.6074 3.35742 14.9672 3.35742 15.411V21.036C3.35742 21.7017 3.82814 22.1724 3.82814 22.1724C4.29886 22.6431 4.96456 22.6431 4.96456 22.6431H21.036C21.7017 22.6431 22.1724 22.1724 22.1724 22.1724C22.6431 21.7017 22.6431 21.036 22.6431 21.036V15.411C22.6431 14.9672 22.2834 14.6074 21.8396 14.6074C21.3958 14.6074 21.036 14.9672 21.036 15.411V21.036H4.96456Z" fill="#1C1C1C"/>
</g>
</svg>
