<?xml version="1.0" encoding="utf-8"?>
<!-- Generator: Adobe Illustrator 26.0.1, SVG Export Plug-In . SVG Version: 6.00 Build 0)  -->
<svg version="1.1" id="Layer_1" xmlns="http://www.w3.org/2000/svg" xmlns:xlink="http://www.w3.org/1999/xlink" x="0px" y="0px"
	 viewBox="0 0 48 48" style="enable-background:new 0 0 48 48;" xml:space="preserve">
<style type="text/css">
	.st0{opacity:0.4;enable-background:new    ;}
</style>
<g>
	<g>
		<path d="M20.1,33.7c-0.4,0.4-0.8,0.6-1.3,0.8l-6.8,2c-0.4,0.1-0.9,0-1.3-0.4c-0.3-0.3-0.5-0.8-0.3-1.2l2-6.8
			c0.1-0.5,0.4-0.9,0.8-1.3l13.4-13.4l6.9,6.9L20.1,33.7z"/>
		<g class="st0">
			<path d="M29.7,10.2c1.3-1.3,3.5-1.3,4.8,0l2.1,2.1c1.3,1.3,1.3,3.5,0,4.8l-3.2,3.1l-6.9-6.9L29.7,10.2z"/>
		</g>
	</g>
</g>
</svg>
