<svg width="16" height="17" viewBox="0 0 16 17" fill="none" xmlns="http://www.w3.org/2000/svg">
<path d="M13.2095 7.33785V13.127C13.2095 13.3829 13.1078 13.6284 12.9269 13.8093C12.7459 13.9902 12.5005 14.0919 12.2446 14.0919H3.56081C3.30491 14.0919 3.0595 13.9902 2.87855 13.8093C2.6976 13.6284 2.59595 13.3829 2.59595 13.127V7.33785C2.59595 7.08195 2.6976 6.83653 2.87855 6.65559C3.0595 6.47464 3.30491 6.37298 3.56081 6.37298H5.00811C5.13606 6.37298 5.25877 6.42381 5.34924 6.51428C5.43971 6.60476 5.49054 6.72747 5.49054 6.85542C5.49054 6.98336 5.43971 7.10607 5.34924 7.19655C5.25877 7.28702 5.13606 7.33785 5.00811 7.33785H3.56081V13.127H12.2446V7.33785H10.7973C10.6693 7.33785 10.5466 7.28702 10.4562 7.19655C10.3657 7.10607 10.3149 6.98336 10.3149 6.85542C10.3149 6.72747 10.3657 6.60476 10.4562 6.51428C10.5466 6.42381 10.6693 6.37298 10.7973 6.37298H12.2446C12.5005 6.37298 12.7459 6.47464 12.9269 6.65559C13.1078 6.83653 13.2095 7.08195 13.2095 7.33785ZM5.83186 4.78457L7.42027 3.19556V8.78515C7.42027 8.91309 7.4711 9.0358 7.56157 9.12628C7.65205 9.21675 7.77476 9.26758 7.9027 9.26758C8.03065 9.26758 8.15336 9.21675 8.24384 9.12628C8.33431 9.0358 8.38514 8.91309 8.38514 8.78515V3.19556L9.97355 4.78457C10.0641 4.8751 10.1868 4.92595 10.3149 4.92595C10.4429 4.92595 10.5657 4.8751 10.6562 4.78457C10.7467 4.69405 10.7976 4.57127 10.7976 4.44325C10.7976 4.31523 10.7467 4.19246 10.6562 4.10193L8.24403 1.68977C8.19922 1.64491 8.14601 1.60933 8.08745 1.58505C8.02888 1.56078 7.9661 1.54828 7.9027 1.54828C7.83931 1.54828 7.77653 1.56078 7.71796 1.58505C7.6594 1.60933 7.60619 1.64491 7.56138 1.68977L5.14922 4.10193C5.0587 4.19246 5.00784 4.31523 5.00784 4.44325C5.00784 4.57127 5.0587 4.69405 5.14922 4.78457C5.23975 4.8751 5.36252 4.92595 5.49054 4.92595C5.61856 4.92595 5.74134 4.8751 5.83186 4.78457Z" fill="white"/>
</svg>
