<svg width="25" height="25" viewBox="0 0 25 25" fill="none" xmlns="http://www.w3.org/2000/svg">
<g id="Eye">
<g id="Vector">
<path fill-rule="evenodd" clip-rule="evenodd" d="M1.4162 12.8046C1.4162 12.8046 1.62563 13.2758 2.05283 13.9543C2.05283 13.9543 2.89455 15.2911 4.00873 16.4053C4.00873 16.4053 7.60341 20 12.6016 20C12.6016 20 17.5997 20 21.1944 16.4053C21.1944 16.4053 22.3086 15.2911 23.1503 13.9543C23.1503 13.9543 23.5775 13.2758 23.7869 12.8046C23.8731 12.6107 23.8731 12.3893 23.7869 12.1954C23.7869 12.1954 23.5775 11.7242 23.1503 11.0457C23.1503 11.0457 22.3086 9.70886 21.1944 8.59467C21.1944 8.59467 17.5997 5 12.6016 5C12.6016 5 7.60341 5 4.00873 8.59467C4.00873 8.59467 2.89454 9.70886 2.05283 11.0457C2.05283 11.0457 1.62563 11.7242 1.4162 12.1954C1.33002 12.3893 1.33002 12.6107 1.4162 12.8046ZM3.32217 13.1551C3.32217 13.1551 3.08909 12.7849 2.93715 12.5C2.93715 12.5 3.08909 12.2151 3.32217 11.8449C3.32217 11.8449 4.07421 10.6505 5.06939 9.65533C5.06939 9.65533 8.22473 6.5 12.6016 6.5C12.6016 6.5 16.9784 6.5 20.1337 9.65533C20.1337 9.65533 21.1289 10.6505 21.881 11.8449C21.881 11.8449 22.114 12.2151 22.266 12.5C22.266 12.5 22.114 12.7849 21.881 13.1551C21.881 13.1551 21.1289 14.3495 20.1337 15.3447C20.1337 15.3447 16.9784 18.5 12.6016 18.5C12.6016 18.5 8.22472 18.5 5.06939 15.3447C5.06939 15.3447 4.07422 14.3495 3.32217 13.1551Z" fill="#1C1C1C"/>
<path fill-rule="evenodd" clip-rule="evenodd" d="M12.6016 8C12.6016 8 10.7376 8 9.41958 9.31802C9.41958 9.31802 8.10156 10.636 8.10156 12.5C8.10156 12.5 8.10156 14.364 9.41958 15.682C9.41958 15.682 10.7376 17 12.6016 17C12.6016 17 14.4655 17 15.7835 15.682C15.7835 15.682 17.1016 14.364 17.1016 12.5C17.1016 12.5 17.1016 10.636 15.7835 9.31802C15.7835 9.31802 14.4655 8 12.6016 8ZM12.6016 9.5C12.6016 9.5 13.8442 9.5 14.7229 10.3787C14.7229 10.3787 15.6016 11.2574 15.6016 12.5C15.6016 12.5 15.6016 13.7426 14.7229 14.6213C14.7229 14.6213 13.8442 15.5 12.6016 15.5C12.6016 15.5 11.3589 15.5 10.4802 14.6213C10.4802 14.6213 9.60156 13.7426 9.60156 12.5C9.60156 12.5 9.60156 11.2574 10.4802 10.3787C10.4802 10.3787 11.3589 9.5 12.6016 9.5Z" fill="#1C1C1C"/>
</g>
</g>
</svg>
