<svg width="16" height="16" viewBox="0 0 16 16" fill="none" xmlns="http://www.w3.org/2000/svg">
<path d="M12.6667 1.7959H3.33339C2.45839 1.7959 1.77783 2.50076 1.77783 3.35145V10.3271C1.77783 11.2265 2.45839 11.907 3.33339 11.907H5.66672V13.9244C5.66672 14.1674 5.93408 14.289 6.12853 14.1431L9.16672 11.907H12.6667C13.5174 11.907 14.2223 11.2021 14.2223 10.3515V3.35145C14.2223 2.50076 13.5174 1.7959 12.6667 1.7959ZM9.70144 8.04243C9.60422 8.62576 9.16672 8.99034 8.53478 9.13618V9.42784C8.53478 9.71951 8.29172 9.98687 8.00005 9.98687C7.68408 9.98687 7.44103 9.71951 7.44103 9.42784V9.11187C7.19797 9.06326 6.95492 8.99034 6.73617 8.91743L6.61464 8.86881C6.32297 8.77159 6.17714 8.45562 6.27436 8.16395C6.37158 7.87229 6.68755 7.72645 6.97922 7.82368L7.10075 7.87229C7.3195 7.9452 7.58686 8.04243 7.757 8.06673C8.12158 8.11534 8.55908 8.06673 8.58339 7.84798C8.60769 7.70215 8.632 7.62923 7.80561 7.38618L7.68408 7.33756C7.19797 7.21604 6.05561 6.87576 6.27436 5.68479C6.37158 5.10145 6.80908 4.71256 7.44103 4.59104V4.29937C7.44103 4.0077 7.68408 3.74034 8.00005 3.74034C8.29172 3.74034 8.53478 4.0077 8.53478 4.29937V4.61534C8.70492 4.63965 8.85075 4.68826 9.0695 4.76118C9.33686 4.8584 9.507 5.17437 9.40978 5.46604C9.31255 5.7577 8.97228 5.90354 8.70492 5.80631C8.53478 5.7334 8.36464 5.68479 8.1945 5.66048C7.82992 5.61187 7.39242 5.66048 7.36811 5.87923C7.3438 6.00076 7.3195 6.09798 7.97575 6.29243L8.14589 6.31673C8.75353 6.51118 9.92019 6.82715 9.70144 8.04243Z" fill="#1C1C1C"/>
</svg>
