<svg width="20" height="20" viewBox="0 0 20 20" fill="none" xmlns="http://www.w3.org/2000/svg">
<path d="M7.5 3.125L7.5 6.25L4.375 6.25C4.20924 6.25 4.05027 6.31585 3.93306 6.43306C3.81585 6.55027 3.75 6.70924 3.75 6.875L3.75 16.25L3.125 16.25C2.95924 16.25 2.80027 16.3158 2.68306 16.4331C2.56585 16.5503 2.5 16.7092 2.5 16.875C2.5 17.0408 2.56585 17.1997 2.68306 17.3169C2.80027 17.4342 2.95924 17.5 3.125 17.5L16.875 17.5C17.0408 17.5 17.1997 17.4342 17.3169 17.3169C17.4342 17.1997 17.5 17.0408 17.5 16.875C17.5 16.7092 17.4342 16.5503 17.3169 16.4331C17.1997 16.3158 17.0408 16.25 16.875 16.25L16.25 16.25L16.25 9.375C16.25 9.20924 16.1842 9.05027 16.0669 8.93306C15.9497 8.81585 15.7908 8.75 15.625 8.75L12.5 8.75L12.5 3.125C12.5 2.95924 12.4342 2.80027 12.3169 2.68306C12.1997 2.56585 12.0408 2.5 11.875 2.5L8.125 2.5C7.95924 2.5 7.80027 2.56585 7.68306 2.68306C7.56585 2.80027 7.5 2.95924 7.5 3.125ZM5 7.5L7.5 7.5L7.5 16.25L5 16.25L5 7.5ZM15 10L15 16.25L12.5 16.25L12.5 10L15 10Z" fill="#999999"/>
</svg>
