<svg width="16" height="16" viewBox="0 0 16 16" fill="none" xmlns="http://www.w3.org/2000/svg">
<path d="M5.64307 1.125L5.64307 4.25L2.51807 4.25C2.35231 4.25 2.19333 4.31585 2.07612 4.43306C1.95891 4.55027 1.89307 4.70924 1.89307 4.875L1.89307 14.25L1.26807 14.25C1.10231 14.25 0.943335 14.3158 0.826125 14.4331C0.708915 14.5503 0.643066 14.7092 0.643066 14.875C0.643066 15.0408 0.708915 15.1997 0.826125 15.3169C0.943335 15.4342 1.10231 15.5 1.26807 15.5L15.0181 15.5C15.1838 15.5 15.3428 15.4342 15.46 15.3169C15.5772 15.1997 15.6431 15.0408 15.6431 14.875C15.6431 14.7092 15.5772 14.5503 15.46 14.4331C15.3428 14.3158 15.1838 14.25 15.0181 14.25L14.3931 14.25L14.3931 7.375C14.3931 7.20924 14.3272 7.05027 14.21 6.93306C14.0928 6.81585 13.9338 6.75 13.7681 6.75L10.6431 6.75L10.6431 1.125C10.6431 0.959239 10.5772 0.800268 10.46 0.683057C10.3428 0.565847 10.1838 0.499999 10.0181 0.499999L6.26807 0.499999C6.10231 0.499999 5.94333 0.565847 5.82612 0.683058C5.70891 0.800268 5.64307 0.95924 5.64307 1.125ZM3.14307 5.5L5.64307 5.5L5.64307 14.25L3.14307 14.25L3.14307 5.5ZM13.1431 8L13.1431 14.25L10.6431 14.25L10.6431 8L13.1431 8Z" fill="#1C1C1C"/>
</svg>
