<svg width="21" height="20" viewBox="0 0 21 20" fill="none" xmlns="http://www.w3.org/2000/svg">
<g id="FNT" clip-path="url(#clip0_4529_16865)">
<path id="Vector" d="M2.05078 8.29453V5.625C2.05078 5.29348 2.18248 4.97554 2.4169 4.74112C2.65132 4.5067 2.96926 4.375 3.30078 4.375H18.3008C18.6323 4.375 18.9502 4.5067 19.1847 4.74112C19.4191 4.97554 19.5508 5.29348 19.5508 5.625V8.29453C19.7405 8.40407 19.8981 8.56154 20.0078 8.75117C20.1175 8.9408 20.1754 9.15593 20.1758 9.375V13.125C20.1758 13.4565 20.0441 13.7745 19.8097 14.0089C19.5752 14.2433 19.2573 14.375 18.9258 14.375H18.3008V15.625C18.3008 15.7908 18.2349 15.9497 18.1177 16.0669C18.0005 16.1842 17.8415 16.25 17.6758 16.25C17.51 16.25 17.351 16.1842 17.2338 16.0669C17.1166 15.9497 17.0508 15.7908 17.0508 15.625V14.375H4.55078V15.625C4.55078 15.7908 4.48493 15.9497 4.36772 16.0669C4.25051 16.1842 4.09154 16.25 3.92578 16.25C3.76002 16.25 3.60105 16.1842 3.48384 16.0669C3.36663 15.9497 3.30078 15.7908 3.30078 15.625V14.375H2.67578C2.34426 14.375 2.02632 14.2433 1.7919 14.0089C1.55748 13.7745 1.42578 13.4565 1.42578 13.125V9.375C1.42614 9.15593 1.48407 8.9408 1.59377 8.75117C1.70346 8.56154 1.86106 8.40407 2.05078 8.29453ZM3.30078 8.125H3.92578C4.2573 8.125 4.57524 8.2567 4.80966 8.49112C5.04408 8.72554 5.17578 9.04348 5.17578 9.375V10.625H10.1758V5.625H3.30078V8.125ZM11.4258 5.625V10.625H16.4258V9.375C16.4258 9.04348 16.5575 8.72554 16.7919 8.49112C17.0263 8.2567 17.3443 8.125 17.6758 8.125H18.3008V5.625H11.4258ZM2.67578 13.125H18.9258V9.375H17.6758V10.625C17.6758 10.9565 17.5441 11.2745 17.3097 11.5089C17.0752 11.7433 16.7573 11.875 16.4258 11.875H5.17578C4.84426 11.875 4.52632 11.7433 4.2919 11.5089C4.05748 11.2745 3.92578 10.9565 3.92578 10.625V9.375H2.67578V13.125Z" fill="#999999"/>
</g>
<defs>
<clipPath id="clip0_4529_16865">
<rect width="20" height="20" fill="white" transform="matrix(-1 0 0 1 20.8008 0)"/>
</clipPath>
</defs>
</svg>
