<svg width="154" height="92" viewBox="0 0 154 92" fill="none" xmlns="http://www.w3.org/2000/svg">
<path d="M40.3291 23.2922V36.6723L34.4656 42.5359V17.9414L40.3291 23.2922Z" fill="#D9D9D6"/>
<path d="M59.0596 17.9414L53.7099 23.2922H40.3291L34.4656 17.9414H59.0596Z" fill="#6D6E70"/>
<path d="M17.7393 73.1881C17.2106 70.7201 15.6611 69.485 13.0919 69.485H8.33138V76.8149H12.4878C14.2505 76.8149 15.2455 76.1483 15.4726 74.813V82.256C15.1959 80.9208 14.2128 80.2531 12.5255 80.2531H8.33138V87.1297C8.33138 88.7922 8.64584 89.9767 9.27574 90.681C9.62789 91.0589 9.98104 91.2474 10.3342 91.2474H0.812205C2.2228 90.9974 2.92908 89.5739 2.92908 86.9789V70.2409C2.92908 67.7729 2.1355 66.387 0.54834 66.0845H17.7393V73.1881Z" fill="#6D6E70"/>
<path d="M43.5822 73.7558C43.5822 76.1237 42.7757 78.063 41.1638 79.5748C39.4764 81.1868 37.2087 81.9933 34.3628 81.9933C33.103 81.9933 31.982 81.8425 31 81.54V87.0565C31 89.6257 31.7678 91.0235 33.3043 91.2506H23.8964C25.2306 91.0235 25.8992 89.6257 25.8992 87.0565V70.4306C25.8992 67.8614 25.1433 66.4131 23.6326 66.0857H35.2694C37.8129 66.0857 39.8662 66.8545 41.4276 68.3901C42.864 69.8513 43.5822 71.6399 43.5822 73.7558ZM38.0281 73.9066C38.0281 72.5972 37.6313 71.5397 36.8377 70.7332C36.0442 69.9277 34.9421 69.5239 33.5325 69.5239H31.001V78.063C31.8828 78.3398 32.8143 78.4787 33.7964 78.4787C35.1315 78.4787 36.1701 78.063 36.9131 77.2317C37.6561 76.4005 38.0281 75.2924 38.0281 73.9066Z" fill="#6D6E70"/>
<path d="M66.6662 82.9365L65.3816 91.2484H48.0775C49.3116 90.9716 49.9286 89.3973 49.9286 86.5255V70.3163C49.9286 67.7729 49.261 66.3622 47.9268 66.0845H57.1829C55.8229 66.3364 55.1424 67.7471 55.1424 70.3163V87.7715H60.3939C61.9553 87.7715 63.2399 87.3558 64.2477 86.5245C65.1554 85.7954 65.9609 84.5991 66.6662 82.9365Z" fill="#6D6E70"/>
<path d="M97.1185 91.2486H86.7285C87.8108 91.0979 88.3534 90.5185 88.3534 89.5107C88.3534 89.3093 88.1391 88.6169 87.7106 87.4324L87.0678 85.6568H77.1331L76.4903 87.3957C76.1362 88.353 75.9596 89.0206 75.9596 89.3976C75.9596 90.5066 76.5389 91.1236 77.6976 91.2486H69.0833C69.4354 91.1732 69.8014 90.9719 70.1784 90.6445C71.0851 89.8132 71.9292 88.3907 72.7099 86.375L80.6824 66.0857H85.1404L93.4144 86.5257C94.5741 89.3976 95.8081 90.9719 97.1185 91.2486ZM85.7822 82.3703L82.0057 72.6378L78.385 82.3703H85.7822Z" fill="#6D6E70"/>
<path d="M124.926 66.0855C123.566 66.3622 122.886 67.7481 122.886 70.2419V91.2494H118.95C118.723 90.6463 118.434 90.0044 118.08 89.3249C117.248 87.7407 116.189 86.1555 114.902 84.5703L106.488 74.3141V87.1376C106.488 89.6017 107.269 90.9726 108.83 91.2484H100.329C101.638 90.9716 102.294 89.5858 102.294 87.092V70.5058C102.294 69.2966 101.752 68.2143 100.669 67.256C100.09 66.7273 99.4849 66.3374 98.856 66.0845H106.866L118.768 80.9317V70.2409C118.768 67.7481 118.05 66.3632 116.614 66.0855H124.926Z" fill="#6D6E70"/>
<path d="M153.452 78.4023C153.452 82.029 152.393 85.002 150.279 87.3193C147.911 89.9392 144.51 91.2486 140.077 91.2486H129.007C130.417 90.9719 131.123 89.4105 131.123 86.5634V70.3175C131.123 67.7741 130.316 66.3635 128.704 66.0857H140.454C144.383 66.0857 147.532 67.2185 149.9 69.4862C152.267 71.753 153.452 74.725 153.452 78.4023ZM147.747 78.7049C147.747 75.8846 147.044 73.6675 145.638 72.0555C144.157 70.3433 142.01 69.4862 139.199 69.4862H136.601V87.7727H140.291C142.701 87.7727 144.584 86.8412 145.94 84.9772C147.144 83.3147 147.747 81.2235 147.747 78.7049Z" fill="#6D6E70"/>
<path d="M112.029 23.2922V34.9779L117.892 40.8555V17.9414L112.029 23.2922Z" fill="#D9D9D6"/>
<path d="M43.3156 33.6855L20.3464 56.6552H27.9132L47.099 37.469L43.3156 33.6855Z" fill="#6D6E70"/>
<path d="M43.3152 33.6852H50.883L76.9997 7.56694V0L43.3152 33.6852Z" fill="#939598"/>
<path d="M94.9387 17.9414L100.291 23.2922H112.028L117.892 17.9414H94.9387Z" fill="#6D6E70"/>
<path d="M50.883 33.6855H43.3152L53.6952 44.0658H61.263L50.883 33.6855Z" fill="#D9D9D6"/>
<path d="M87.3722 17.9392H94.9389L84.5004 28.378H76.9336L87.3722 17.9392Z" fill="#D9D9D6"/>
<path d="M81.7222 53.5083H72.2795V56.6559H81.7222V53.5083Z" fill="#D9D9D6"/>
<path d="M133.654 56.6546H121.064L122.482 56.2975C123.625 56.0098 124.76 55.3273 122.384 52.9505L119.304 49.8713L133.654 56.6546Z" fill="#939598"/>
<path d="M20.3464 56.6546H32.9366L31.5191 56.2975C30.3753 56.0098 29.2405 55.3273 31.6173 52.9505L34.6964 49.8713L20.3464 56.6546Z" fill="#6D6E70"/>
<path d="M81.7222 44.0654H72.2795V53.5082H81.7222V44.0654Z" fill="#6D6E70"/>
<path d="M94.9384 17.9392L133.654 56.6558L126.086 56.6548L91.155 21.7227L94.9384 17.9392Z" fill="#939598"/>
<path d="M76.9998 0L89.5899 12.5904H82.0221L76.9998 7.56694V0Z" fill="#6D6E70"/>
</svg>
