<svg width="40" height="40" viewBox="0 0 40 40" fill="none" xmlns="http://www.w3.org/2000/svg">
<rect width="40" height="40" rx="8" fill="#F2F2F2"/>
<path d="M28.7519 10.375H11.2519C10.7878 10.375 10.3427 10.5594 10.0145 10.8876C9.68633 11.2157 9.50195 11.6609 9.50195 12.125V18.5453C9.50195 28.3234 17.7926 31.5718 19.455 32.1187C19.8103 32.2355 20.1936 32.2355 20.5488 32.1187C22.2113 31.5718 30.5019 28.3234 30.5019 18.5453V12.125C30.5019 11.6609 30.3175 11.2157 29.9893 10.8876C29.6611 10.5594 29.216 10.375 28.7519 10.375ZM25.416 18.0094L19.0066 24.1343C18.8409 24.2902 18.6216 24.3764 18.3941 24.375C18.17 24.3758 17.9543 24.2895 17.7926 24.1343L14.5879 21.0718C14.499 20.9943 14.4267 20.8996 14.3754 20.7934C14.324 20.6872 14.2947 20.5717 14.2891 20.4539C14.2835 20.336 14.3018 20.2183 14.3429 20.1077C14.384 19.9971 14.447 19.896 14.5282 19.8104C14.6094 19.7248 14.707 19.6565 14.8152 19.6096C14.9235 19.5627 15.0401 19.5382 15.158 19.5375C15.276 19.5368 15.3929 19.56 15.5016 19.6057C15.6104 19.6513 15.7088 19.7185 15.791 19.8031L18.3941 22.2859L24.2128 16.7406C24.383 16.5922 24.6039 16.5152 24.8294 16.5259C25.055 16.5366 25.2676 16.634 25.423 16.7979C25.5784 16.9617 25.6644 17.1792 25.6631 17.405C25.6618 17.6308 25.5732 17.8473 25.416 18.0094Z" fill="#999999"/>
<g clip-path="url(#clip0_4310_17088)">
<path d="M28.7499 10.3748H11.25C10.7859 10.3748 10.3407 10.5592 10.0126 10.8874C9.68437 11.2156 9.5 11.6607 9.5 12.1248V18.5451C9.5 28.3232 17.7906 31.5716 19.4531 32.1185C19.8083 32.2354 20.1916 32.2354 20.5468 32.1185C22.2093 31.5716 30.4999 28.3232 30.4999 18.5451V12.1248C30.4999 11.6607 30.3156 11.2156 29.9874 10.8874C29.6592 10.5592 29.2141 10.3748 28.7499 10.3748ZM25.414 18.0092L19.0047 24.1342C18.839 24.29 18.6196 24.3762 18.3922 24.3748C18.168 24.3756 17.9523 24.2893 17.7906 24.1342L14.5859 21.0717C14.497 20.9941 14.4247 20.8994 14.3734 20.7932C14.3221 20.687 14.2927 20.5715 14.2871 20.4537C14.2816 20.3358 14.2999 20.2181 14.341 20.1075C14.3821 19.997 14.4451 19.8958 14.5262 19.8102C14.6074 19.7247 14.705 19.6564 14.8133 19.6095C14.9215 19.5626 15.0381 19.538 15.1561 19.5373C15.274 19.5367 15.3909 19.5598 15.4997 19.6055C15.6085 19.6511 15.7069 19.7183 15.789 19.8029L18.3922 22.2857L24.2109 16.7404C24.381 16.592 24.602 16.5151 24.8275 16.5257C25.053 16.5364 25.2657 16.6338 25.421 16.7977C25.5764 16.9615 25.6624 17.1791 25.6611 17.4048C25.6598 17.6306 25.5713 17.8472 25.414 18.0092Z" fill="#BBBBBB"/>
</g>
<defs>
<clipPath id="clip0_4310_17088">
<rect width="14" height="26.2499" fill="white" transform="translate(20 7.75006)"/>
</clipPath>
</defs>
</svg>
