<svg width="37" height="37" viewBox="0 0 37 37" fill="none" xmlns="http://www.w3.org/2000/svg">
<rect x="0.294922" y="0.295898" width="36.4773" height="36.4773" rx="7.29545" fill="#F2F2F2"/>
<path d="M27.6543 8.50293H9.41566C8.93194 8.50293 8.46803 8.69509 8.12599 9.03713C7.78395 9.37917 7.5918 9.84307 7.5918 10.3268V17.0181C7.5918 27.2089 16.2324 30.5945 17.965 31.1644C18.3352 31.2862 18.7347 31.2862 19.1049 31.1644C20.8376 30.5945 29.4782 27.2089 29.4782 17.0181V10.3268C29.4782 9.84307 29.286 9.37917 28.944 9.03713C28.6019 8.69509 28.138 8.50293 27.6543 8.50293Z" fill="#14AE5C"/>
<g clip-path="url(#clip0_5417_16664)">
<path d="M27.6543 8.50391H9.41566C8.93194 8.50391 8.46803 8.69606 8.12599 9.0381C7.78395 9.38014 7.5918 9.84405 7.5918 10.3278V17.0191C7.5918 27.2099 16.2324 30.5955 17.965 31.1654C18.3352 31.2872 18.7347 31.2872 19.1049 31.1654C20.8376 30.5955 29.4782 27.2099 29.4782 17.0191V10.3278C29.4782 9.84405 29.286 9.38014 28.944 9.0381C28.6019 8.69606 28.138 8.50391 27.6543 8.50391Z" fill="#5ED07F"/>
</g>
<defs>
<clipPath id="clip0_5417_16664">
<rect width="14.5909" height="27.358" fill="white" transform="translate(18.5332 5.76758)"/>
</clipPath>
</defs>
</svg>
