<svg width="20" height="20" viewBox="0 0 20 20" fill="none" xmlns="http://www.w3.org/2000/svg">
<path d="M16.2995 2H8.46148C8.16964 2 7.96118 2.20833 7.96118 2.5V7.20831H10.1291C10.8796 7.20831 11.5884 7.45831 12.172 7.87497C12.2971 7.95831 12.4222 8.04164 12.5473 8.16664C13.256 8.8333 13.7146 9.79163 13.7146 10.8333V11.5416C14.5068 11.75 15.1321 12.4583 15.1321 13.3333V16.7916H16.2995C16.5914 16.7916 16.7998 16.5833 16.7998 16.2916V2.5C16.7998 2.20833 16.5914 2 16.2995 2ZM15.5074 9.74997C15.2155 9.74997 14.9654 9.49997 14.9654 9.2083C14.9654 8.91664 15.2155 8.66664 15.5074 8.66664C15.7992 8.66664 16.0494 8.91664 16.0494 9.2083C16.0494 9.49997 15.7992 9.74997 15.5074 9.74997Z" fill="#999999"/>
<path d="M14.4235 13.3333V17.625C14.4235 17.8333 14.2568 18 14.0483 18H12.6308C12.4223 18 12.2556 17.8333 12.2556 17.625V17.25H5.12628V17.625C5.12628 17.8333 4.95951 18 4.75105 18H3.37523C3.16677 18 3 17.8333 3 17.625V13.3333C3 12.75 3.45861 12.25 4.08398 12.25C4.70936 12.25 5.16797 12.7083 5.16797 13.3333V15.125H12.2972V13.3333C12.2972 12.75 12.7559 12.25 13.3812 12.25C14.0066 12.25 14.4235 12.75 14.4235 13.3333ZM4.41752 11.5833V10.8333C4.41752 9.24999 5.70996 8 7.25255 8H10.0876C11.6719 8 12.9226 9.29166 12.9226 10.8333V11.5833C12.1305 11.75 11.5051 12.4583 11.5051 13.3333V14.4166H5.87673V13.3333C5.87673 12.4583 5.25135 11.75 4.41752 11.5833Z" fill="#999999"/>
</svg>
