<svg width="17" height="16" viewBox="0 0 17 16" fill="none" xmlns="http://www.w3.org/2000/svg">
<path d="M13.7272 0.929688H6.8042C6.54643 0.929688 6.3623 1.11381 6.3623 1.37158V5.53273H8.27717C8.94001 5.53273 9.56602 5.75367 10.0816 6.12192C10.192 6.19556 10.3025 6.26921 10.413 6.37969C11.039 6.96888 11.4441 7.81583 11.4441 8.73644V9.36246C12.1437 9.54658 12.6961 10.1726 12.6961 10.9459V14.0023H13.7272C13.9849 14.0023 14.1691 13.8182 14.1691 13.5604V1.37158C14.1691 1.11381 13.9849 0.929688 13.7272 0.929688ZM13.0275 7.77901C12.7697 7.77901 12.5488 7.55806 12.5488 7.30029C12.5488 7.04252 12.7697 6.82158 13.0275 6.82158C13.2853 6.82158 13.5062 7.04252 13.5062 7.30029C13.5062 7.55806 13.2853 7.77901 13.0275 7.77901Z" fill="#1C1C1C"/>
<path d="M12.0701 10.9459V14.7388C12.0701 14.923 11.9228 15.0703 11.7387 15.0703H10.4866C10.3025 15.0703 10.1552 14.923 10.1552 14.7388V14.4074H3.85826V14.7388C3.85826 14.923 3.71097 15.0703 3.52685 15.0703H2.31164C2.12752 15.0703 1.98022 14.923 1.98022 14.7388V10.9459C1.98022 10.4304 2.38529 9.9885 2.93766 9.9885C3.49002 9.9885 3.89509 10.3936 3.89509 10.9459V12.5294H10.192V10.9459C10.192 10.4304 10.5971 9.9885 11.1495 9.9885C11.7018 9.9885 12.0701 10.4304 12.0701 10.9459ZM3.23225 9.39931V8.73647C3.23225 7.33715 4.3738 6.23242 5.7363 6.23242H8.24036C9.63968 6.23242 10.7444 7.37398 10.7444 8.73647V9.39931C10.0447 9.54661 9.49238 10.1726 9.49238 10.9459V11.9034H4.5211V10.9459C4.5211 10.1726 3.96874 9.54661 3.23225 9.39931Z" fill="#1C1C1C"/>
</svg>
