<?xml version="1.0" encoding="utf-8"?>
<!-- Generator: Adobe Illustrator 24.3.0, SVG Export Plug-In . SVG Version: 6.00 Build 0)  -->
<svg version="1.1" id="Layer_1" xmlns="http://www.w3.org/2000/svg" xmlns:xlink="http://www.w3.org/1999/xlink" x="0px" y="0px"
	 viewBox="0 0 48 48" style="enable-background:new 0 0 48 48;" xml:space="preserve">
<path d="M39,5.7H20.2c-0.7,0-1.2,0.5-1.2,1.2v11.3h5.2c1.8,0,3.5,0.6,4.9,1.6c0.3,0.2,0.6,0.4,0.9,0.7c1.7,1.6,2.8,3.9,2.8,6.4v1.7
	c1.9,0.5,3.4,2.2,3.4,4.3v8.3H39c0.7,0,1.2-0.5,1.2-1.2V6.9C40.2,6.2,39.7,5.7,39,5.7z M37.1,24.3c-0.7,0-1.3-0.6-1.3-1.3
	c0-0.7,0.6-1.3,1.3-1.3c0.7,0,1.3,0.6,1.3,1.3C38.4,23.7,37.8,24.3,37.1,24.3z"/>
<g>
	<path d="M34.5,32.9v10.3c0,0.5-0.4,0.9-0.9,0.9h-3.4c-0.5,0-0.9-0.4-0.9-0.9v-0.9H12.2v0.9c0,0.5-0.4,0.9-0.9,0.9H8
		c-0.5,0-0.9-0.4-0.9-0.9V32.9c0-1.4,1.1-2.6,2.6-2.6s2.6,1.1,2.6,2.6v4.3h17.1v-4.3c0-1.4,1.1-2.6,2.6-2.6S34.5,31.5,34.5,32.9z
		 M10.5,28.7v-1.8c0-3.8,3.1-6.8,6.8-6.8h6.8c3.8,0,6.8,3.1,6.8,6.8v1.8c-1.9,0.4-3.4,2.1-3.4,4.2v2.6H14v-2.6
		C14,30.8,12.5,29.1,10.5,28.7z"/>
</g>
</svg>
