<svg width="21" height="20" viewBox="0 0 21 20" fill="none" xmlns="http://www.w3.org/2000/svg">
<g id="Globe">
<g id="Vector">
<path fill-rule="evenodd" clip-rule="evenodd" d="M10.5996 1.875C10.5996 1.875 12.2522 1.875 13.7624 2.51376C13.7624 2.51376 15.2206 3.13053 16.3449 4.25476C16.3449 4.25476 17.4691 5.37899 18.0858 6.83719C18.0858 6.83719 18.7246 8.34739 18.7246 10C18.7246 10 18.7246 11.6526 18.0858 13.1628C18.0858 13.1628 17.4691 14.621 16.3449 15.7452C16.3449 15.7452 15.2206 16.8695 13.7624 17.4862C13.7624 17.4862 12.2522 18.125 10.5996 18.125C10.5996 18.125 8.947 18.125 7.4368 17.4862C7.4368 17.4862 5.9786 16.8695 4.85437 15.7452C4.85437 15.7452 3.73014 14.621 3.11337 13.1628C3.11337 13.1628 2.47461 11.6526 2.47461 10C2.47461 10 2.47461 8.34739 3.11337 6.83719C3.11337 6.83719 3.73014 5.37899 4.85437 4.25476C4.85437 4.25476 5.9786 3.13053 7.4368 2.51376C7.4368 2.51376 8.947 1.875 10.5996 1.875ZM10.5996 3.125C10.5996 3.125 9.20048 3.125 7.92374 3.66501C7.92374 3.66501 6.69008 4.18681 5.73825 5.13864C5.73825 5.13864 4.78642 6.09047 4.26462 7.32413C4.26462 7.32413 3.72461 8.60087 3.72461 10C3.72461 10 3.72461 11.3991 4.26462 12.6759C4.26462 12.6759 4.78642 13.9095 5.73825 14.8614C5.73825 14.8614 6.69008 15.8132 7.92374 16.335C7.92374 16.335 9.20048 16.875 10.5996 16.875C10.5996 16.875 11.9987 16.875 13.2755 16.335C13.2755 16.335 14.5091 15.8132 15.461 14.8614C15.461 14.8614 16.4128 13.9095 16.9346 12.6759C16.9346 12.6759 17.4746 11.3991 17.4746 10C17.4746 10 17.4746 8.60087 16.9346 7.32413C16.9346 7.32413 16.4128 6.09047 15.461 5.13864C15.461 5.13864 14.5091 4.18681 13.2755 3.66501C13.2755 3.66501 11.9987 3.125 10.5996 3.125Z" fill="#1C1C1C"/>
<path d="M3.5293 8.125H17.6699C18.0151 8.125 18.2949 7.84518 18.2949 7.5C18.2949 7.15482 18.0151 6.875 17.6699 6.875H3.5293C3.18412 6.875 2.9043 7.15482 2.9043 7.5C2.9043 7.84518 3.18412 8.125 3.5293 8.125Z" fill="#1C1C1C"/>
<path d="M3.5293 13.125H17.6699C18.0151 13.125 18.2949 12.8452 18.2949 12.5C18.2949 12.1548 18.0151 11.875 17.6699 11.875H3.5293C3.18412 11.875 2.9043 12.1548 2.9043 12.5C2.9043 12.8452 3.18412 13.125 3.5293 13.125Z" fill="#1C1C1C"/>
<path fill-rule="evenodd" clip-rule="evenodd" d="M10.5996 2.07809C10.5996 2.07809 11.492 2.07809 12.2552 2.83183C12.2552 2.83183 12.9031 3.47175 13.3838 4.59425C13.3838 4.59425 14.3496 6.8493 14.3496 9.99997C14.3496 9.99997 14.3496 13.1506 13.3838 15.4057C13.3838 15.4057 12.9031 16.5282 12.2552 17.1681C12.2552 17.1681 11.492 17.9218 10.5996 17.9218C10.5996 17.9218 9.70722 17.9218 8.94404 17.1681C8.94404 17.1681 8.2961 16.5282 7.81537 15.4057C7.81537 15.4057 6.84961 13.1506 6.84961 9.99997C6.84961 9.99997 6.84961 6.8493 7.81537 4.59425C7.81537 4.59425 8.2961 3.47175 8.94404 2.83183C8.94404 2.83183 9.70722 2.07809 10.5996 2.07809ZM10.5996 3.3281C10.5996 3.3281 10.2204 3.3281 9.8224 3.72121C9.8224 3.72121 9.34873 4.18901 8.96443 5.08635C8.96443 5.08635 8.09961 7.10571 8.09961 9.99997C8.09961 9.99997 8.09961 12.8942 8.96443 14.9136C8.96443 14.9136 9.34873 15.8109 9.8224 16.2787C9.8224 16.2787 10.2204 16.6718 10.5996 16.6718C10.5996 16.6718 10.9788 16.6718 11.3768 16.2787C11.3768 16.2787 11.8505 15.8109 12.2348 14.9136C12.2348 14.9136 13.0996 12.8942 13.0996 9.99997C13.0996 9.99997 13.0996 7.10571 12.2348 5.08635C12.2348 5.08635 11.8505 4.18901 11.3768 3.7212C11.3768 3.7212 10.9788 3.32809 10.5996 3.3281Z" fill="#1C1C1C"/>
</g>
</g>
</svg>
