<svg width="26" height="26" viewBox="0 0 26 26" fill="none" xmlns="http://www.w3.org/2000/svg">
<path fill-rule="evenodd" clip-rule="evenodd" d="M4.1543 5.69081C4.1543 5.69081 4.1543 5.05355 4.6049 4.60295C4.6049 4.60295 5.05551 4.15234 5.69276 4.15234H20.3081C20.3081 4.15234 20.9454 4.15234 21.396 4.60295C21.396 4.60295 21.8466 5.05355 21.8466 5.69081V20.3062C21.8466 20.3062 21.8466 20.9434 21.396 21.394C21.396 21.394 20.9454 21.8447 20.3081 21.8447H5.69276C5.69276 21.8447 5.05551 21.8447 4.6049 21.394C4.6049 21.394 4.1543 20.9434 4.1543 20.3062V5.69081ZM5.69276 5.69081V20.3062H20.3081V5.69081H5.69276Z" fill="#1C1C1C"/>
<path d="M12.2312 4.92157V21.0754C12.2312 21.5003 12.5756 21.8447 13.0005 21.8447C13.4253 21.8447 13.7697 21.5003 13.7697 21.0754V4.92157C13.7697 4.49674 13.4253 4.15234 13.0005 4.15234C12.5756 4.15234 12.2312 4.49674 12.2312 4.92157Z" fill="#1C1C1C"/>
</svg>
