<svg width="20" height="20" viewBox="0 0 20 20" fill="none" xmlns="http://www.w3.org/2000/svg">
<path d="M18.8047 9.51556L16.875 10.4765L14.375 5.69525L16.3281 4.71868C16.4733 4.6447 16.6418 4.6311 16.7969 4.68086C16.9521 4.73062 17.0812 4.8397 17.1563 4.98431L19.0781 8.664C19.1171 8.73766 19.1409 8.81836 19.1483 8.90138C19.1556 8.98439 19.1462 9.06802 19.1208 9.14737C19.0953 9.22671 19.0542 9.30016 18.9999 9.36339C18.9456 9.42662 18.8793 9.47836 18.8047 9.51556Z" stroke="black" stroke-width="1.3" stroke-linecap="round" stroke-linejoin="round"/>
<path d="M3.12511 10.3983L1.19542 9.42956C1.12112 9.39314 1.0549 9.34216 1.0007 9.27964C0.946501 9.21712 0.905424 9.14434 0.879915 9.06563C0.854406 8.98691 0.844985 8.90387 0.852212 8.82144C0.85944 8.73902 0.883168 8.65888 0.921986 8.58581L2.84386 4.90612C2.91904 4.76161 3.04767 4.65217 3.20235 4.6011C3.35703 4.55002 3.52554 4.56136 3.67199 4.63268L5.62511 5.60925L3.12511 10.3983Z" stroke="black" stroke-width="1.3" stroke-linecap="round" stroke-linejoin="round"/>
<path d="M16.875 10.4766L15.625 11.9453L12.75 14.8203C12.6716 14.8936 12.5767 14.9468 12.4733 14.9754C12.3699 15.0039 12.2611 15.007 12.1563 14.9844L7.625 13.8516C7.54223 13.8285 7.4651 13.7886 7.39844 13.7344L3.125 10.3984" stroke="black" stroke-width="1.3" stroke-linecap="round" stroke-linejoin="round"/>
<path d="M15.6249 11.9453L12.1874 9.44532L11.1874 10.1953C10.7542 10.5187 10.2281 10.6934 9.68745 10.6934C9.14683 10.6934 8.62069 10.5187 8.18745 10.1953L7.76557 9.875C7.69423 9.82077 7.63523 9.752 7.59246 9.67324C7.54969 9.59449 7.52414 9.50755 7.51749 9.41818C7.51084 9.32882 7.52325 9.23905 7.5539 9.15484C7.58455 9.07063 7.63273 8.99389 7.69526 8.92969L10.7578 5.875C10.8153 5.81776 10.8835 5.77242 10.9586 5.74159C11.0337 5.71076 11.1141 5.69503 11.1953 5.69532H14.3749" stroke="black" stroke-width="1.3" stroke-linecap="round" stroke-linejoin="round"/>
<path d="M5.67188 5.60942L9.67969 4.43755C9.82209 4.39671 9.97438 4.40778 10.1094 4.4688L12.8125 5.69536" stroke="black" stroke-width="1.3" stroke-linecap="round" stroke-linejoin="round"/>
</svg>
