<svg width="40" height="40" viewBox="0 0 40 40" fill="none" xmlns="http://www.w3.org/2000/svg">
<path fill-rule="evenodd" clip-rule="evenodd" d="M10.0254 18V17C10.0254 17 10.0226 15.0057 10.7869 13.1622C10.7869 13.1622 11.5512 11.3187 12.9653 9.91045C12.9653 9.91045 14.3794 8.50222 16.2261 7.74556C16.2261 7.74556 18.0728 6.98889 20.0684 7C20.0684 7 22.0977 7.01537 23.9455 7.82603C23.9455 7.82603 25.7233 8.60597 27.0919 10.0118C27.0919 10.0118 28.4552 11.4121 29.2028 13.2178C29.2028 13.2178 29.9754 15.0836 29.9754 17.1125V18C29.9754 18 29.9754 23.1871 31.6033 25.9989C31.6033 25.9989 31.8714 26.4633 31.8719 26.9982C31.8719 26.9982 31.8723 27.5332 31.6057 27.9969C31.6057 27.9969 31.339 28.4607 30.8764 28.7294C30.8764 28.7294 30.4139 28.9981 29.8789 29L10.1254 29C10.1254 29 9.58691 28.9981 9.12433 28.7294C9.12433 28.7294 8.66176 28.4607 8.3951 27.9969C8.3951 27.9969 8.12843 27.5332 8.12891 26.9982C8.12891 26.9982 8.12938 26.4633 8.39686 26C8.39686 26 10.0254 23.1871 10.0254 18ZM12.0254 18C12.0254 18 12.0254 23.7243 10.1289 27L29.8719 27C29.8719 27 27.9754 23.7234 27.9754 18V17.1125C27.9754 17.1125 27.9754 13.7864 25.6589 11.4069C25.6589 11.4069 23.3398 9.02484 20.0573 8.99997C20.0573 8.99997 18.4613 8.99109 16.9844 9.59623C16.9844 9.59623 15.5075 10.2014 14.3766 11.3276C14.3766 11.3276 13.2457 12.4538 12.6344 13.9282C12.6344 13.9282 12.0231 15.4025 12.0254 17V18Z" fill="#1C1C1C"/>
<path d="M25 29V28C25 27.4477 24.5523 27 24 27C23.4477 27 23 27.4477 23 28V29C23 30.2426 22.1213 31.1213 22.1213 31.1213C21.2426 32 20 32 20 32C18.7574 32 17.8787 31.1213 17.8787 31.1213C17 30.2426 17 29 17 29V28C17 27.4477 16.5523 27 16 27C15.4477 27 15 27.4477 15 28L15 29C15 31.0711 16.4645 32.5355 16.4645 32.5355C17.9289 34 20 34 20 34C22.0711 34 23.5355 32.5355 23.5355 32.5355C25 31.0711 25 29 25 29Z" fill="#1C1C1C"/>
<circle cx="27" cy="11" r="5" fill="#FF4747"/>
</svg>
