<svg width="20" height="20" viewBox="0 0 20 20" fill="none" xmlns="http://www.w3.org/2000/svg">
<g id="HeadsetWavy">
<g id="Vector">
<path d="M18.75 10C18.75 10.8125 18.1641 11.4297 17.6484 11.9688C17.3516 12.2734 17.0469 12.5938 16.9297 12.8672C16.8125 13.1406 16.8203 13.5469 16.8125 13.9609C16.8047 14.7188 16.7891 15.5859 16.1875 16.1875C15.5859 16.7891 14.7188 16.8047 13.9609 16.8125C13.5469 16.8203 13.125 16.8281 12.8672 16.9297C12.6094 17.0312 12.2734 17.3516 11.9688 17.6484C11.4297 18.1641 10.8125 18.75 10 18.75C9.1875 18.75 8.57031 18.1641 8.03125 17.6484C7.72656 17.3516 7.40625 17.0469 7.13281 16.9297C6.85938 16.8125 6.45313 16.8203 6.03906 16.8125C5.28125 16.8047 4.41406 16.7891 3.8125 16.1875C3.21094 15.5859 3.19531 14.7188 3.1875 13.9609C3.17969 13.5469 3.17187 13.125 3.07031 12.8672C2.96875 12.6094 2.64844 12.2734 2.35156 11.9688C1.83594 11.4297 1.25 10.8125 1.25 10C1.25 9.1875 1.83594 8.57031 2.35156 8.03125C2.64844 7.72656 2.95312 7.40625 3.07031 7.13281C3.1875 6.85938 3.17969 6.45313 3.1875 6.03906C3.19531 5.28125 3.21094 4.41406 3.8125 3.8125C4.41406 3.21094 5.28125 3.19531 6.03906 3.1875C6.45313 3.17969 6.875 3.17187 7.13281 3.07031C7.39063 2.96875 7.72656 2.64844 8.03125 2.35156C8.57031 1.83594 9.1875 1.25 10 1.25C10.8125 1.25 11.4297 1.83594 11.9688 2.35156C12.2734 2.64844 12.5938 2.95312 12.8672 3.07031C13.1406 3.1875 13.5469 3.17969 13.9609 3.1875C14.7188 3.19531 15.5859 3.21094 16.1875 3.8125C16.7891 4.41406 16.8047 5.28125 16.8125 6.03906C16.8203 6.45313 16.8281 6.875 16.9297 7.13281C17.0312 7.39063 17.3516 7.72656 17.6484 8.03125C18.1641 8.57031 18.75 9.1875 18.75 10Z" fill="#5E52FF"/>
<path fill-rule="evenodd" clip-rule="evenodd" d="M9.85294 5.29412C9.25427 5.29412 8.66146 5.41204 8.10836 5.64114C7.55525 5.87024 7.05269 6.20604 6.62937 6.62937C6.20604 7.05269 5.87024 7.55525 5.64114 8.10836C5.41203 8.66146 5.29412 9.25427 5.29412 9.85294V12.1691C5.29412 12.5006 5.42581 12.8186 5.66023 13.053C5.89465 13.2874 6.2126 13.4191 6.54412 13.4191H7.20588C7.5374 13.4191 7.85535 13.2874 8.08977 13.053C8.32419 12.8186 8.45588 12.5006 8.45588 12.1691V10.5147C8.45588 10.1832 8.32419 9.86524 8.08977 9.63082C7.85535 9.3964 7.5374 9.26471 7.20588 9.26471H6.52213C6.5648 9.02312 6.63372 8.78631 6.72805 8.55857C6.89803 8.14821 7.14718 7.77534 7.46126 7.46126C7.77534 7.14718 8.1482 6.89803 8.55857 6.72805C8.96894 6.55808 9.40876 6.47059 9.85294 6.47059C10.2971 6.47059 10.7369 6.55808 11.1473 6.72805C11.5577 6.89803 11.9305 7.14718 12.2446 7.46126C12.5587 7.77534 12.8078 8.1482 12.9778 8.55857C13.0722 8.78631 13.1411 9.02312 13.1838 9.26471H12.5C12.1685 9.26471 11.8505 9.3964 11.6161 9.63082C11.3817 9.86524 11.25 10.1832 11.25 10.5147V12.1691C11.25 12.5006 11.3817 12.8186 11.6161 13.053C11.8505 13.2874 12.1685 13.4191 12.5 13.4191H13.1888C13.1523 13.5168 13.0951 13.6065 13.0199 13.6817C12.882 13.8196 12.695 13.8971 12.5 13.8971H10.1838C9.85895 13.8971 9.59559 14.1604 9.59559 14.4853C9.59559 14.8102 9.85895 15.0735 10.1838 15.0735H12.5C13.007 15.0735 13.4933 14.8721 13.8518 14.5136C14.2103 14.1551 14.4118 13.6688 14.4118 13.1618V9.85294C14.4118 9.25427 14.2938 8.66146 14.0647 8.10836C13.8356 7.55525 13.4998 7.05269 13.0765 6.62937C12.6532 6.20604 12.1506 5.87024 11.5975 5.64114C11.0444 5.41204 10.4516 5.29412 9.85294 5.29412ZM6.47059 12.1691V10.4412H7.20588C7.22538 10.4412 7.24409 10.4489 7.25788 10.4627C7.27167 10.4765 7.27941 10.4952 7.27941 10.5147V12.1691C7.27941 12.1886 7.27167 12.2073 7.25788 12.2211C7.24409 12.2349 7.22538 12.2426 7.20588 12.2426H6.54412C6.52462 12.2426 6.50591 12.2349 6.49212 12.2211C6.47834 12.2073 6.47059 12.1886 6.47059 12.1691ZM12.5 10.4412H13.2353V12.2426H12.5C12.4805 12.2426 12.4618 12.2349 12.448 12.2211C12.4342 12.2073 12.4265 12.1886 12.4265 12.1691V10.5147C12.4265 10.4952 12.4342 10.4765 12.448 10.4627C12.4618 10.4489 12.4805 10.4412 12.5 10.4412Z" fill="white"/>
</g>
</g>
</svg>
