<svg width="29" height="28" viewBox="0 0 29 28" fill="none" xmlns="http://www.w3.org/2000/svg">
<path fill-rule="evenodd" clip-rule="evenodd" d="M16.898 4.27002C16.898 4.27002 15.5777 4.97304 14.7324 6.1081C14.7324 6.1081 13.8871 4.97304 12.5669 4.27002C12.5669 4.27002 10.496 3.1673 8.19541 3.62742C8.19541 3.62742 5.89481 4.08754 4.40736 5.90193C4.40736 5.90193 2.91992 7.71631 2.91992 10.0625C2.91992 10.0625 2.91992 15.1006 8.67833 20.2832C8.67833 20.2832 10.433 21.8624 12.5347 23.2775C12.5347 23.2775 13.5899 23.988 14.3049 24.3884C14.5705 24.5372 14.8943 24.5372 15.1601 24.3883C15.1601 24.3883 15.8779 23.9862 16.9337 23.2751C16.9337 23.2751 19.0355 21.8596 20.7897 20.2803C20.7897 20.2803 26.5449 15.0991 26.5449 10.0625C26.5449 10.0625 26.5449 7.71631 25.0575 5.90193C25.0575 5.90193 23.57 4.08754 21.2694 3.62742C21.2694 3.62742 18.9688 3.1673 16.898 4.27002ZM11.7444 5.81468C11.7444 5.81468 13.263 6.62335 13.9247 8.21152C14.0135 8.42456 14.1828 8.5939 14.3959 8.6827L14.399 8.68395C14.6124 8.77182 14.8522 8.77195 15.0656 8.68407L15.069 8.68267C15.282 8.5939 15.4513 8.42456 15.5401 8.21152C15.5401 8.21152 16.2019 6.62335 17.7205 5.81468C17.7205 5.81468 19.2391 5.00601 20.9262 5.34343C20.9262 5.34343 22.6133 5.68086 23.7041 7.01141C23.7041 7.01141 24.7949 8.34196 24.7949 10.0625C24.7949 10.0625 24.7949 14.3199 19.6188 18.9797C19.6188 18.9797 17.9559 20.4767 15.9561 21.8236C15.9561 21.8236 15.2613 22.2916 14.7324 22.6117C14.7324 22.6117 14.2055 22.2928 13.5121 21.8259C13.5121 21.8259 11.5123 20.4794 9.84902 18.9824C9.84902 18.9824 4.66992 14.3212 4.66992 10.0625C4.66992 10.0625 4.66992 8.34196 5.76071 7.01141C5.76071 7.01141 6.8515 5.68086 8.53861 5.34343C8.53861 5.34343 10.2257 5.00601 11.7444 5.81468Z" fill="#1C1C1C"/>
</svg>
