<svg width="32" height="32" viewBox="0 0 32 32" fill="none" xmlns="http://www.w3.org/2000/svg">
<path d="M16 28C22.6274 28 28 22.6274 28 16C28 9.37258 22.6274 4 16 4C9.37258 4 4 9.37258 4 16C4 22.6274 9.37258 28 16 28Z" fill="white" stroke="black" stroke-width="1.3" stroke-linecap="round" stroke-linejoin="round"/>
<path d="M13.9167 21H11.4428C11.3253 21 11.2127 20.9534 11.1297 20.8703C11.0467 20.7873 11 20.6747 11 20.5572V18.0833C10.9998 18.0259 11.0109 17.9689 11.0328 17.9157C11.0546 17.8625 11.0867 17.8142 11.1273 17.7734L17.7686 11.1321C17.8098 11.0903 17.8589 11.057 17.9131 11.0344C17.9672 11.0117 18.0254 11 18.0841 11C18.1428 11 18.2009 11.0117 18.2551 11.0344C18.3092 11.057 18.3584 11.0903 18.3996 11.1321L20.8679 13.6004C20.9097 13.6416 20.943 13.6908 20.9656 13.7449C20.9883 13.7991 21 13.8572 21 13.9159C21 13.9746 20.9883 14.0328 20.9656 14.0869C20.943 14.1411 20.9097 14.1902 20.8679 14.2314L14.2266 20.8727C14.1858 20.9133 14.1375 20.9454 14.0843 20.9672C14.0311 20.9891 13.9741 21.0002 13.9167 21Z" stroke="black" stroke-width="1.3" stroke-linecap="round" stroke-linejoin="round"/>
<path d="M16.313 12.5874L19.4123 15.6867" stroke="black" stroke-width="1.3" stroke-linecap="round" stroke-linejoin="round"/>
</svg>
