<svg width="16" height="16" viewBox="0 0 16 16" fill="none" xmlns="http://www.w3.org/2000/svg">
<path d="M13.3375 6.85013L8.3375 2.30638C8.24533 2.22206 8.12493 2.17529 8 2.17529C7.87507 2.17529 7.75467 2.22206 7.6625 2.30638L2.6625 6.85013C2.61219 6.89765 2.57189 6.95476 2.54398 7.01809C2.51607 7.08141 2.50112 7.14969 2.5 7.21888V13.0001C2.5 13.1327 2.55268 13.2599 2.64645 13.3537C2.74021 13.4475 2.86739 13.5001 3 13.5001H13C13.1326 13.5001 13.2598 13.4475 13.3536 13.3537C13.4473 13.2599 13.5 13.1327 13.5 13.0001V7.21888C13.4989 7.14969 13.4839 7.08141 13.456 7.01809C13.4281 6.95476 13.3878 6.89765 13.3375 6.85013Z" stroke="black" stroke-linecap="round" stroke-linejoin="round"/>
</svg>
