<svg width="16" height="16" viewBox="0 0 16 16" fill="none" xmlns="http://www.w3.org/2000/svg">
<path d="M13.675 6.48171L8.675 1.93796C8.49065 1.76931 8.24985 1.67578 8 1.67578C7.75015 1.67578 7.50935 1.76931 7.325 1.93796L2.325 6.48171C2.22263 6.57537 2.14087 6.6893 2.08491 6.81627C2.02896 6.94324 2.00004 7.08046 2 7.21921V13.0005C2 13.2657 2.10536 13.52 2.29289 13.7076C2.48043 13.8951 2.73478 14.0005 3 14.0005H13C13.2652 14.0005 13.5196 13.8951 13.7071 13.7076C13.8946 13.52 14 13.2657 14 13.0005V7.21921C14 7.08046 13.971 6.94324 13.9151 6.81627C13.8591 6.6893 13.7774 6.57537 13.675 6.48171Z" fill="black"/>
</svg>
