<svg width="20" height="20" viewBox="0 0 20 20" fill="none" xmlns="http://www.w3.org/2000/svg">
<path d="M16.875 16.875V9.02348C16.8736 8.93699 16.8549 8.85165 16.82 8.77248C16.7851 8.69332 16.7348 8.62194 16.6719 8.56255L10.4219 2.88286C10.3067 2.77745 10.1562 2.71899 10 2.71899C9.84384 2.71899 9.69334 2.77745 9.57812 2.88286L3.32812 8.56255C3.26523 8.62194 3.21486 8.69332 3.17998 8.77248C3.14509 8.85165 3.1264 8.93699 3.125 9.02348V16.875" stroke="black" stroke-width="1.3" stroke-linecap="round" stroke-linejoin="round"/>
<path d="M1.25 16.875H18.75" stroke="black" stroke-width="1.3" stroke-linecap="round" stroke-linejoin="round"/>
<path d="M11.875 16.875V12.5C11.875 12.3342 11.8092 12.1753 11.6919 12.0581C11.5747 11.9408 11.4158 11.875 11.25 11.875H8.75C8.58424 11.875 8.42527 11.9408 8.30806 12.0581C8.19085 12.1753 8.125 12.3342 8.125 12.5V16.875" stroke="black" stroke-width="1.3" stroke-linecap="round" stroke-linejoin="round"/>
</svg>
