<svg width="20" height="20" viewBox="0 0 20 20" fill="none" xmlns="http://www.w3.org/2000/svg">
<g id="Landmark" clip-path="url(#clip0_4537_16685)">
<path id="Vector (Stroke)" fill-rule="evenodd" clip-rule="evenodd" d="M10 3.125C6.20304 3.125 3.125 6.20304 3.125 10C3.125 13.797 6.20304 16.875 10 16.875C13.797 16.875 16.875 13.797 16.875 10C16.875 6.20304 13.797 3.125 10 3.125ZM1.875 10C1.875 5.51269 5.51269 1.875 10 1.875C14.4873 1.875 18.125 5.51269 18.125 10C18.125 14.4873 14.4873 18.125 10 18.125C5.51269 18.125 1.875 14.4873 1.875 10Z" fill="black"/>
<path id="Vector (Stroke)_2" fill-rule="evenodd" clip-rule="evenodd" d="M11.6346 5.13238C11.7863 5.25082 11.875 5.43255 11.875 5.62501V11.5625C11.875 11.9077 11.5952 12.1875 11.25 12.1875C10.9048 12.1875 10.625 11.9077 10.625 11.5625V6.42549L9.375 6.73799V11.5625C9.375 11.9077 9.09518 12.1875 8.75 12.1875C8.40482 12.1875 8.125 11.9077 8.125 11.5625V6.25001C8.125 5.96321 8.32019 5.71322 8.59842 5.64367L11.0984 5.01867C11.2851 4.97199 11.4829 5.01394 11.6346 5.13238Z" fill="black"/>
<path id="Vector (Stroke)_3" fill-rule="evenodd" clip-rule="evenodd" d="M6.67201 11.5273C6.91172 11.339 7.21086 11.25 7.5 11.25H12.5C12.7891 11.25 13.0883 11.339 13.328 11.5273C13.5714 11.7184 13.75 12.0145 13.75 12.3659V16.25C13.75 16.5952 13.4702 16.875 13.125 16.875C12.7798 16.875 12.5 16.5952 12.5 16.25V12.5H7.5V16.25C7.5 16.5952 7.22018 16.875 6.875 16.875C6.52982 16.875 6.25 16.5952 6.25 16.25V12.3659C6.25 12.0145 6.42865 11.7184 6.67201 11.5273Z" fill="black"/>
</g>
<defs>
<clipPath id="clip0_4537_16685">
<rect width="20" height="20" fill="white"/>
</clipPath>
</defs>
</svg>
