<?xml version="1.0" encoding="utf-8"?>
<!-- Generator: Adobe Illustrator 26.4.1, SVG Export Plug-In . SVG Version: 6.00 Build 0)  -->
<svg version="1.1" id="Layer_1" xmlns="http://www.w3.org/2000/svg" xmlns:xlink="http://www.w3.org/1999/xlink" x="0px" y="0px"
	 viewBox="0 0 48 48" style="enable-background:new 0 0 48 48;" xml:space="preserve">
<g>
	<path d="M21.7,28.7c0.7,0.6,0.7,1.7,0.1,2.4l-4.7,5.1c-0.6,0.7-1.9,0.7-2.5,0l-4.7-5.1c-0.6-0.7-0.6-1.8,0.1-2.4
		c0.3-0.3,0.7-0.4,1.2-0.4c0.5,0,0.9,0.2,1.3,0.6l1.7,1.9V14.6c0-0.9,0.8-1.7,1.7-1.7s1.7,0.8,1.7,1.7v16.2l1.7-1.9
		C20,28.1,21.1,28.1,21.7,28.7z M29.5,35.1c0,0.9-0.7,1.7-1.7,1.7h-1.7c-0.9,0-1.7-0.8-1.7-1.7s0.8-1.7,1.7-1.7h1.7
		C28.8,33.4,29.5,34.1,29.5,35.1z M39.9,14.6c0,0.9-0.8,1.7-1.7,1.7H26.2c-0.9,0-1.7-0.8-1.7-1.7s0.8-1.7,1.7-1.7h11.9
		C39.1,12.8,39.9,13.6,39.9,14.6z M36.4,21.4c0,0.9-0.8,1.7-1.7,1.7h-8.5c-0.9,0-1.7-0.8-1.7-1.7s0.8-1.7,1.7-1.7h8.5
		C35.7,19.7,36.4,20.5,36.4,21.4z M33,28.2c0,0.9-0.8,1.7-1.7,1.7h-5.1c-0.9,0-1.7-0.8-1.7-1.7s0.8-1.7,1.7-1.7h5.1
		C32.3,26.5,33,27.3,33,28.2z"/>
</g>
</svg>
