<svg width="16" height="16" viewBox="0 0 16 16" fill="none" xmlns="http://www.w3.org/2000/svg">
<path d="M8 14C11.3137 14 14 11.3137 14 8C14 4.68629 11.3137 2 8 2C4.68629 2 2 4.68629 2 8C2 11.3137 4.68629 14 8 14Z" stroke="black" stroke-linecap="round" stroke-linejoin="round"/>
<path d="M8 10C9.38071 10 10.5 8.88071 10.5 7.5C10.5 6.11929 9.38071 5 8 5C6.61929 5 5.5 6.11929 5.5 7.5C5.5 8.88071 6.61929 10 8 10Z" stroke="black" stroke-linecap="round" stroke-linejoin="round"/>
<path d="M3.9873 12.4624C4.3635 11.7214 4.93753 11.0991 5.64577 10.6643C6.35401 10.2296 7.16879 9.99951 7.9998 9.99951C8.83082 9.99951 9.6456 10.2296 10.3538 10.6643C11.0621 11.0991 11.6361 11.7214 12.0123 12.4624" stroke="black" stroke-linecap="round" stroke-linejoin="round"/>
</svg>
