<svg width="18" height="18" viewBox="0 0 18 18" fill="none" xmlns="http://www.w3.org/2000/svg">
<path fill-rule="evenodd" clip-rule="evenodd" d="M9 4.5C9 4.5 10.165 4.5 10.9887 5.32376C10.9887 5.32376 11.8125 6.14752 11.8125 7.3125C11.8125 7.3125 11.8125 8.47748 10.9887 9.30124C10.9887 9.30124 10.165 10.125 9 10.125C9 10.125 7.83502 10.125 7.01126 9.30124C7.01126 9.30124 6.1875 8.47748 6.1875 7.3125C6.1875 7.3125 6.1875 6.14752 7.01126 5.32376C7.01126 5.32376 7.83502 4.5 9 4.5ZM9 5.625C9 5.625 8.30101 5.625 7.80676 6.11926C7.80676 6.11926 7.3125 6.61351 7.3125 7.3125C7.3125 7.3125 7.3125 8.01149 7.80676 8.50574C7.80676 8.50574 8.30101 9 9 9C9 9 9.69899 9 10.1932 8.50574C10.1932 8.50574 10.6875 8.01149 10.6875 7.3125C10.6875 7.3125 10.6875 6.61351 10.1932 6.11926C10.1932 6.11926 9.69899 5.625 9 5.625Z" fill="black" fill-opacity="0.4"/>
<path fill-rule="evenodd" clip-rule="evenodd" d="M14.7165 4.94465C14.7165 4.94465 15.1875 6.08173 15.1875 7.3125C15.1875 7.3125 15.1875 10.6869 12.237 14.08C12.237 14.08 11.3302 15.1228 10.2432 16.0468C10.2432 16.0468 9.69576 16.5121 9.32257 16.7733C9.12889 16.9089 8.87111 16.9089 8.67743 16.7733C8.67743 16.7733 8.30424 16.5121 7.75679 16.0468C7.75679 16.0468 6.66978 15.1228 5.76303 14.08C5.76303 14.08 2.8125 10.6869 2.8125 7.3125C2.8125 7.3125 2.8125 6.08173 3.2835 4.94465C3.2835 4.94465 3.75449 3.80756 4.62478 2.93728C4.62478 2.93728 5.49506 2.06699 6.63215 1.596C6.63215 1.596 7.76923 1.125 9 1.125C9 1.125 10.2308 1.125 11.3679 1.596C11.3679 1.596 12.5049 2.06699 13.3752 2.93728C13.3752 2.93728 14.2455 3.80756 14.7165 4.94465ZM14.0625 7.3125C14.0625 7.3125 14.0625 6.30551 13.6771 5.37516C13.6771 5.37516 13.2918 4.44483 12.5797 3.73277C12.5797 3.73277 11.8677 3.02072 10.9373 2.63536C10.9373 2.63536 10.007 2.25 9 2.25C9 2.25 7.99301 2.25 7.06266 2.63536C7.06266 2.63536 6.13232 3.02072 5.42027 3.73277C5.42027 3.73277 4.70822 4.44482 4.32286 5.37516C4.32286 5.37516 3.9375 6.30551 3.9375 7.3125C3.9375 7.3125 3.9375 10.2662 6.61197 13.3418C6.61197 13.3418 7.46303 14.3206 8.4854 15.1896C8.4854 15.1896 8.77076 15.4321 9 15.6113C9 15.6113 9.22924 15.4321 9.5146 15.1896C9.5146 15.1896 10.537 14.3206 11.388 13.3418C11.388 13.3418 14.0625 10.2662 14.0625 7.3125Z" fill="black" fill-opacity="0.4"/>
</svg>
