<svg width="20" height="20" viewBox="0 0 20 20" fill="none" xmlns="http://www.w3.org/2000/svg">
<g clip-path="url(#clip0_3289_15432)">
<path d="M10 0C4.3675 0 0 4.1275 0 9.7C0 12.615 1.195 15.135 3.14 16.875C3.3025 17.02 3.4025 17.225 3.4075 17.445L3.4625 19.225C3.4665 19.356 3.50262 19.484 3.56767 19.5977C3.63271 19.7114 3.72471 19.8075 3.83556 19.8773C3.94641 19.9472 4.07272 19.9888 4.2034 19.9984C4.33407 20.008 4.46511 19.9854 4.585 19.9325L6.57 19.0575C6.7375 18.9825 6.9275 18.97 7.105 19.0175C8.0175 19.2675 8.9875 19.4025 10 19.4025C15.6325 19.4025 20 15.275 20 9.7025C20 4.13 15.6325 0 10 0Z" fill="url(#paint0_radial_3289_15432)"/>
<path d="M3.99544 12.5375L6.93294 7.8775C7.04344 7.70205 7.18912 7.55142 7.36077 7.43511C7.53243 7.31881 7.72633 7.23935 7.93025 7.20177C8.13416 7.16418 8.34365 7.16928 8.54549 7.21673C8.74733 7.26419 8.93714 7.35298 9.10294 7.4775L11.4404 9.23C11.5448 9.30812 11.6717 9.35014 11.8021 9.34969C11.9325 9.34924 12.0591 9.30634 12.1629 9.2275L15.3179 6.8325C15.7379 6.5125 16.2879 7.0175 16.0079 7.465L13.0679 12.1225C12.9574 12.2979 12.8118 12.4486 12.6401 12.5649C12.4684 12.6812 12.2745 12.7606 12.0706 12.7982C11.8667 12.8358 11.6572 12.8307 11.4554 12.7833C11.2535 12.7358 11.0637 12.647 10.8979 12.5225L8.56044 10.77C8.45608 10.6919 8.32913 10.6499 8.19877 10.6503C8.06841 10.6508 7.94175 10.6936 7.83794 10.7725L4.68294 13.1675C4.26294 13.4875 3.71294 12.985 3.99544 12.5375Z" fill="white"/>
</g>
<defs>
<radialGradient id="paint0_radial_3289_15432" cx="0" cy="0" r="1" gradientUnits="userSpaceOnUse" gradientTransform="translate(3.35 20) scale(22 22)">
<stop stop-color="#0099FF"/>
<stop offset="0.6" stop-color="#A033FF"/>
<stop offset="0.9" stop-color="#FF5280"/>
<stop offset="1" stop-color="#FF7061"/>
</radialGradient>
<clipPath id="clip0_3289_15432">
<rect width="20" height="20" fill="white"/>
</clipPath>
</defs>
</svg>
