<svg width="21" height="21" viewBox="0 0 21 21" fill="none" xmlns="http://www.w3.org/2000/svg">
<path fill-rule="evenodd" clip-rule="evenodd" d="M18.9355 5.31287C18.9355 5.31287 18.9355 4.7951 18.5694 4.42898C18.5694 4.42898 18.2033 4.06287 17.6855 4.06287H3.93555C3.93555 4.06287 3.41778 4.06287 3.05166 4.42898C3.05166 4.42898 2.68555 4.7951 2.68555 5.31287V16.5629C2.68555 16.5629 2.68555 17.0806 3.05166 17.4467C3.05166 17.4467 3.41778 17.8129 3.93555 17.8129H17.6855C17.6855 17.8129 18.2033 17.8129 18.5694 17.4467C18.5694 17.4467 18.9355 17.0806 18.9355 16.5629V5.31287ZM17.6855 5.31287V16.5629H3.93555V5.31287H17.6855Z" fill="white"/>
<path d="M7.05718 12.4501L3.75249 15.7547C3.63528 15.8719 3.47631 15.9378 3.31055 15.9378C3.14479 15.9378 2.98582 15.8719 2.8686 15.7547C2.75139 15.6375 2.68555 15.4786 2.68555 15.3128C2.68555 15.147 2.75139 14.9881 2.8686 14.8709L6.17329 11.5662C6.34613 11.3906 6.57777 11.2936 6.57777 11.2936C6.80942 11.1967 7.06055 11.1967 7.06055 11.1967C7.31168 11.1967 7.54332 11.2936 7.54332 11.2936C7.77496 11.3906 7.95117 11.5696 7.95117 11.5696L9.55718 13.1755L9.56055 13.1789L13.0483 9.69117C13.2211 9.51563 13.4528 9.41864 13.4528 9.41864C13.6844 9.32165 13.9355 9.32165 13.9355 9.32165C14.1867 9.32165 14.4183 9.41864 14.4183 9.41864C14.65 9.51563 14.8262 9.69456 14.8262 9.69456L18.7523 13.6206C18.8695 13.7378 18.9355 13.897 18.9355 14.0628C18.9355 14.0728 18.9353 14.0828 18.9348 14.0928C18.9274 14.248 18.8624 14.3949 18.7525 14.5047C18.6353 14.6219 18.4763 14.6878 18.3105 14.6878C18.1448 14.6878 17.9858 14.6219 17.8686 14.5047L13.9355 10.5717L13.9322 10.5751L10.4512 14.056C10.275 14.235 10.0433 14.3319 10.0433 14.3319C9.81167 14.4289 9.56055 14.4289 9.56055 14.4289C9.30942 14.4289 9.07778 14.3319 9.07778 14.3319C8.84613 14.235 8.67329 14.0594 8.67329 14.0594L7.06055 12.4467L7.05718 12.4501Z" fill="white"/>
<path d="M7.68555 8.75037C7.68555 9.26813 8.10532 9.68787 8.62305 9.68787C9.14078 9.68787 9.56055 9.26813 9.56055 8.75037C9.56055 8.2326 9.14078 7.81287 8.62305 7.81287C8.10532 7.81287 7.68555 8.2326 7.68555 8.75037Z" fill="white"/>
</svg>
