<svg width="25" height="24" viewBox="0 0 25 24" fill="none" xmlns="http://www.w3.org/2000/svg">
<g clip-path="url(#clip0_3151_14210)">
<path fill-rule="evenodd" clip-rule="evenodd" d="M3.34706 5.05496C3.04056 4.77633 3.01798 4.30199 3.29661 3.9955C3.57524 3.68901 4.04957 3.66642 4.35607 3.94505L12.6038 11.443C12.6052 11.4443 12.6066 11.4455 12.608 11.4468L20.8561 18.945C21.1626 19.2237 21.1851 19.698 20.9065 20.0045C20.6279 20.311 20.1536 20.3336 19.8471 20.055L16.7616 17.25H4.60156V18.75C4.60156 19.1642 4.26578 19.5 3.85156 19.5C3.43735 19.5 3.10156 19.1642 3.10156 18.75V17.25H2.35156C1.95374 17.25 1.57221 17.092 1.2909 16.8107C1.0096 16.5294 0.851562 16.1478 0.851562 15.75V11.25C0.851562 10.8522 1.0096 10.4707 1.2909 10.1893C1.38441 10.0958 1.48899 10.016 1.60156 9.95096V6.75001C1.60156 6.35218 1.7596 5.97065 2.0409 5.68935C2.32221 5.40804 2.70374 5.25001 3.10156 5.25001H3.56161L3.34706 5.05496ZM5.21161 6.75001L11.3516 12.3318V12.75H5.35156V11.25C5.35156 10.8522 5.19353 10.4707 4.91222 10.1893C4.63092 9.90804 4.24939 9.75001 3.85156 9.75001H3.10156V6.75001H5.21161ZM13.4616 14.25L15.1116 15.75H2.35156V11.25H3.85156V12.75C3.85156 13.1478 4.0096 13.5294 4.2909 13.8107C4.57221 14.092 4.95374 14.25 5.35156 14.25H13.4616Z" fill="#1C1C1C"/>
<path d="M21.1016 5.25001C21.4994 5.25001 21.8809 5.40804 22.1622 5.68935C22.4435 5.97065 22.6016 6.35218 22.6016 6.75001V9.95096C22.7141 10.016 22.8187 10.0958 22.9122 10.1893C23.1935 10.4706 23.3516 10.8522 23.3516 11.25V15.75C23.3516 16.1478 23.1935 16.5294 22.9122 16.8107C22.6309 17.092 22.2494 17.25 21.8516 17.25H21.1016C20.6873 17.25 20.3516 16.9142 20.3516 16.5C20.3516 16.0858 20.6873 15.75 21.1016 15.75H21.8516V11.25H20.3516V12.75C20.3516 13.1478 20.1935 13.5294 19.9122 13.8107C19.6309 14.092 19.2494 14.25 18.8516 14.25H18.1016C17.6873 14.25 17.3516 13.9142 17.3516 13.5C17.3516 13.0858 17.6873 12.75 18.1016 12.75H18.8516V11.25C18.8516 10.8522 19.0096 10.4706 19.2909 10.1893C19.5722 9.90804 19.9537 9.75001 20.3516 9.75001H21.1016V6.75001L12.8516 6.75001V8.25001C12.8516 8.66422 12.5158 9.00001 12.1016 9.00001C11.6873 9.00001 11.3516 8.66422 11.3516 8.25001V6.75001H9.85156C9.43735 6.75001 9.10156 6.41422 9.10156 6.00001C9.10156 5.58579 9.43735 5.25001 9.85156 5.25001H21.1016Z" fill="#1C1C1C"/>
</g>
<defs>
<clipPath id="clip0_3151_14210">
<rect width="24" height="24" fill="white" transform="matrix(-1 0 0 1 24.1016 0)"/>
</clipPath>
</defs>
</svg>
