<svg width="18" height="18" viewBox="0 0 18 18" fill="none" xmlns="http://www.w3.org/2000/svg">
<path d="M9 16.3125V6.1875" stroke="#949597" stroke-width="1.125" stroke-linecap="round" stroke-linejoin="round"/>
<path d="M9 10.6875L5.625 9" stroke="#949597" stroke-width="1.125" stroke-linecap="round" stroke-linejoin="round"/>
<path d="M9 9L12.375 7.3125" stroke="#949597" stroke-width="1.125" stroke-linecap="round" stroke-linejoin="round"/>
<path d="M9.31641 12.7406C9.83248 13.0921 10.4161 13.3324 11.03 13.4461C11.644 13.5598 12.2749 13.5445 12.8826 13.4012C13.4904 13.2578 14.0616 12.9896 14.5601 12.6135C15.0585 12.2374 15.4732 11.7617 15.7778 11.2166C16.0824 10.6716 16.2703 10.0691 16.3294 9.44746C16.3885 8.82586 16.3176 8.19875 16.1213 7.60603C15.9249 7.01331 15.6073 6.46795 15.1887 6.00463C14.7701 5.54131 14.2597 5.17017 13.6898 4.91482C13.5647 4.85192 13.4653 4.74755 13.4086 4.61951C13.0441 3.75113 12.4312 3.00973 11.6469 2.48836C10.8626 1.96698 9.94179 1.68884 9 1.68884C8.05821 1.68884 7.1374 1.96698 6.35309 2.48836C5.56879 3.00973 4.95593 3.75113 4.59141 4.61951C4.53468 4.74755 4.43528 4.85192 4.31016 4.91482C3.74035 5.17017 3.22991 5.54131 2.81132 6.00463C2.39273 6.46795 2.07514 7.01331 1.87875 7.60603C1.68237 8.19875 1.61148 8.82586 1.67061 9.44746C1.72974 10.0691 1.91758 10.6716 2.22219 11.2166C2.5268 11.7617 2.94151 12.2374 3.43995 12.6135C3.93839 12.9896 4.50964 13.2578 5.11737 13.4012C5.7251 13.5445 6.35602 13.5598 6.96998 13.4461C7.58395 13.3324 8.16752 13.0921 8.6836 12.7406C8.77759 12.6789 8.88757 12.646 9 12.646C9.11244 12.646 9.22242 12.6789 9.31641 12.7406Z" stroke="#949597" stroke-width="1.125" stroke-linecap="round" stroke-linejoin="round"/>
</svg>
