<svg width="20" height="20" viewBox="0 0 20 20" fill="none" xmlns="http://www.w3.org/2000/svg">
<g id="Tree">
<path id="Vector" d="M10 18.125V6.875" stroke="#1C1C1C" stroke-width="1.125" stroke-linecap="round" stroke-linejoin="round"/>
<path id="Vector_2" d="M10 11.875L6.25 10" stroke="#1C1C1C" stroke-width="1.125" stroke-linecap="round" stroke-linejoin="round"/>
<path id="Vector_3" d="M10 10L13.75 8.125" stroke="#1C1C1C" stroke-width="1.125" stroke-linecap="round" stroke-linejoin="round"/>
<path id="Vector_4" d="M10.3518 14.1562C10.9252 14.5468 11.5736 14.8137 12.2558 14.9401C12.938 15.0664 13.639 15.0494 14.3143 14.8902C14.9895 14.7309 15.6242 14.4328 16.1781 14.015C16.7319 13.5971 17.1927 13.0685 17.5311 12.4629C17.8696 11.8573 18.0783 11.1878 18.144 10.4971C18.2097 9.80648 18.1309 9.1097 17.9127 8.45112C17.6945 7.79254 17.3416 7.18658 16.8765 6.67178C16.4114 6.15698 15.8443 5.74461 15.2112 5.46089C15.0721 5.391 14.9617 5.27502 14.8987 5.13276C14.4936 4.16789 13.8127 3.34412 12.9412 2.76481C12.0698 2.18551 11.0467 1.87646 10.0002 1.87646C8.95379 1.87646 7.93066 2.18551 7.05921 2.76481C6.18776 3.34412 5.50681 4.16789 5.10178 5.13276C5.03875 5.27502 4.9283 5.391 4.78928 5.46089C4.15616 5.74461 3.58901 6.15698 3.12391 6.67178C2.65881 7.18658 2.30593 7.79254 2.08772 8.45112C1.86952 9.1097 1.79076 9.80648 1.85645 10.4971C1.92215 11.1878 2.13086 11.8573 2.46932 12.4629C2.80777 13.0685 3.26856 13.5971 3.82238 14.015C4.3762 14.4328 5.01092 14.7309 5.68618 14.8902C6.36144 15.0494 7.06246 15.0664 7.74464 14.9401C8.42682 14.8137 9.07524 14.5468 9.64866 14.1562C9.75309 14.0876 9.87529 14.0511 10.0002 14.0511C10.1251 14.0511 10.2473 14.0876 10.3518 14.1562Z" stroke="#1C1C1C" stroke-width="1.125" stroke-linecap="round" stroke-linejoin="round"/>
</g>
</svg>
