<svg width="16" height="16" viewBox="0 0 16 16" fill="none" xmlns="http://www.w3.org/2000/svg">
<path d="M14 4.7948L11.2312 2.0198C11.0448 1.82863 10.7919 1.7167 10.525 1.7073C10.3896 1.70418 10.2549 1.72861 10.1292 1.7791C10.0035 1.8296 9.88939 1.90511 9.79375 2.00105L8.14375 3.6448L2.29375 9.50105C2.20056 9.59353 2.12662 9.70355 2.0762 9.82478C2.02578 9.946 1.99988 10.076 2 10.2073V13.001C2 13.2663 2.10536 13.5206 2.29289 13.7082C2.48043 13.8957 2.73478 14.001 3 14.001H5.79375C6.05866 13.9999 6.31243 13.8944 6.5 13.7073L14 6.2073C14.1855 6.01903 14.2895 5.76535 14.2895 5.50105C14.2895 5.23675 14.1855 4.98306 14 4.7948ZM12 6.7948L9.20625 4.00105L10.5 2.7073L13.2937 5.50105L12 6.7948Z" fill="#949597"/>
</svg>
