<svg width="32" height="32" viewBox="0 0 32 32" fill="none" xmlns="http://www.w3.org/2000/svg">
<g id="PhoneCall">
<g id="Vector">
<path d="M27.75 19.7995L21.8875 17.2995C21.585 17.1639 21.253 17.1077 20.9227 17.1362C20.5924 17.1646 20.2749 17.2767 20 17.462L16.8625 19.5495C14.9503 18.6208 13.4021 17.0814 12.4625 15.1745L14.5375 11.9995C14.7216 11.7244 14.834 11.4076 14.8645 11.078C14.8951 10.7484 14.8428 10.4163 14.7125 10.112L12.2 4.24952C12.0247 3.85366 11.7278 3.52394 11.3525 3.30818C10.9771 3.09241 10.5428 3.00181 10.1125 3.04952C8.42449 3.27065 6.87421 4.09724 5.7499 5.37559C4.62559 6.65395 4.00375 8.29709 4 9.99952C4 19.9245 12.075 27.9995 22 27.9995C23.7024 27.9958 25.3456 27.3739 26.6239 26.2496C27.9023 25.1253 28.7289 23.575 28.95 21.887C28.9977 21.4567 28.9071 21.0224 28.6913 20.647C28.4756 20.2717 28.1459 19.9748 27.75 19.7995Z" fill="#5E52FF"/>
<path d="M19.675 5.962C21.1972 6.37786 22.5846 7.18342 23.7003 8.29918C24.8161 9.41495 25.6217 10.8024 26.0375 12.3245C26.0927 12.5382 26.217 12.7277 26.3911 12.8633C26.5652 12.999 26.7793 13.0732 27 13.0745C27.0888 13.0743 27.1772 13.0617 27.2625 13.037C27.3896 13.0037 27.5088 12.9454 27.6131 12.8655C27.7174 12.7856 27.8047 12.6857 27.8699 12.5716C27.9351 12.4575 27.9769 12.3316 27.9928 12.2011C28.0087 12.0707 27.9984 11.9384 27.9625 11.812C27.4626 9.94786 26.4809 8.24807 25.1162 6.88334C23.7514 5.51861 22.0517 4.53697 20.1875 4.037C20.0571 3.98948 19.9182 3.96964 19.7796 3.97875C19.6411 3.98785 19.506 4.0257 19.3829 4.08988C19.2598 4.15407 19.1514 4.24318 19.0646 4.35155C18.9779 4.45992 18.9146 4.58517 18.8789 4.71932C18.8432 4.85348 18.8358 4.9936 18.8572 5.13077C18.8786 5.26794 18.9283 5.39915 19.0032 5.51604C19.0781 5.63294 19.1765 5.73296 19.2922 5.80974C19.4078 5.88652 19.5382 5.93837 19.675 5.962Z" fill="#5E52FF"/>
<path d="M18.6375 9.82452C19.4836 10.0561 20.2548 10.5041 20.8751 11.1244C21.4954 11.7447 21.9434 12.5159 22.175 13.362C22.2282 13.5768 22.352 13.7675 22.5265 13.9035C22.7011 14.0395 22.9162 14.1129 23.1375 14.112C23.2223 14.1129 23.3067 14.1002 23.3875 14.0745C23.5157 14.0426 23.6363 13.9853 23.742 13.906C23.8476 13.8267 23.9363 13.7269 24.0028 13.6127C24.0692 13.4985 24.1121 13.3721 24.1288 13.241C24.1455 13.1099 24.1357 12.9768 24.1 12.8495C23.7843 11.6614 23.1602 10.5778 22.2909 9.70856C21.4217 8.83929 20.3381 8.2152 19.15 7.89952C19.0195 7.852 18.8806 7.83216 18.7421 7.84126C18.6036 7.85037 18.4685 7.88822 18.3454 7.9524C18.2223 8.01659 18.1139 8.1057 18.0271 8.21407C17.9403 8.32243 17.8771 8.44768 17.8413 8.58184C17.8056 8.71599 17.7982 8.85612 17.8196 8.99329C17.841 9.13046 17.8908 9.26166 17.9657 9.37856C18.0406 9.49546 18.139 9.59548 18.2546 9.67226C18.3703 9.74904 18.5007 9.80089 18.6375 9.82452Z" fill="#5E52FF"/>
</g>
</g>
</svg>
