<svg width="16" height="13" viewBox="0 0 16 13" fill="none" xmlns="http://www.w3.org/2000/svg">
<path d="M15.7227 12.2188C15.7227 12.6289 15.3945 12.875 15.0938 12.875C14.8477 12.875 13.9727 12.6836 13.125 12C12.3867 12.5742 11.457 12.8477 10.5 12.8477C9.57031 12.8477 8.64062 12.5742 7.875 12C7.13672 12.5742 6.20703 12.875 5.25 12.875C4.26562 12.875 3.22656 12.5469 2.46094 12.0273C1.64062 12.7656 0.875 12.875 0.65625 12.875C0.273438 12.875 0 12.5469 0 12.2188C0 11.918 0.246094 11.6445 0.546875 11.5898C1.58594 11.3984 1.80469 10.4688 2.40625 10.4688C3.00781 10.4688 3.33594 11.5625 5.25 11.5625C6.94531 11.5625 7.24609 10.4688 7.875 10.4688C8.47656 10.4688 8.77734 11.5625 10.5 11.5625C12.168 11.5625 12.4688 10.4688 13.0977 10.4688C13.7266 10.4688 13.8906 11.3438 15.1758 11.5898C15.4766 11.6445 15.7227 11.918 15.7227 12.2188ZM13.125 0.625C14.5469 0.625 15.75 1.82812 15.75 3.25V3.46875C15.75 3.85156 15.4492 4.125 15.0938 4.125C14.7109 4.125 14.4375 3.85156 14.4375 3.46875V3.25C14.4375 2.53906 13.8359 1.9375 13.125 1.9375C12.3867 1.9375 11.8125 2.53906 11.8125 3.25V9.59375C11.8125 9.97656 11.5117 10.25 11.1562 10.25C10.7734 10.25 10.5 9.97656 10.5 9.59375V7.1875H4.8125V9.59375C4.8125 9.97656 4.51172 10.25 4.15625 10.25C3.77344 10.25 3.5 9.97656 3.5 9.59375V3.25C3.5 1.82812 4.67578 0.652344 6.125 0.652344C7.54688 0.652344 8.75 1.82812 8.75 3.25V3.46875C8.75 3.85156 8.44922 4.125 8.09375 4.125C7.71094 4.125 7.4375 3.85156 7.4375 3.46875V3.25C7.4375 2.53906 6.83594 1.9375 6.125 1.9375C5.38672 1.9375 4.8125 2.53906 4.8125 3.25V5.875H10.5V3.25C10.5 1.82812 11.6758 0.625 13.125 0.625Z" fill="#1C1C1C"/>
</svg>
