<svg width="14" height="11" viewBox="0 0 14 11" fill="none" xmlns="http://www.w3.org/2000/svg">
<path d="M13.4766 10.1875C13.4609 9.89062 13.3047 9.70312 13.0078 9.625C12.7109 9.5625 12.4688 9.47656 12.2812 9.36719C12.1094 9.24219 11.9609 9.125 11.8359 9.01562C11.6484 8.8125 11.4453 8.70312 11.2266 8.6875C11.0391 8.70312 10.8516 8.80469 10.6641 8.99219C10.5078 9.13281 10.2969 9.27344 10.0312 9.41406C9.78125 9.53906 9.4375 9.60938 9 9.625C8.54688 9.60938 8.19531 9.53906 7.94531 9.41406C7.67969 9.27344 7.46875 9.13281 7.3125 8.99219C7.125 8.80469 6.9375 8.70312 6.75 8.6875C6.5625 8.70312 6.375 8.80469 6.1875 8.99219C6.03125 9.13281 5.82031 9.27344 5.55469 9.41406C5.30469 9.53906 4.95312 9.60938 4.5 9.625C3.98438 9.60938 3.58594 9.53125 3.30469 9.39062C3.00781 9.25 2.78125 9.10938 2.625 8.96875C2.4375 8.79688 2.25781 8.70312 2.08594 8.6875C1.86719 8.70312 1.66406 8.82031 1.47656 9.03906C1.27344 9.30469 0.945312 9.5 0.492188 9.625C0.195312 9.70312 0.0390625 9.89062 0.0234375 10.1875C0.0390625 10.5156 0.226562 10.7031 0.585938 10.75C0.679688 10.7656 0.867188 10.7188 1.14844 10.6094C1.42969 10.5156 1.75 10.3125 2.10938 10C2.8125 10.4844 3.61719 10.7344 4.52344 10.75C5.36719 10.7344 6.11719 10.4844 6.77344 10C7.42969 10.4844 8.17969 10.7266 9.02344 10.7266C9.85156 10.7266 10.6016 10.4844 11.2734 10C11.6328 10.2812 11.9766 10.4766 12.3047 10.5859C12.6172 10.6953 12.8359 10.75 12.9609 10.75C13.0859 10.7344 13.2031 10.6797 13.3125 10.5859C13.4219 10.4922 13.4766 10.3594 13.4766 10.1875ZM11.25 0.25C10.6094 0.265625 10.0781 0.484375 9.65625 0.90625C9.23438 1.32812 9.01562 1.85938 9 2.5V4.75H4.125V2.5C4.14062 2.1875 4.25 1.92188 4.45312 1.70312C4.67188 1.5 4.9375 1.39062 5.25 1.375C5.5625 1.39062 5.82812 1.5 6.04688 1.70312C6.25 1.92188 6.35938 2.1875 6.375 2.5V2.6875C6.40625 3.03125 6.59375 3.21875 6.9375 3.25C7.28125 3.21875 7.46875 3.03125 7.5 2.6875V2.5C7.48438 1.85938 7.26562 1.33594 6.84375 0.929688C6.42188 0.507812 5.89062 0.289062 5.25 0.273438C4.60938 0.289062 4.07812 0.507812 3.65625 0.929688C3.23438 1.33594 3.01562 1.85938 3 2.5V7.9375C3.03125 8.28125 3.21875 8.46875 3.5625 8.5C3.90625 8.46875 4.09375 8.28125 4.125 7.9375V5.875H9V7.9375C9.03125 8.28125 9.21875 8.46875 9.5625 8.5C9.90625 8.46875 10.0938 8.28125 10.125 7.9375V2.5C10.1406 2.1875 10.25 1.92188 10.4531 1.70312C10.6719 1.5 10.9375 1.39062 11.25 1.375C11.5625 1.39062 11.8281 1.5 12.0469 1.70312C12.25 1.92188 12.3594 2.1875 12.375 2.5V2.6875C12.4062 3.03125 12.5938 3.21875 12.9375 3.25C13.2812 3.21875 13.4688 3.03125 13.5 2.6875V2.5C13.4844 1.85938 13.2656 1.32812 12.8438 0.90625C12.4219 0.484375 11.8906 0.265625 11.25 0.25Z" fill="black" fill-opacity="0.4"/>
</svg>
