<svg width="24" height="24" viewBox="0 0 24 24" fill="none" xmlns="http://www.w3.org/2000/svg">
<path fill-rule="evenodd" clip-rule="evenodd" d="M15.75 14.25H6.97765L3.47139 17.0833C3.14922 17.3437 2.677 17.2936 2.41665 16.9714C2.30882 16.8379 2.25 16.6716 2.25 16.5V4.5C2.25 4.5 2.25 3.87868 2.68934 3.43934C2.68934 3.43934 3.12868 3 3.75 3H15.75C15.75 3 16.3713 3 16.8107 3.43934C16.8107 3.43934 17.25 3.87868 17.25 4.5V12.75C17.25 12.75 17.25 13.3713 16.8107 13.8107C16.8107 13.8107 16.3713 14.25 15.75 14.25ZM15.75 12.75V4.5H3.75V14.9297L6.24111 12.9167C6.37455 12.8088 6.54093 12.75 6.7125 12.75H15.75Z" fill="#1C1C1C"/>
<path d="M20.25 7.5H16.5C16.0858 7.5 15.75 7.83579 15.75 8.25C15.75 8.66421 16.0858 9 16.5 9H20.25V19.4297L17.7589 17.4167C17.6254 17.3088 17.4591 17.25 17.2875 17.25H8.25V13.5C8.25 13.0858 7.91421 12.75 7.5 12.75C7.08579 12.75 6.75 13.0858 6.75 13.5V17.25C6.75 17.8713 7.18934 18.3107 7.18934 18.3107C7.62868 18.75 8.25 18.75 8.25 18.75H17.0223L20.5286 21.5833C20.6621 21.6912 20.8284 21.75 21 21.75C21.4142 21.75 21.75 21.4142 21.75 21V9C21.75 8.37868 21.3107 7.93934 21.3107 7.93934C20.8713 7.5 20.25 7.5 20.25 7.5Z" fill="#1C1C1C"/>
</svg>
