<svg width="24" height="24" viewBox="0 0 24 24" fill="none" xmlns="http://www.w3.org/2000/svg">
<path fill-rule="evenodd" clip-rule="evenodd" d="M23.3688 11.7247C23.3688 11.7247 23.1718 11.9542 22.9013 12.0894L22.9002 12.0899L20.5841 13.2433C20.2185 13.4253 19.7744 13.2814 19.5852 12.9194L16.5852 7.18193L16.579 7.16982C16.3938 6.79933 16.5439 6.34883 16.9144 6.16359L19.253 4.99433C19.253 4.99433 19.8003 4.71536 20.3852 4.90298C20.3852 4.90298 20.9701 5.0906 21.2521 5.63407L23.5565 10.0462C23.5565 10.0462 23.6982 10.314 23.7248 10.6159C23.7248 10.6159 23.7515 10.9177 23.6588 11.2062C23.6588 11.2062 23.5662 11.4948 23.3688 11.7247ZM22.2306 10.7477L19.9259 6.33488L18.2683 7.16367L20.5737 11.5728L22.2306 10.7477Z" fill="#1C1C1C"/>
<path fill-rule="evenodd" clip-rule="evenodd" d="M7.4147 7.0783L4.4147 12.8252C4.22516 13.1883 3.77939 13.3321 3.41334 13.1484L1.09772 11.9859C1.09772 11.9859 0.832222 11.8558 0.633858 11.627C0.633858 11.627 0.435493 11.3982 0.342135 11.1101C0.342135 11.1101 0.248777 10.822 0.275227 10.5203C0.275227 10.5203 0.301678 10.2187 0.443745 9.95125L2.74755 5.54026C2.74755 5.54026 3.0284 5.00043 3.60737 4.80926C3.60737 4.80926 4.18634 4.61809 4.7345 4.88507L7.08525 6.0604C7.45573 6.24564 7.6059 6.69615 7.42066 7.06663L7.4147 7.0783ZM4.07768 6.23362L5.7318 7.06071L3.4266 11.4766L1.77289 10.6464L4.07713 6.23469L4.07768 6.23362Z" fill="#1C1C1C"/>
<path d="M4.21144 11.887L9.33946 15.89L9.3507 15.899L14.7504 17.2489C14.7593 17.2499 14.768 17.2475 14.768 17.2475C14.7767 17.2451 14.7838 17.2397 14.7838 17.2397L18.1982 13.8253L19.6787 12.0857C19.8076 11.9343 19.9914 11.8402 20.1897 11.8243C20.2097 11.8226 20.2298 11.8218 20.2498 11.8218C20.428 11.8218 20.6003 11.8852 20.7359 12.0007C20.8874 12.1296 20.9815 12.3134 20.9974 12.5117C20.999 12.5312 20.9998 12.5508 20.9998 12.5703L20.9998 12.5718C20.9998 12.75 20.9364 12.9223 20.821 13.0579L19.321 14.8204C19.308 14.8357 19.2944 14.8505 19.2802 14.8647L15.8302 18.3147C15.8242 18.3206 15.8182 18.3264 15.8121 18.3321C15.5342 18.592 15.1675 18.6933 15.1675 18.6933C14.8009 18.7946 14.429 18.7143 14.429 18.7143C14.4211 18.7126 14.4133 18.7108 14.4054 18.7088L8.96793 17.3494L8.94845 17.3443C8.64727 17.2603 8.41646 17.0724 8.41646 17.0724L3.28843 13.0694C3.10626 12.9272 2.99983 12.7091 2.99983 12.4781C2.99983 12.3323 3.04232 12.1897 3.12209 12.0677C3.13355 12.0501 3.14574 12.0331 3.15863 12.0166C3.30076 11.8345 3.51886 11.7281 3.74983 11.7281C3.89561 11.7281 4.03823 11.7706 4.16024 11.8503C4.17777 11.8618 4.19482 11.874 4.21144 11.887Z" fill="#1C1C1C"/>
<path d="M13.4355 7.58442H17.2498C17.664 7.58442 17.9998 7.24863 17.9998 6.83442C17.9998 6.4202 17.664 6.08442 17.2498 6.08442H13.4342C13.1399 6.08338 12.8653 6.19618 12.8653 6.19618C12.5906 6.30898 12.3802 6.5184 12.3802 6.5184L8.70454 10.1847C8.47067 10.4246 8.35978 10.7294 8.35978 10.7294C8.24888 11.0341 8.27293 11.3575 8.27293 11.3575C8.29699 11.6809 8.45175 11.9659 8.45175 11.9659C8.6065 12.2508 8.86465 12.4471 8.86465 12.4471L9.37128 12.8318C10.3766 13.5821 11.6248 13.5821 11.6248 13.5821C12.8731 13.5821 13.8734 12.8355 13.8734 12.8355L14.6317 12.2668L18.3085 14.9409C18.4369 15.0342 18.5913 15.0844 18.7498 15.0844C18.7631 15.0844 18.7764 15.0841 18.7897 15.0834C19.0153 15.0714 19.2235 14.9583 19.3564 14.7755C19.4496 14.6474 19.4998 14.4929 19.4998 14.3344C19.4998 14.3211 19.4995 14.3078 19.4988 14.2946C19.4868 14.069 19.3737 13.8608 19.1909 13.7279L15.0659 10.7279C14.7997 10.5342 14.4382 10.5369 14.1748 10.7344L12.9762 11.6334C12.375 12.0821 11.6248 12.0821 11.6248 12.0821C10.8746 12.0821 10.2783 11.6371 10.2783 11.6371L9.77248 11.253C9.77087 11.2518 9.76991 11.25 9.76991 11.25C9.76895 11.2482 9.7688 11.2462 9.7688 11.2462C9.76865 11.2442 9.76934 11.2423 9.76934 11.2423C9.76896 11.242 9.7651 11.2454 9.7651 11.2454L13.4355 7.58442Z" fill="#1C1C1C"/>
<path d="M15.0649 7.51739C15.1623 7.56156 15.2679 7.58441 15.3748 7.58441C15.3876 7.58441 15.4005 7.58409 15.4132 7.58343C15.6933 7.56907 15.9419 7.39968 16.0578 7.14432C16.102 7.04698 16.1248 6.94131 16.1248 6.83441L16.1247 6.82208C16.1233 6.73614 16.1072 6.65108 16.0769 6.57061C16.007 6.38441 15.8659 6.23363 15.6847 6.15144L12.441 4.67956C11.9381 4.45228 11.4087 4.6041 11.4087 4.6041L6.59576 6.01139C6.40469 6.06726 6.24377 6.19664 6.14824 6.37111C6.08778 6.48153 6.05609 6.6054 6.05609 6.73129L6.05619 6.74324C6.05726 6.81046 6.06736 6.87724 6.08623 6.94177C6.17973 7.26153 6.47295 7.48129 6.80609 7.48129L6.81038 7.48128C6.88018 7.48088 6.94958 7.47074 7.01658 7.45115L11.8222 6.04598L15.0649 7.51739Z" fill="#1C1C1C"/>
<path d="M5.74122 16.6834C5.60484 16.5651 5.43036 16.5 5.24983 16.5C5.23209 16.5 5.21435 16.5006 5.19665 16.5019C4.99824 16.516 4.81356 16.6083 4.68323 16.7586C4.56495 16.895 4.49983 17.0695 4.49983 17.25C4.49983 17.2677 4.50046 17.2855 4.50172 17.3032C4.51583 17.5016 4.60817 17.6863 4.75844 17.8166L6.87719 19.6541C7.14385 19.8925 7.50204 19.976 7.50204 19.976L10.3162 20.6866C10.3763 20.7017 10.4379 20.7094 10.4998 20.7094C10.5077 20.7094 10.5155 20.7092 10.5234 20.709C10.858 20.6985 11.1451 20.4675 11.227 20.143C11.2422 20.083 11.2498 20.0213 11.2498 19.9594C11.2498 19.9479 11.2496 19.9364 11.249 19.9249C11.2434 19.8014 11.2072 19.6812 11.1439 19.575C11.0419 19.4042 10.8763 19.2809 10.6834 19.2322L7.86156 18.5197L7.85738 18.5187L5.74122 16.6834Z" fill="#1C1C1C"/>
</svg>
