<svg width="24" height="24" viewBox="0 0 24 24" fill="none" xmlns="http://www.w3.org/2000/svg">
<g clip-path="url(#clip0_5681_16763)">
<path d="M19.5 9.75C19.5 16.5 12 21.75 12 21.75C12 21.75 4.5 16.5 4.5 9.75C4.5 7.76088 5.29018 5.85322 6.6967 4.4467C8.10322 3.04018 10.0109 2.25 12 2.25C13.9891 2.25 15.8968 3.04018 17.3033 4.4467C18.7098 5.85322 19.5 7.76088 19.5 9.75Z" stroke="black" stroke-width="1.5" stroke-linecap="round" stroke-linejoin="round"/>
<path d="M12.1834 6.06795C12.1332 6.02423 12.0677 6 11.9998 6C11.9319 6 11.8665 6.02423 11.8163 6.06795L9.08898 8.53116C9.06091 8.55563 9.0385 8.58545 9.02318 8.61869C9.00785 8.65193 8.99996 8.68787 9 8.7242V11.7391C9 11.8083 9.02873 11.8747 9.07988 11.9236C9.13103 11.9725 9.2004 12 9.27273 12H14.7273C14.7996 12 14.869 11.9725 14.9201 11.9236C14.9713 11.8747 15 11.8083 15 11.7391V8.7242C15 8.68784 14.992 8.65189 14.9767 8.61865C14.9613 8.58541 14.9388 8.55561 14.9107 8.53116L12.1834 6.06795Z" stroke="black" stroke-width="1.5" stroke-linecap="round" stroke-linejoin="round"/>
</g>
<defs>
<clipPath id="clip0_5681_16763">
<rect width="24" height="24" fill="white"/>
</clipPath>
</defs>
</svg>
