<svg width="21" height="20" viewBox="0 0 21 20" fill="none" xmlns="http://www.w3.org/2000/svg">
<path d="M10.5 19.5C5.2533 19.5 1 15.2467 1 10C1 4.75329 5.2533 0.499999 10.5 0.5C15.7467 0.5 20 4.75329 20 10C20 15.2467 15.7467 19.5 10.5 19.5Z" stroke="#F76754"/>
<path d="M10.3333 10.5732C11.2307 10.5732 11.9583 9.8457 11.9583 8.94824C11.9583 8.05078 11.2307 7.32324 10.3333 7.32324C9.43579 7.32324 8.70825 8.05078 8.70825 8.94824C8.70825 9.8457 9.43579 10.5732 10.3333 10.5732Z" stroke="#F76754" stroke-linecap="round" stroke-linejoin="round"/>
<path d="M14.3959 8.94775C14.3959 12.604 10.3334 15.4478 10.3334 15.4478C10.3334 15.4478 6.27087 12.604 6.27087 8.94775C6.27087 7.87031 6.69889 6.837 7.46075 6.07513C8.22262 5.31327 9.25593 4.88525 10.3334 4.88525C11.4108 4.88525 12.4441 5.31327 13.206 6.07513C13.9679 6.837 14.3959 7.87031 14.3959 8.94775Z" stroke="#F76754" stroke-linecap="round" stroke-linejoin="round"/>
</svg>
