<svg width="16" height="16" viewBox="0 0 16 16" fill="none" xmlns="http://www.w3.org/2000/svg">
<path d="M14.5 0.5C13.9375 0.5 13.5 0.96875 13.5 1.5V3.84375C12.25 2.09375 10.2188 1 8 1C5.03125 1 2.4375 2.90625 1.53125 5.71875C1.375 6.25 1.65625 6.8125 2.1875 6.96875C2.71875 7.125 3.28125 6.84375 3.4375 6.3125C4.0625 4.34375 5.90625 3 8 3C9.5625 3 11 3.78125 11.875 5H10.5C9.9375 5 9.5 5.46875 9.5 6C9.5 6.5625 9.9375 7 10.5 7H14.5C15.0312 7 15.5 6.5625 15.5 6V1.5C15.5 0.96875 15.0312 0.5 14.5 0.5ZM13.7812 9.0625C13.25 8.90625 12.6875 9.1875 12.5312 9.71875C11.9062 11.6875 10.0625 13 8 13C6.40625 13 4.96875 12.25 4.09375 11H5.5C6.03125 11 6.5 10.5625 6.5 10C6.5 9.46875 6.03125 9 5.5 9H1.5C0.9375 9 0.5 9.46875 0.5 10V14.5C0.5 15.0625 0.9375 15.5 1.5 15.5C2.03125 15.5 2.5 15.0625 2.5 14.5V12.1875C3.71875 13.9375 5.75 15 7.96875 15C10.9062 15 13.5 13.125 14.4062 10.3125C14.5938 9.78125 14.3125 9.21875 13.7812 9.0625Z" fill="black" fill-opacity="0.8"/>
</svg>
