<svg width="17" height="12" viewBox="0 0 17 12" fill="none" xmlns="http://www.w3.org/2000/svg">
<path d="M16.2031 9.71484C16.5586 9.76953 16.7773 10.0977 16.7227 10.4805C16.668 10.7812 16.3945 11 16.0664 11C16.0391 11 16.0117 11 15.957 11C15.3008 10.8906 14.6719 10.5898 14.0977 10.125C12.6211 11.2734 10.3516 11.2734 8.84766 10.125C8.10938 10.6992 7.17969 11 6.25 11C5.23828 11 4.19922 10.6719 3.43359 10.1523C2.96875 10.5352 2.47656 10.8633 1.76562 11C1.41016 11.0547 1.05469 10.8359 1 10.4805C0.945312 10.0977 1.16406 9.76953 1.51953 9.71484C2.06641 9.60547 2.39453 9.33203 2.91406 8.78516C3.16016 8.53906 3.625 8.53906 3.87109 8.78516C4.36328 9.33203 5.34766 9.6875 6.25 9.6875C7.04297 9.6875 7.83594 9.35938 8.38281 8.78516C8.62891 8.53906 9.09375 8.53906 9.33984 8.78516C9.88672 9.35938 10.6797 9.6875 11.5 9.6875C12.293 9.6875 13.0859 9.35938 13.6328 8.78516C13.8789 8.53906 14.3438 8.53906 14.5898 8.78516C15.0547 9.27734 15.6289 9.60547 16.2031 9.71484ZM16.2031 5.77734C16.5586 5.83203 16.7773 6.16016 16.7227 6.54297C16.668 6.84375 16.3945 7.0625 16.0938 7.0625C16.0391 7.0625 16.0117 7.0625 15.957 7.0625C15.3008 6.95312 14.6719 6.65234 14.0977 6.1875C12.6211 7.33594 10.3516 7.33594 8.875 6.1875C8.10938 6.76172 7.17969 7.0625 6.25 7.0625C5.23828 7.0625 4.19922 6.73438 3.43359 6.21484C2.96875 6.59766 2.47656 6.92578 1.76562 7.0625C1.41016 7.11719 1.05469 6.89844 1 6.54297C0.945312 6.16016 1.16406 5.83203 1.51953 5.77734C2.06641 5.66797 2.39453 5.39453 2.91406 4.84766C3.16016 4.60156 3.625 4.60156 3.87109 4.84766C4.36328 5.39453 5.34766 5.75 6.25 5.75C7.04297 5.75 7.83594 5.42188 8.38281 4.84766C8.62891 4.60156 9.09375 4.60156 9.33984 4.84766C9.88672 5.42188 10.6797 5.75 11.5 5.75C12.293 5.75 13.0859 5.42188 13.6328 4.84766C13.8789 4.60156 14.3438 4.60156 14.5898 4.84766C15.0547 5.33984 15.6289 5.66797 16.2031 5.77734ZM1.76562 3.125C1.41016 3.17969 1.05469 2.96094 1 2.60547C0.945312 2.25 1.16406 1.89453 1.51953 1.83984C2.06641 1.73047 2.39453 1.45703 2.91406 0.910156C3.16016 0.664062 3.625 0.664062 3.87109 0.910156C4.36328 1.45703 5.34766 1.8125 6.25 1.8125C7.04297 1.8125 7.83594 1.48438 8.38281 0.910156C8.62891 0.664062 9.09375 0.664062 9.33984 0.910156C9.88672 1.48438 10.6797 1.8125 11.5 1.8125C12.293 1.8125 13.0859 1.48438 13.6328 0.910156C13.8789 0.664062 14.3438 0.664062 14.5898 0.910156C15.0547 1.40234 15.6289 1.73047 16.2031 1.83984C16.5586 1.89453 16.7773 2.25 16.7227 2.60547C16.668 2.90625 16.3945 3.125 16.0938 3.125C16.0391 3.125 16.0117 3.125 15.957 3.125C15.3008 3.01562 14.6719 2.71484 14.0977 2.25C12.6211 3.39844 10.3516 3.39844 8.875 2.25C8.10938 2.82422 7.17969 3.125 6.25 3.125C5.23828 3.125 4.19922 2.79688 3.43359 2.27734C2.96875 2.66016 2.47656 2.98828 1.76562 3.125Z" fill="#1C1C1C"/>
</svg>
