<svg width="15" height="10" viewBox="0 0 15 10" fill="none" xmlns="http://www.w3.org/2000/svg">
<path d="M14.0312 7.875C13.5312 7.78125 13.0703 7.52344 12.6484 7.10156C12.5391 6.99219 12.4062 6.9375 12.25 6.9375C12.0938 6.9375 11.9609 6.99219 11.8516 7.10156C11.3516 7.60156 10.7344 7.85938 10 7.875C9.26562 7.85938 8.64844 7.60156 8.14844 7.10156C8.03906 6.99219 7.90625 6.9375 7.75 6.9375C7.59375 6.9375 7.46094 6.99219 7.35156 7.10156C6.85156 7.60156 6.23438 7.85938 5.5 7.875C5.10938 7.875 4.73438 7.80469 4.375 7.66406C4 7.52344 3.69531 7.33594 3.46094 7.10156C3.35156 6.99219 3.21875 6.9375 3.0625 6.9375C2.90625 6.9375 2.77344 6.99219 2.66406 7.10156C2.44531 7.33594 2.24219 7.51562 2.05469 7.64062C1.88281 7.76562 1.6875 7.84375 1.46875 7.875C1.14062 7.96875 0.984375 8.1875 1 8.53125C1.09375 8.85938 1.3125 9.01562 1.65625 9C2.25 8.85938 2.72656 8.60938 3.08594 8.25C3.78906 8.73438 4.59375 8.98438 5.5 9C6.34375 8.98438 7.09375 8.73438 7.75 8.25C8.40625 8.73438 9.15625 8.97656 10 8.97656C10.8281 8.97656 11.5781 8.73438 12.25 8.25C12.7344 8.64062 13.2656 8.89062 13.8438 9C13.875 9 13.9062 9 13.9375 9C14.2344 8.98438 14.4219 8.82812 14.5 8.53125C14.5156 8.1875 14.3594 7.96875 14.0312 7.875ZM14.0312 4.5C13.5312 4.40625 13.0703 4.14844 12.6484 3.72656C12.5391 3.61719 12.4062 3.5625 12.25 3.5625C12.0938 3.5625 11.9609 3.61719 11.8516 3.72656C11.3516 4.22656 10.7344 4.48438 10 4.5C9.26562 4.48438 8.64844 4.22656 8.14844 3.72656C8.03906 3.61719 7.90625 3.5625 7.75 3.5625C7.59375 3.5625 7.46094 3.61719 7.35156 3.72656C6.85156 4.22656 6.23438 4.48438 5.5 4.5C5.10938 4.5 4.73438 4.42969 4.375 4.28906C4 4.14844 3.69531 3.96094 3.46094 3.72656C3.35156 3.61719 3.21875 3.5625 3.0625 3.5625C2.90625 3.5625 2.77344 3.61719 2.66406 3.72656C2.44531 3.96094 2.24219 4.14062 2.05469 4.26562C1.88281 4.39062 1.6875 4.46875 1.46875 4.5C1.14062 4.59375 0.984375 4.8125 1 5.15625C1.09375 5.48438 1.3125 5.64062 1.65625 5.625C2.25 5.48438 2.72656 5.23438 3.08594 4.875C3.78906 5.35938 4.59375 5.60938 5.5 5.625C6.34375 5.60938 7.09375 5.35938 7.75 4.875C8.42188 5.35938 9.17188 5.60156 10 5.60156C10.8281 5.60156 11.5781 5.35938 12.25 4.875C12.7344 5.26562 13.2656 5.51562 13.8438 5.625C13.875 5.625 13.9062 5.625 13.9375 5.625C14.2344 5.60938 14.4219 5.45312 14.5 5.15625C14.5156 4.8125 14.3594 4.59375 14.0312 4.5ZM1.65625 2.25C2.25 2.10938 2.72656 1.85938 3.08594 1.5C3.78906 1.98438 4.59375 2.23438 5.5 2.25C6.34375 2.23438 7.09375 1.98438 7.75 1.5C8.42188 1.98438 9.17188 2.22656 10 2.22656C10.8281 2.22656 11.5781 1.98438 12.25 1.5C12.7344 1.89062 13.2656 2.14062 13.8438 2.25C13.875 2.25 13.9062 2.25 13.9375 2.25C14.2344 2.23438 14.4219 2.07812 14.5 1.78125C14.5156 1.4375 14.3594 1.21875 14.0312 1.125C13.5312 1.03125 13.0703 0.773438 12.6484 0.351562C12.5391 0.242188 12.4062 0.1875 12.25 0.1875C12.0938 0.1875 11.9609 0.242188 11.8516 0.351562C11.3516 0.851562 10.7344 1.10938 10 1.125C9.26562 1.10938 8.64844 0.851562 8.14844 0.351562C8.03906 0.242188 7.90625 0.1875 7.75 0.1875C7.59375 0.1875 7.46094 0.242188 7.35156 0.351562C6.85156 0.851562 6.23438 1.10938 5.5 1.125C5.10938 1.125 4.73438 1.05469 4.375 0.914062C4 0.773438 3.69531 0.585938 3.46094 0.351562C3.35156 0.242188 3.21875 0.1875 3.0625 0.1875C2.90625 0.1875 2.77344 0.242188 2.66406 0.351562C2.44531 0.585938 2.24219 0.765625 2.05469 0.890625C1.88281 1.01562 1.6875 1.09375 1.46875 1.125C1.14062 1.21875 0.984375 1.4375 1 1.78125C1.09375 2.10938 1.3125 2.26562 1.65625 2.25Z" fill="black" fill-opacity="0.4"/>
</svg>
