<svg width="15" height="11" viewBox="0 0 15 11" fill="none" xmlns="http://www.w3.org/2000/svg">
<path d="M8.3125 6.4375C8.28125 6.78125 8.08594 6.96875 7.72656 7C7.57031 7 7.4375 6.94531 7.32812 6.83594C7.21875 6.72656 7.16406 6.59375 7.16406 6.4375V4.5625C7.16406 4.40625 7.21875 4.27344 7.32812 4.16406C7.4375 4.05469 7.57031 4 7.72656 4C8.08594 4.03125 8.28125 4.21875 8.3125 4.5625V6.4375ZM10.1406 0.25C10.5 0.25 10.8281 0.351562 11.125 0.554688C11.4062 0.757812 11.6094 1.03125 11.7344 1.375L14.2891 8.5C14.4766 9.0625 14.4141 9.57031 14.1016 10.0234C13.7734 10.4766 13.3125 10.7188 12.7188 10.75H2.78125C2.1875 10.7188 1.72656 10.4766 1.39844 10.0234C1.08594 9.57031 1.02344 9.0625 1.21094 8.5L3.74219 1.375C3.88281 1.03125 4.09375 0.757812 4.375 0.554688C4.67188 0.351562 5 0.25 5.35938 0.25H10.1406ZM2.26562 8.875C2.20312 9.0625 2.22656 9.23438 2.33594 9.39062C2.42969 9.53125 2.57812 9.60938 2.78125 9.625H7.16406V9.0625C7.16406 8.90625 7.21875 8.77344 7.32812 8.66406C7.4375 8.55469 7.57031 8.5 7.72656 8.5C8.08594 8.53125 8.28125 8.71875 8.3125 9.0625V9.625H12.7188C12.9219 9.60938 13.0703 9.53125 13.1641 9.39062C13.2734 9.23438 13.2969 9.0625 13.2344 8.875L10.6797 1.75C10.5859 1.51562 10.4062 1.39062 10.1406 1.375H8.3125V1.9375C8.28125 2.28125 8.08594 2.46875 7.72656 2.5C7.57031 2.5 7.4375 2.44531 7.32812 2.33594C7.21875 2.22656 7.16406 2.09375 7.16406 1.9375V1.375H5.35938C5.09375 1.39062 4.91406 1.51562 4.82031 1.75L2.26562 8.875Z" fill="black" fill-opacity="0.4"/>
</svg>
