<svg width="17" height="13" viewBox="0 0 17 13" fill="none" xmlns="http://www.w3.org/2000/svg">
<path d="M9.53125 7.84375C9.53125 8.22656 9.23047 8.5 8.84766 8.5C8.49219 8.5 8.19141 8.22656 8.19141 7.84375V5.65625C8.19141 5.30078 8.49219 5 8.84766 5C9.23047 5 9.53125 5.30078 9.53125 5.65625V7.84375ZM11.6641 0.625C12.4844 0.625 13.2227 1.17188 13.5234 1.9375L16.5039 10.25C16.9688 11.5352 16.0117 12.875 14.6445 12.875H3.07812C1.71094 12.875 0.753906 11.5352 1.21875 10.25L4.19922 1.9375C4.5 1.17188 5.23828 0.625 6.05859 0.625H11.6641ZM2.44922 10.6875C2.3125 11.125 2.61328 11.5625 3.07812 11.5625H8.19141V10.9062C8.19141 10.5508 8.49219 10.25 8.84766 10.25C9.23047 10.25 9.53125 10.5508 9.53125 10.9062V11.5625H14.6445C15.1094 11.5625 15.4102 11.125 15.2734 10.6875L12.2656 2.375C12.1836 2.12891 11.9375 1.9375 11.6641 1.9375H9.53125V2.59375C9.53125 2.97656 9.23047 3.25 8.84766 3.25C8.49219 3.25 8.19141 2.97656 8.19141 2.59375V1.9375H6.05859C5.78516 1.9375 5.53906 2.12891 5.45703 2.375L2.44922 10.6875Z" fill="#1C1C1C"/>
</svg>
