<svg width="21" height="20" viewBox="0 0 21 20" fill="none" xmlns="http://www.w3.org/2000/svg">
<g id="Scroll">
<g id="Vector">
<path d="M14.5514 2.5H3.9264C3.58123 2.5 3.3014 2.77982 3.3014 3.125C3.3014 3.47018 3.58123 3.75 3.9264 3.75H14.5514C14.8025 3.74895 15.0322 3.84355 15.0322 3.84355C15.2619 3.93814 15.4376 4.11381 15.4376 4.11381C15.6133 4.28949 15.7079 4.51922 15.7079 4.51922C15.8025 4.74894 15.8014 4.99738 15.8014 4.99738L15.8014 13.75C15.8014 14.0952 16.0812 14.375 16.4264 14.375C16.7716 14.375 17.0514 14.0952 17.0514 13.75L17.0514 5.00262C17.0535 4.50418 16.8637 4.04328 16.8637 4.04328C16.6739 3.58238 16.3215 3.22993 16.3215 3.22993C15.969 2.87748 15.5081 2.6877 15.5081 2.6877C15.0472 2.49792 14.5514 2.5 14.5514 2.5Z" fill="#1C1C1C"/>
<path d="M8.9264 8.74998H13.9264C14.2716 8.74998 14.5514 8.47016 14.5514 8.12498C14.5514 7.7798 14.2716 7.49998 13.9264 7.49998H8.9264C8.58122 7.49998 8.3014 7.7798 8.3014 8.12498C8.3014 8.47016 8.58122 8.74998 8.9264 8.74998Z" fill="#1C1C1C"/>
<path d="M8.9264 11.25H13.9264C14.2716 11.25 14.5514 10.9702 14.5514 10.625C14.5514 10.2798 14.2716 9.99998 13.9264 9.99998H8.9264C8.58122 9.99998 8.3014 10.2798 8.3014 10.625C8.3014 10.9702 8.58122 11.25 8.9264 11.25Z" fill="#1C1C1C"/>
<path fill-rule="evenodd" clip-rule="evenodd" d="M7.37964 17.4813C7.37964 17.4813 7.51468 17.4975 7.64797 17.4994C7.65744 17.4998 7.66692 17.5 7.6764 17.5H16.4264C16.4264 17.5 17.1657 17.5004 17.7864 17.0983C17.7864 17.0983 18.4071 16.6962 18.7092 16.0212C18.7092 16.0212 19.0113 15.3461 18.8975 14.6153C18.8975 14.6153 18.7837 13.8846 18.2907 13.3333C18.1721 13.2008 18.0027 13.125 17.8248 13.125H9.07484C8.72966 13.125 8.44984 13.4048 8.44984 13.75C8.44984 13.9036 8.50639 14.0518 8.6087 14.1663C8.6087 14.1663 8.81412 14.3963 8.889 14.6955C8.889 14.6955 8.96388 14.9947 8.89102 15.2943C8.89102 15.2943 8.81816 15.594 8.61429 15.8254C8.61429 15.8254 8.41042 16.0567 8.12232 16.1668C8.12232 16.1668 7.83423 16.2768 7.52802 16.2402C7.52802 16.2402 7.22182 16.2036 6.96777 16.0287C6.96777 16.0287 6.71373 15.8539 6.57015 15.581C6.57015 15.581 6.42657 15.3081 6.4264 14.9997V5.00001C6.4264 5.00001 6.42607 4.3829 6.13892 3.83705C6.13892 3.83705 5.85176 3.29121 5.34367 2.94155C5.34367 2.94155 4.83558 2.5919 4.22317 2.51869C4.22317 2.51869 3.61076 2.44547 3.03456 2.6655C3.03456 2.6655 2.45837 2.88552 2.05063 3.3483C2.05063 3.3483 1.64289 3.81107 1.49717 4.41038C1.49717 4.41038 1.35146 5.0097 1.50121 5.60801C1.50121 5.60801 1.65097 6.20633 2.06182 6.66634C2.1804 6.79911 2.34996 6.87501 2.52797 6.87501C2.53777 6.87501 2.54758 6.87478 2.55738 6.87432C2.70068 6.86757 2.8373 6.81172 2.9443 6.71615C3.07706 6.59758 3.15297 6.42802 3.15297 6.25001C3.15297 6.2402 3.15274 6.23039 3.15227 6.2206C3.14552 6.07729 3.08968 5.94068 2.99411 5.83368C2.99411 5.83368 2.78869 5.60367 2.71381 5.30451C2.71381 5.30451 2.63893 5.00535 2.71179 4.7057C2.71179 4.7057 2.78465 4.40604 2.98852 4.17465C2.98852 4.17465 3.19239 3.94327 3.48048 3.83325C3.48048 3.83325 3.76858 3.72324 4.07479 3.75985C4.07479 3.75985 4.38099 3.79646 4.63504 3.97128C4.63504 3.97128 4.88908 4.14611 5.03266 4.41903C5.03266 4.41903 5.17624 4.69196 5.1764 5.00001V15.0003C5.1764 15.0003 5.17673 15.6171 5.46389 16.163C5.46389 16.163 5.75105 16.7088 6.25914 17.0585C6.25914 17.0585 6.76723 17.4081 7.37964 17.4813ZM16.4264 16.25H9.84207C9.84207 16.25 10.0196 15.9436 10.1056 15.5896C10.1056 15.5896 10.2513 14.9903 10.1016 14.392L10.0973 14.375H17.5109C17.5109 14.375 17.6258 14.5728 17.6624 14.8077C17.6624 14.8077 17.7193 15.1731 17.5683 15.5106C17.5683 15.5106 17.4172 15.8481 17.1069 16.0492C17.1069 16.0492 16.7965 16.2502 16.4264 16.25Z" fill="#1C1C1C"/>
</g>
</g>
</svg>
