<svg width="26" height="26" viewBox="0 0 26 26" fill="none" xmlns="http://www.w3.org/2000/svg">
<g id="ShareNetwork">
<g id="Vector">
<path fill-rule="evenodd" clip-rule="evenodd" d="M6.57059 8.98214C6.57059 8.98214 8.23484 8.98214 9.41165 10.1589C9.41165 10.1589 10.5884 11.3357 10.5884 13C10.5884 13 10.5884 14.6643 9.41165 15.8411C9.41165 15.8411 8.23484 17.0179 6.57059 17.0179C6.57059 17.0179 4.90634 17.0179 3.72954 15.8411C3.72954 15.8411 2.55273 14.6643 2.55273 13C2.55273 13 2.55273 11.3357 3.72954 10.1589C3.72954 10.1589 4.90634 8.98214 6.57059 8.98214ZM6.57059 10.5893C6.57059 10.5893 5.57204 10.5893 4.86596 11.2954C4.86596 11.2954 4.15988 12.0014 4.15988 13C4.15988 13 4.15988 13.9986 4.86596 14.7046C4.86596 14.7046 5.57204 15.4107 6.57059 15.4107C6.57059 15.4107 7.56914 15.4107 8.27522 14.7046C8.27522 14.7046 8.98131 13.9986 8.98131 13C8.98131 13 8.98131 12.0014 8.27522 11.2954C8.27522 11.2954 7.56914 10.5893 6.57059 10.5893Z" fill="#1C1C1C"/>
<path fill-rule="evenodd" clip-rule="evenodd" d="M17.8206 16.2143C17.8206 16.2143 19.4848 16.2143 20.6616 17.3911C20.6616 17.3911 21.8384 18.5679 21.8384 20.2321C21.8384 20.2321 21.8384 21.8964 20.6616 23.0732C20.6616 23.0732 19.4848 24.25 17.8206 24.25C17.8206 24.25 16.1563 24.25 14.9795 23.0732C14.9795 23.0732 13.8027 21.8964 13.8027 20.2321C13.8027 20.2321 13.8027 18.5679 14.9795 17.3911C14.9795 17.3911 16.1563 16.2143 17.8206 16.2143ZM17.8206 17.8214C17.8206 17.8214 16.822 17.8214 16.116 18.5275C16.116 18.5275 15.4099 19.2336 15.4099 20.2321C15.4099 20.2321 15.4099 21.2307 16.116 21.9368C16.116 21.9368 16.822 22.6429 17.8206 22.6429C17.8206 22.6429 18.8191 22.6429 19.5252 21.9368C19.5252 21.9368 20.2313 21.2307 20.2313 20.2321C20.2313 20.2321 20.2313 19.2336 19.5252 18.5275C19.5252 18.5275 18.8191 17.8214 17.8206 17.8214Z" fill="#1C1C1C"/>
<path fill-rule="evenodd" clip-rule="evenodd" d="M17.8206 1.75C17.8206 1.75 19.4848 1.75 20.6616 2.9268C20.6616 2.9268 21.8384 4.10361 21.8384 5.76786C21.8384 5.76786 21.8384 7.43211 20.6616 8.60891C20.6616 8.60891 19.4848 9.78571 17.8206 9.78571C17.8206 9.78571 16.1563 9.78571 14.9795 8.60891C14.9795 8.60891 13.8027 7.43211 13.8027 5.76786C13.8027 5.76786 13.8027 4.10361 14.9795 2.9268C14.9795 2.9268 16.1563 1.75 17.8206 1.75ZM17.8206 3.35714C17.8206 3.35714 16.822 3.35714 16.116 4.06322C16.116 4.06322 15.4099 4.76931 15.4099 5.76786C15.4099 5.76786 15.4099 6.76641 16.116 7.47249C16.116 7.47249 16.822 8.17857 17.8206 8.17857C17.8206 8.17857 18.8191 8.17857 19.5252 7.47249C19.5252 7.47249 20.2313 6.76641 20.2313 5.76786C20.2313 5.76786 20.2313 4.76931 19.5252 4.06322C19.5252 4.06322 18.8191 3.35714 17.8206 3.35714Z" fill="#1C1C1C"/>
<path d="M15.553 8.18168L15.5583 8.17824C15.7853 8.02982 15.9221 7.77689 15.9221 7.50566C15.9221 7.35162 15.8779 7.20083 15.7946 7.07124L15.7912 7.06594C15.6757 6.88939 15.4955 6.7653 15.2894 6.72046L15.2835 6.71919C15.2292 6.70782 15.174 6.70209 15.1186 6.70209C14.9645 6.70209 14.8137 6.74636 14.6842 6.82964L8.83843 10.5862C8.65914 10.7014 8.5327 10.8833 8.48739 11.0915C8.47518 11.1476 8.46902 11.2049 8.46902 11.2624L8.46937 11.2861C8.47368 11.432 8.51766 11.574 8.59657 11.6968C8.74441 11.9268 8.99911 12.0659 9.27259 12.0659C9.28417 12.0659 9.29574 12.0657 9.30731 12.0652C9.44942 12.059 9.58735 12.0153 9.70701 11.9384L15.553 8.18168Z" fill="#1C1C1C"/>
<path d="M14.6838 19.1703C14.8134 19.2536 14.9645 19.2981 15.1186 19.2981L15.1249 19.298C15.3961 19.2959 15.648 19.1571 15.7946 18.9289C15.8779 18.7993 15.9221 18.6485 15.9221 18.4945L15.9221 18.4882C15.92 18.217 15.7812 17.9651 15.553 17.8185L9.70701 14.0618C9.57742 13.9785 9.42663 13.9342 9.27259 13.9342L9.26627 13.9343C8.99505 13.9364 8.7432 14.0752 8.59657 14.3034C8.51329 14.433 8.46902 14.5838 8.46902 14.7378L8.46904 14.7441C8.47118 15.0153 8.60999 15.2672 8.83817 15.4138L14.6838 19.1703Z" fill="#1C1C1C"/>
</g>
</g>
</svg>
