<svg width="20" height="20" viewBox="0 0 20 20" fill="none" xmlns="http://www.w3.org/2000/svg">
<path d="M9.99606 12.7554C10.3352 12.7554 10.627 12.4683 10.627 12.1334V3.94284L10.5797 2.74657L11.1082 3.3128L12.307 4.60478C12.4175 4.73239 12.5752 4.79619 12.733 4.79619C13.0563 4.79619 13.3087 4.55693 13.3087 4.22995C13.3087 4.06247 13.2377 3.93487 13.1194 3.81524L10.4535 1.21533C10.2958 1.05583 10.1617 1 9.99606 1C9.83831 1 9.70423 1.05583 9.53859 1.21533L6.87268 3.81524C6.75437 3.93487 6.69127 4.06247 6.69127 4.22995C6.69127 4.55693 6.92789 4.79619 7.25915 4.79619C7.40901 4.79619 7.58254 4.73239 7.69296 4.60478L8.88394 3.3128L9.42028 2.74657L9.37296 3.94284V12.1334C9.37296 12.4683 9.6569 12.7554 9.99606 12.7554ZM5.47662 19H14.5234C16.1718 19 17 18.1706 17 16.5277V8.56845C17 6.92556 16.1718 6.09615 14.5234 6.09615H12.3228V7.38015H14.4997C15.2806 7.38015 15.7301 7.81081 15.7301 8.64023V16.4559C15.7301 17.2853 15.2806 17.716 14.4997 17.716H5.49239C4.70366 17.716 4.26986 17.2853 4.26986 16.4559V8.64023C4.26986 7.81081 4.70366 7.38015 5.49239 7.38015H7.67718V6.09615H5.47662C3.82817 6.09615 3 6.92556 3 8.56845V16.5277C3 18.1706 3.82817 19 5.47662 19Z" fill="#999999"/>
</svg>
