<svg width="28" height="28" viewBox="0 0 28 28" fill="none" xmlns="http://www.w3.org/2000/svg">
<g id="ShoppingCart">
<g id="Vector">
<path d="M3.72969 1.75H1.75C1.26675 1.75 0.875 2.14175 0.875 2.625C0.875 3.10825 1.26675 3.5 1.75 3.5H3.72132L6.7735 20.2816C6.84916 20.6976 7.21152 21 7.63438 21H20.125C20.6082 21 21 20.6082 21 20.125C21 19.6418 20.6082 19.25 20.125 19.25H8.36459L5.44432 3.19379C5.33383 2.57198 4.85171 2.16403 4.85171 2.16403C4.36959 1.75609 3.72969 1.75 3.72969 1.75Z" fill="#1C1C1C"/>
<path fill-rule="evenodd" clip-rule="evenodd" d="M8.75 19.25C8.75 19.25 10.0185 19.25 10.9155 20.147C10.9155 20.147 11.8125 21.044 11.8125 22.3125C11.8125 22.3125 11.8125 23.581 10.9155 24.478C10.9155 24.478 10.0185 25.375 8.75 25.375C8.75 25.375 7.48147 25.375 6.58449 24.478C6.58449 24.478 5.6875 23.581 5.6875 22.3125C5.6875 22.3125 5.6875 21.044 6.58449 20.147C6.58449 20.147 7.48147 19.25 8.75 19.25ZM8.75 21C8.75 21 8.20634 21 7.82192 21.3844C7.82192 21.3844 7.4375 21.7688 7.4375 22.3125C7.4375 22.3125 7.4375 22.8562 7.82192 23.2406C7.82192 23.2406 8.20634 23.625 8.75 23.625C8.75 23.625 9.29365 23.625 9.67808 23.2406C9.67808 23.2406 10.0625 22.8562 10.0625 22.3125C10.0625 22.3125 10.0625 21.7688 9.67808 21.3844C9.67808 21.3844 9.29366 21 8.75 21Z" fill="#1C1C1C"/>
<path fill-rule="evenodd" clip-rule="evenodd" d="M20.125 19.25C20.125 19.25 21.3935 19.25 22.2905 20.147C22.2905 20.147 23.1875 21.044 23.1875 22.3125C23.1875 22.3125 23.1875 23.581 22.2905 24.478C22.2905 24.478 21.3935 25.375 20.125 25.375C20.125 25.375 18.8565 25.375 17.9595 24.478C17.9595 24.478 17.0625 23.581 17.0625 22.3125C17.0625 22.3125 17.0625 21.044 17.9595 20.147C17.9595 20.147 18.8565 19.25 20.125 19.25ZM20.125 21C20.125 21 19.5813 21 19.1969 21.3844C19.1969 21.3844 18.8125 21.7688 18.8125 22.3125C18.8125 22.3125 18.8125 22.8562 19.1969 23.2406C19.1969 23.2406 19.5813 23.625 20.125 23.625C20.125 23.625 20.6687 23.625 21.0531 23.2406C21.0531 23.2406 21.4375 22.8562 21.4375 22.3125C21.4375 22.3125 21.4375 21.7688 21.0531 21.3844C21.0531 21.3844 20.6687 21 20.125 21Z" fill="#1C1C1C"/>
<path d="M23.625 6.125H5.25C4.76675 6.125 4.375 6.51675 4.375 7C4.375 7.48325 4.76675 7.875 5.25 7.875H22.576L21.4298 14.1602C21.3739 14.4728 21.1323 14.6744 21.1323 14.6744C20.8907 14.876 20.5761 14.875 20.5761 14.875L6.83594 14.875C6.35269 14.875 5.96094 15.2668 5.96094 15.75C5.96094 16.2332 6.35269 16.625 6.83594 16.625L20.5708 16.625C21.5226 16.6279 22.2535 16.0181 22.2535 16.0181C22.9843 15.4083 23.1514 14.4742 23.1514 14.4742L24.4858 7.15698C24.4952 7.10519 24.5 7.05265 24.5 7C24.5 6.51675 24.1082 6.125 23.625 6.125Z" fill="#1C1C1C"/>
</g>
</g>
</svg>
