<svg width="20" height="20" viewBox="0 0 20 20" fill="none" xmlns="http://www.w3.org/2000/svg">
<g id="ShoppingCart">
<path id="Vector" d="M17.4922 5.10938L16.5391 10.3359C16.4604 10.7677 16.2329 11.1582 15.8959 11.4394C15.559 11.7206 15.1342 11.8748 14.6953 11.875H5.63281L5.97656 13.75H14.375C14.7458 13.75 15.1084 13.86 15.4167 14.066C15.725 14.272 15.9654 14.5649 16.1073 14.9075C16.2492 15.2501 16.2863 15.6271 16.214 15.9908C16.1416 16.3545 15.963 16.6886 15.7008 16.9508C15.4386 17.213 15.1045 17.3916 14.7408 17.464C14.3771 17.5363 14.0001 17.4992 13.6575 17.3573C13.3149 17.2154 13.022 16.975 12.816 16.6667C12.61 16.3584 12.5 15.9958 12.5 15.625C12.5001 15.4119 12.5371 15.2004 12.6094 15H8.01562C8.08793 15.2004 8.12493 15.4119 8.125 15.625C8.12556 15.9275 8.05292 16.2257 7.91327 16.494C7.77362 16.7624 7.57112 16.993 7.32303 17.1661C7.07495 17.3392 6.78866 17.4498 6.4886 17.4883C6.18854 17.5267 5.88363 17.4921 5.59987 17.3872C5.31612 17.2823 5.06197 17.1103 4.8591 16.8859C4.65623 16.6615 4.51067 16.3913 4.43485 16.0984C4.35903 15.8056 4.3552 15.4987 4.42368 15.204C4.49216 14.9094 4.63092 14.6357 4.82812 14.4062L2.66406 2.5H1.25C1.08424 2.5 0.925268 2.43415 0.808058 2.31694C0.690848 2.19973 0.625 2.04076 0.625 1.875C0.625 1.70924 0.690848 1.55027 0.808058 1.43306C0.925268 1.31585 1.08424 1.25 1.25 1.25H2.66406C2.95581 1.25064 3.23815 1.35331 3.46216 1.54022C3.68617 1.72714 3.83775 1.98652 3.89062 2.27344L4.27344 4.375H16.875C16.9662 4.37519 17.0563 4.39561 17.1387 4.43478C17.2211 4.47396 17.2938 4.53092 17.3516 4.60156C17.412 4.66999 17.4561 4.75127 17.4804 4.83925C17.5048 4.92723 17.5088 5.01961 17.4922 5.10938Z" fill="#1C1C1C"/>
</g>
</svg>
