<svg width="21" height="20" viewBox="0 0 21 20" fill="none" xmlns="http://www.w3.org/2000/svg">
<path d="M17.1169 3.75H3.36694C3.02177 3.75 2.74194 4.02982 2.74194 4.375V15.625C2.74194 15.9702 3.02177 16.25 3.36694 16.25H17.1169C17.4621 16.25 17.7419 15.9702 17.7419 15.625V4.375C17.7419 4.02982 17.4621 3.75 17.1169 3.75Z" stroke="black" stroke-width="1.29738" stroke-linecap="round" stroke-linejoin="round"/>
<path d="M2.74194 6.25H17.7419" stroke="black" stroke-width="1.29738" stroke-linecap="round" stroke-linejoin="round"/>
<path d="M13.3669 8.75C13.3669 9.5788 13.0377 10.3737 12.4517 10.9597C11.8656 11.5458 11.0707 11.875 10.2419 11.875C9.41314 11.875 8.61829 11.5458 8.03223 10.9597C7.44618 10.3737 7.11694 9.5788 7.11694 8.75" stroke="black" stroke-width="1.29738" stroke-linecap="round" stroke-linejoin="round"/>
</svg>
