<svg width="25" height="24" viewBox="0 0 25 24" fill="none" xmlns="http://www.w3.org/2000/svg">
<path d="M6.84961 21.375C6.84961 21.9963 6.34593 22.5 5.72461 22.5C5.10329 22.5 4.59961 21.9963 4.59961 21.375C4.59961 20.7537 5.10329 20.25 5.72461 20.25C6.34593 20.25 6.84961 20.7537 6.84961 21.375Z" fill="#1C1C1C"/>
<path d="M9.47461 18.75C9.47461 19.3713 8.97093 19.875 8.34961 19.875C7.72829 19.875 7.22461 19.3713 7.22461 18.75C7.22461 18.1287 7.72829 17.625 8.34961 17.625C8.97093 17.625 9.47461 18.1287 9.47461 18.75Z" fill="#1C1C1C"/>
<path d="M3.84961 18.375C3.84961 18.9963 3.34593 19.5 2.72461 19.5C2.10329 19.5 1.59961 18.9963 1.59961 18.375C1.59961 17.7537 2.10329 17.25 2.72461 17.25C3.34593 17.25 3.84961 17.7537 3.84961 18.375Z" fill="#1C1C1C"/>
<path d="M6.47461 15.75C6.47461 16.3713 5.97093 16.875 5.34961 16.875C4.72829 16.875 4.22461 16.3713 4.22461 15.75C4.22461 15.1287 4.72829 14.625 5.34961 14.625C5.97093 14.625 6.47461 15.1287 6.47461 15.75Z" fill="#1C1C1C"/>
<path fill-rule="evenodd" clip-rule="evenodd" d="M5.16154 8.01631L16.9893 6.04961L19.6036 3.4353C19.6036 3.4353 19.8154 3.22456 20.0901 3.11177C20.0901 3.11177 20.3647 2.99897 20.6616 3.00001L23.3496 3C23.7638 3 24.0996 3.33579 24.0996 3.75C24.0996 4.16422 23.7638 4.5 23.3496 4.5L20.6603 4.5L18.05 7.11027L16.0832 18.9386C16.0832 18.9386 16.0142 19.3558 15.7368 19.6758C15.7368 19.6758 15.4594 19.9957 15.0556 20.1234C15.0556 20.1234 14.6519 20.2511 14.2409 20.1487C14.2409 20.1487 13.83 20.0464 13.5333 19.7443L4.35052 10.5616C4.35052 10.5616 4.05319 10.2696 3.95086 9.85866C3.95086 9.85866 3.84853 9.44775 3.97619 9.04399C3.97619 9.04399 4.10385 8.64023 4.4238 8.36284C4.4238 8.36284 4.74376 8.08544 5.16154 8.01631ZM5.4064 9.49619L16.4377 7.66193L14.6035 18.6926L5.41118 9.50092L5.4064 9.49619Z" fill="#1C1C1C"/>
</svg>
