<svg width="14" height="14" viewBox="0 0 14 14" fill="none" xmlns="http://www.w3.org/2000/svg">
<path d="M6.43761 8.125V12.3438C6.43796 12.4548 6.40543 12.5635 6.34411 12.6561C6.2828 12.7487 6.19546 12.821 6.09308 12.8641C6.0237 12.8916 5.94976 12.9059 5.87511 12.9062C5.72574 12.9056 5.58231 12.8477 5.47433 12.7445L3.76574 11.0289L1.20636 13.5883C1.10136 13.6917 0.959978 13.7498 0.812611 13.75C0.663244 13.7494 0.519805 13.6915 0.41183 13.5883C0.306635 13.4828 0.247559 13.34 0.247559 13.191C0.247559 13.0421 0.306635 12.8992 0.41183 12.7937L2.9712 10.2344L1.25558 8.52578C1.17927 8.44445 1.12755 8.34318 1.1064 8.23368C1.08524 8.12418 1.09552 8.01093 1.13605 7.90703C1.17908 7.80466 1.25145 7.71731 1.34405 7.656C1.43664 7.59468 1.54531 7.56215 1.65636 7.5625H5.87511C6.0243 7.5625 6.16737 7.62176 6.27286 7.72725C6.37835 7.83274 6.43761 7.97582 6.43761 8.125ZM12.6251 0.25H3.06261C2.76424 0.25 2.47809 0.368526 2.26712 0.579505C2.05614 0.790483 1.93761 1.07663 1.93761 1.375V4.75C1.93761 4.89918 1.99687 5.04226 2.10236 5.14775C2.20785 5.25324 2.35093 5.3125 2.50011 5.3125C2.6493 5.3125 2.79237 5.25324 2.89786 5.14775C3.00335 5.04226 3.06261 4.89918 3.06261 4.75V1.375H12.6251V10.9375H9.25011C9.10093 10.9375 8.95785 10.9968 8.85236 11.1023C8.74687 11.2077 8.68761 11.3508 8.68761 11.5C8.68761 11.6492 8.74687 11.7923 8.85236 11.8977C8.95785 12.0032 9.10093 12.0625 9.25011 12.0625H12.6251C12.9235 12.0625 13.2096 11.944 13.4206 11.733C13.6316 11.522 13.7501 11.2359 13.7501 10.9375V1.375C13.7501 1.07663 13.6316 0.790483 13.4206 0.579505C13.2096 0.368526 12.9235 0.25 12.6251 0.25Z" fill="#1C1C1C"/>
</svg>
