<svg width="17" height="18" viewBox="0 0 17 18" fill="none" xmlns="http://www.w3.org/2000/svg">
<path d="M8.12509 10.3504V15.4129C8.1255 15.5462 8.08646 15.6766 8.01289 15.7877C7.93932 15.8988 7.8345 15.9856 7.71165 16.0373C7.62839 16.0703 7.53967 16.0875 7.45009 16.0879C7.27084 16.0871 7.09872 16.0177 6.96915 15.8938L4.91883 13.8351L1.84758 16.9063C1.72159 17.0304 1.55192 17.1001 1.37508 17.1004C1.19584 17.0996 1.02372 17.0302 0.894147 16.9063C0.767913 16.7798 0.697021 16.6083 0.697021 16.4296C0.697021 16.2509 0.767913 16.0794 0.894147 15.9529L3.9654 12.8816L1.90665 10.8313C1.81508 10.7337 1.75301 10.6122 1.72763 10.4808C1.70224 10.3494 1.71458 10.2135 1.76321 10.0888C1.81485 9.96598 1.9017 9.86116 2.01281 9.78759C2.12392 9.71401 2.25432 9.67497 2.38758 9.67539H7.45009C7.62911 9.67539 7.8008 9.74651 7.92738 9.87309C8.05397 9.99968 8.12509 10.1714 8.12509 10.3504ZM15.5501 0.900391H4.07508C3.71704 0.900391 3.37366 1.04262 3.12049 1.2958C2.86732 1.54897 2.72508 1.89235 2.72508 2.25039V6.30039C2.72508 6.47941 2.7962 6.6511 2.92279 6.77769C3.04937 6.90427 3.22106 6.97539 3.40008 6.97539C3.57911 6.97539 3.75079 6.90427 3.87738 6.77769C4.00397 6.6511 4.07508 6.47941 4.07508 6.30039V2.25039H15.5501V13.7254H11.5001C11.3211 13.7254 11.1494 13.7965 11.0228 13.9231C10.8962 14.0497 10.8251 14.2214 10.8251 14.4004C10.8251 14.5794 10.8962 14.7511 11.0228 14.8777C11.1494 15.0043 11.3211 15.0754 11.5001 15.0754H15.5501C15.9081 15.0754 16.2515 14.9332 16.5047 14.68C16.7579 14.4268 16.9001 14.0834 16.9001 13.7254V2.25039C16.9001 1.89235 16.7579 1.54897 16.5047 1.2958C16.2515 1.04262 15.9081 0.900391 15.5501 0.900391Z" fill="#1C1C1C" fill-opacity="0.4"/>
</svg>
