<svg width="17" height="14" viewBox="0 0 17 14" fill="none" xmlns="http://www.w3.org/2000/svg">
<path d="M5.2258 10.5976H3.02699V8.39881C3.02699 8.07398 2.75214 7.79913 2.42731 7.79913C2.0775 7.79913 1.82764 8.07398 1.82764 8.39881V11.1973C1.82764 11.5471 2.0775 11.797 2.42731 11.797H5.2258C5.55063 11.797 5.82548 11.5471 5.82548 11.1973C5.82548 10.8725 5.55063 10.5976 5.2258 10.5976ZM5.2258 2.20215H2.42731C2.0775 2.20215 1.82764 2.477 1.82764 2.80183V5.60032C1.82764 5.95013 2.0775 6.19999 2.42731 6.19999C2.75214 6.19999 3.02699 5.95013 3.02699 5.60032V3.4015H5.2258C5.55063 3.4015 5.82548 3.15164 5.82548 2.80183C5.82548 2.477 5.55063 2.20215 5.2258 2.20215ZM14.0211 2.20215H11.2226C10.8728 2.20215 10.6229 2.477 10.6229 2.80183C10.6229 3.15164 10.8728 3.4015 11.2226 3.4015H13.4214V5.60032C13.4214 5.95013 13.6713 6.19999 14.0211 6.19999C14.3459 6.19999 14.6207 5.95013 14.6207 5.60032V2.80183C14.6207 2.477 14.3459 2.20215 14.0211 2.20215ZM14.0211 7.79913C13.6713 7.79913 13.4214 8.07398 13.4214 8.39881V10.5976H11.2226C10.8728 10.5976 10.6229 10.8725 10.6229 11.1973C10.6229 11.5471 10.8728 11.797 11.2226 11.797H14.0211C14.3459 11.797 14.6207 11.5471 14.6207 11.1973V8.39881C14.6207 8.07398 14.3459 7.79913 14.0211 7.79913Z" fill="#1C1C1C"/>
</svg>
