<svg width="30" height="28" viewBox="0 0 30 28" fill="none" xmlns="http://www.w3.org/2000/svg">
<path d="M2.12244 6C2.12244 3.79086 3.9133 2 6.12244 2H23.5918C25.801 2 27.5918 3.79086 27.5918 6V22C27.5918 24.2091 25.801 26 23.5918 26H6.12244C3.9133 26 2.12244 24.2091 2.12244 22V6Z" fill="#F2F2F2"/>
<path d="M8.55128 17.3081C8.42402 17.1908 8.25142 17.125 8.07145 17.125C7.89149 17.125 7.71889 17.1908 7.59163 17.3081C7.46438 17.4253 7.39288 17.5842 7.39288 17.75C7.39288 17.9158 7.46438 18.0747 7.59163 18.1919L10.3059 20.6919C10.4332 20.8092 10.6058 20.875 10.7857 20.875C10.9657 20.875 11.1383 20.8092 11.2656 20.6919L13.9796 18.1922L13.9798 18.1919C14.1071 18.0747 14.1786 17.9158 14.1786 17.75C14.1786 17.5842 14.1071 17.4253 13.9798 17.3081C13.8526 17.1908 13.68 17.125 13.5 17.125C13.3201 17.125 13.1475 17.1908 13.0202 17.3081L13.0199 17.3083L10.7857 19.3661L8.55128 17.3081Z" fill="#1C1C1C"/>
<path d="M10.1071 7.75V20.25C10.1071 20.5952 10.4109 20.875 10.7857 20.875C11.1605 20.875 11.4643 20.5952 11.4643 20.25V7.75C11.4643 7.40482 11.1605 7.125 10.7857 7.125C10.4109 7.125 10.1071 7.40482 10.1071 7.75Z" fill="#1C1C1C"/>
<path d="M21.1627 10.6916L21.163 10.6919C21.2903 10.8092 21.4629 10.875 21.6428 10.875C21.8228 10.875 21.9954 10.8092 22.1227 10.6919C22.2499 10.5747 22.3214 10.4158 22.3214 10.25C22.3214 10.0842 22.2499 9.92527 22.1227 9.80806L19.4084 7.30806C19.2811 7.19085 19.1085 7.125 18.9286 7.125C18.7486 7.125 18.576 7.19085 18.4487 7.30806L15.7345 9.80806C15.6072 9.92527 15.5357 10.0842 15.5357 10.25C15.5357 10.26 15.536 10.27 15.5365 10.28C15.5446 10.4352 15.6152 10.5821 15.7345 10.6919C15.8617 10.8092 16.0343 10.875 16.2143 10.875C16.3942 10.875 16.5668 10.8092 16.6941 10.6919L16.6944 10.6917L18.9286 8.63388L21.1627 10.6916Z" fill="#1C1C1C"/>
<path d="M19.6071 20.25V7.75C19.6071 7.40482 19.3033 7.125 18.9286 7.125C18.5538 7.125 18.25 7.40482 18.25 7.75V20.25C18.25 20.5952 18.5538 20.875 18.9286 20.875C19.3033 20.875 19.6071 20.5952 19.6071 20.25Z" fill="#1C1C1C"/>
</svg>
