<svg width="28" height="28" viewBox="0 0 28 28" fill="none" xmlns="http://www.w3.org/2000/svg">
<g id="Sparkle">
<path id="Vector" d="M22.8486 15.75C22.8513 16.1089 22.7421 16.4596 22.5363 16.7536C22.3305 17.0476 22.0383 17.2703 21.7002 17.3906L15.9908 19.4906L13.8908 25.2C13.7665 25.5349 13.5427 25.8238 13.2494 26.0277C12.9561 26.2317 12.6074 26.341 12.2502 26.341C11.893 26.341 11.5443 26.2317 11.251 26.0277C10.9577 25.8238 10.7339 25.5349 10.6096 25.2L8.50958 19.4906L2.80021 17.3906C2.4653 17.2663 2.17645 17.0425 1.97248 16.7492C1.76851 16.4559 1.65918 16.1072 1.65918 15.75C1.65918 15.3928 1.76851 15.0441 1.97248 14.7508C2.17645 14.4575 2.4653 14.2337 2.80021 14.1094L8.50958 12.0094L10.6096 6.3C10.7339 5.96509 10.9577 5.67625 11.251 5.47228C11.5443 5.2683 11.893 5.15897 12.2502 5.15897C12.6074 5.15897 12.9561 5.2683 13.2494 5.47228C13.5427 5.67625 13.7665 5.96509 13.8908 6.3L15.9908 12.0094L21.7002 14.1094C22.0383 14.2297 22.3305 14.4524 22.5363 14.7464C22.7421 15.0404 22.8513 15.3911 22.8486 15.75ZM16.6252 5.25H18.3752V7C18.3752 7.23206 18.4674 7.45462 18.6315 7.61872C18.7956 7.78281 19.0181 7.875 19.2502 7.875C19.4823 7.875 19.7048 7.78281 19.8689 7.61872C20.033 7.45462 20.1252 7.23206 20.1252 7V5.25H21.8752C22.1073 5.25 22.3298 5.15781 22.4939 4.99372C22.658 4.82962 22.7502 4.60706 22.7502 4.375C22.7502 4.14294 22.658 3.92038 22.4939 3.75628C22.3298 3.59219 22.1073 3.5 21.8752 3.5H20.1252V1.75C20.1252 1.51794 20.033 1.29538 19.8689 1.13128C19.7048 0.967187 19.4823 0.875 19.2502 0.875C19.0181 0.875 18.7956 0.967187 18.6315 1.13128C18.4674 1.29538 18.3752 1.51794 18.3752 1.75V3.5H16.6252C16.3931 3.5 16.1706 3.59219 16.0065 3.75628C15.8424 3.92038 15.7502 4.14294 15.7502 4.375C15.7502 4.60706 15.8424 4.82962 16.0065 4.99372C16.1706 5.15781 16.3931 5.25 16.6252 5.25ZM26.2502 8.75H25.3752V7.875C25.3752 7.64294 25.283 7.42038 25.1189 7.25628C24.9548 7.09219 24.7323 7 24.5002 7C24.2681 7 24.0456 7.09219 23.8815 7.25628C23.7174 7.42038 23.6252 7.64294 23.6252 7.875V8.75H22.7502C22.5181 8.75 22.2956 8.84219 22.1315 9.00628C21.9674 9.17038 21.8752 9.39293 21.8752 9.625C21.8752 9.85707 21.9674 10.0796 22.1315 10.2437C22.2956 10.4078 22.5181 10.5 22.7502 10.5H23.6252V11.375C23.6252 11.6071 23.7174 11.8296 23.8815 11.9937C24.0456 12.1578 24.2681 12.25 24.5002 12.25C24.7323 12.25 24.9548 12.1578 25.1189 11.9937C25.283 11.8296 25.3752 11.6071 25.3752 11.375V10.5H26.2502C26.4823 10.5 26.7048 10.4078 26.8689 10.2437C27.033 10.0796 27.1252 9.85707 27.1252 9.625C27.1252 9.39293 27.033 9.17038 26.8689 9.00628C26.7048 8.84219 26.4823 8.75 26.2502 8.75Z" fill="#5E52FF"/>
</g>
</svg>
