<svg width="26" height="26" viewBox="0 0 26 26" fill="none" xmlns="http://www.w3.org/2000/svg">
<path fill-rule="evenodd" clip-rule="evenodd" d="M4.1543 5.69081C4.1543 5.69081 4.1543 5.05355 4.6049 4.60295C4.6049 4.60295 5.05551 4.15234 5.69276 4.15234H20.3081C20.3081 4.15234 20.9454 4.15234 21.396 4.60295C21.396 4.60295 21.8466 5.05355 21.8466 5.69081V20.3062C21.8466 20.3062 21.8466 20.9434 21.396 21.394C21.396 21.394 20.9454 21.8447 20.3081 21.8447H13.0005H5.69276C5.69276 21.8447 5.05551 21.8447 4.6049 21.394C4.6049 21.394 4.1543 20.9434 4.1543 20.3062V5.69081ZM5.69276 5.69081V20.3062H20.3081V5.69081H5.69276Z" fill="#1C1C1C"/>
<path d="M21.0774 15.2308H4.92353C4.49869 15.2308 4.1543 15.5752 4.1543 16C4.1543 16.4248 4.49869 16.7692 4.92353 16.7692H21.0774C21.5022 16.7692 21.8466 16.4248 21.8466 16C21.8466 15.5752 21.5022 15.2308 21.0774 15.2308Z" fill="#1C1C1C"/>
</svg>
