<svg width="20" height="20" viewBox="0 0 20 20" fill="none" xmlns="http://www.w3.org/2000/svg">
<rect width="20" height="20" rx="10" fill="#14AE5C"/>
<path d="M15.875 11.9L12.9438 10.65C12.7925 10.5822 12.6265 10.5541 12.4613 10.5683C12.2962 10.5825 12.1374 10.6386 12 10.7313L10.4312 11.775C9.47516 11.3106 8.70105 10.5409 8.23125 9.5875L9.26875 8C9.36078 7.86243 9.41698 7.70404 9.43226 7.53923C9.44754 7.37442 9.42141 7.20841 9.35625 7.05626L8.1 4.125C8.01234 3.92708 7.86391 3.76222 7.67624 3.65433C7.48856 3.54645 7.2714 3.50115 7.05625 3.525C6.21225 3.63557 5.43711 4.04886 4.87495 4.68804C4.3128 5.32722 4.00188 6.14879 4 7.00001C4 11.9625 8.0375 16 13 16C13.8512 15.9981 14.6728 15.6872 15.312 15.1251C15.9511 14.5629 16.3644 13.7878 16.475 12.9438C16.4989 12.7286 16.4536 12.5114 16.3457 12.3238C16.2378 12.1361 16.0729 11.9877 15.875 11.9Z" fill="#F7F9FB"/>
<path d="M11.8375 4.98125C12.5986 5.18917 13.2923 5.59195 13.8502 6.14983C14.4081 6.70772 14.8108 7.40142 15.0188 8.1625C15.0463 8.26935 15.1085 8.36407 15.1956 8.4319C15.2826 8.49974 15.3897 8.53686 15.5 8.5375C15.5444 8.53741 15.5886 8.5311 15.6313 8.51875C15.6948 8.50212 15.7544 8.47297 15.8066 8.43301C15.8587 8.39305 15.9024 8.34309 15.935 8.28605C15.9676 8.229 15.9884 8.16603 15.9964 8.10081C16.0043 8.03559 15.9992 7.96945 15.9813 7.90625C15.7313 6.97417 15.2405 6.12428 14.5581 5.44191C13.8757 4.75955 13.0258 4.26873 12.0938 4.01875C12.0285 3.99498 11.9591 3.98506 11.8898 3.98962C11.8206 3.99417 11.753 4.01309 11.6914 4.04519C11.6299 4.07728 11.5757 4.12183 11.5323 4.17602C11.4889 4.2302 11.4573 4.29283 11.4394 4.3599C11.4216 4.42698 11.4179 4.49704 11.4286 4.56563C11.4393 4.63421 11.4642 4.69982 11.5016 4.75827C11.539 4.81671 11.5882 4.86672 11.6461 4.90511C11.7039 4.9435 11.7691 4.96943 11.8375 4.98125Z" fill="#F7F9FB"/>
<path d="M11.3187 6.9125C11.7418 7.02831 12.1274 7.25232 12.4375 7.56246C12.7477 7.87261 12.9717 8.2582 13.0875 8.68125C13.1141 8.78864 13.176 8.88398 13.2633 8.95198C13.3505 9.01998 13.4581 9.0567 13.5687 9.05625C13.6111 9.05667 13.6533 9.05034 13.6937 9.0375C13.7579 9.02156 13.8181 8.99291 13.871 8.95324C13.9238 8.91358 13.9682 8.86371 14.0014 8.80659C14.0346 8.74948 14.056 8.68627 14.0644 8.62073C14.0727 8.55518 14.0678 8.48863 14.05 8.425C13.8921 7.83095 13.5801 7.28916 13.1455 6.85452C12.7108 6.41989 12.169 6.10785 11.575 5.95C11.5098 5.92624 11.4403 5.91632 11.3711 5.92088C11.3018 5.92543 11.2342 5.94435 11.1727 5.97644C11.1111 6.00854 11.0569 6.05309 11.0135 6.10728C10.9702 6.16146 10.9385 6.22409 10.9207 6.29116C10.9028 6.35824 10.8991 6.4283 10.9098 6.49689C10.9205 6.56547 10.9454 6.63108 10.9828 6.68952C11.0203 6.74797 11.0695 6.79798 11.1273 6.83637C11.1851 6.87476 11.2503 6.90069 11.3187 6.9125Z" fill="#F7F9FB"/>
</svg>
