<svg width="25" height="24" viewBox="0 0 25 24" fill="none" xmlns="http://www.w3.org/2000/svg">
<path d="M11.2153 11.2543C11.234 11.2515 11.2532 11.25 11.2727 11.25H12.3687C12.7829 11.25 13.1187 10.9142 13.1187 10.5C13.1187 10.0858 12.7829 9.75 12.3687 9.75H11.2727C11.1787 9.75 11.0853 9.75701 10.9934 9.77076C10.8627 9.7903 10.7451 9.84243 10.6473 9.91766C10.5226 9.92372 10.3976 9.96107 10.2844 10.0324C10.2018 10.0845 10.1229 10.1437 10.049 10.21C9.97871 10.273 9.91396 10.3414 9.85542 10.4146C9.77102 10.5202 9.71977 10.6416 9.70028 10.7663C9.61573 10.8628 9.55486 10.9824 9.52871 11.1175C9.50976 11.2154 9.5 11.3155 9.5 11.4167V12.9881C9.5 13.4023 9.83579 13.7381 10.25 13.7381C10.6642 13.7381 11 13.4023 11 12.9881V11.4167C11 11.4121 11.0004 11.4074 11.0014 11.4025C11.0031 11.3938 11.0046 11.3852 11.0059 11.3765C11.0132 11.3682 11.0203 11.3598 11.0272 11.3511C11.0333 11.3434 11.0409 11.3353 11.0501 11.327C11.0599 11.3182 11.0713 11.3096 11.0843 11.3013C11.1041 11.2889 11.1231 11.2756 11.1413 11.2616C11.1658 11.2604 11.1905 11.258 11.2153 11.2543Z" fill="black"/>
<path d="M15.2908 9.75C14.8766 9.75 14.5408 10.0858 14.5408 10.5C14.5408 10.9142 14.8766 11.25 15.2908 11.25H17.4819C17.8961 11.25 18.2319 10.9142 18.2319 10.5C18.2319 10.0858 17.8961 9.75 17.4819 9.75H15.2908Z" fill="black"/>
<path fill-rule="evenodd" clip-rule="evenodd" d="M4.25 4.5C3.42157 4.5 2.75 5.17157 2.75 6V18C2.75 18.8284 3.42157 19.5 4.25 19.5H20.75C21.5784 19.5 22.25 18.8284 22.25 18V6C22.25 5.17157 21.5784 4.5 20.75 4.5H4.25ZM20.75 9.75H20.404C19.9898 9.75 19.654 10.0858 19.654 10.5C19.654 10.9142 19.9898 11.25 20.404 11.25H20.75V18H11V17.1786C11 16.7644 10.6642 16.4286 10.25 16.4286C9.83579 16.4286 9.5 16.7644 9.5 17.1786V18H4.25V6H20.75V9.75Z" fill="black"/>
</svg>
