<svg width="28" height="28" viewBox="0 0 28 28" fill="none" xmlns="http://www.w3.org/2000/svg">
<g id="SquaresFour">
<g id="Vector">
<path fill-rule="evenodd" clip-rule="evenodd" d="M4.375 12.25V5.25C4.375 4.76675 4.76675 4.375 5.25 4.375H12.25C12.7332 4.375 13.125 4.76675 13.125 5.25V12.25C13.125 12.7332 12.7332 13.125 12.25 13.125H5.25C4.76675 13.125 4.375 12.7332 4.375 12.25ZM11.375 11.375H6.125V6.125H11.375V11.375Z" fill="#1C1C1C"/>
<path fill-rule="evenodd" clip-rule="evenodd" d="M14.875 12.25V5.25C14.875 4.76675 15.2668 4.375 15.75 4.375H22.75C23.2332 4.375 23.625 4.76675 23.625 5.25V12.25C23.625 12.7332 23.2332 13.125 22.75 13.125H15.75C15.2668 13.125 14.875 12.7332 14.875 12.25ZM21.875 11.375H16.625V6.125H21.875V11.375Z" fill="#1C1C1C"/>
<path fill-rule="evenodd" clip-rule="evenodd" d="M4.375 22.75V15.75C4.375 15.2668 4.76675 14.875 5.25 14.875H12.25C12.7332 14.875 13.125 15.2668 13.125 15.75V22.75C13.125 23.2332 12.7332 23.625 12.25 23.625H5.25C4.76675 23.625 4.375 23.2332 4.375 22.75ZM11.375 21.875H6.125V16.625H11.375V21.875Z" fill="#1C1C1C"/>
<path fill-rule="evenodd" clip-rule="evenodd" d="M14.875 22.75V15.75C14.875 15.2668 15.2668 14.875 15.75 14.875H22.75C23.2332 14.875 23.625 15.2668 23.625 15.75V22.75C23.625 23.2332 23.2332 23.625 22.75 23.625H15.75C15.2668 23.625 14.875 23.2332 14.875 22.75ZM21.875 21.875H16.625V16.625H21.875V21.875Z" fill="#1C1C1C"/>
</g>
</g>
</svg>
