<svg width="30" height="30" viewBox="0 0 30 30" fill="none" xmlns="http://www.w3.org/2000/svg">
<path d="M9.58975 14.7492C9.38042 14.5491 9.10204 14.4375 8.8125 14.4375C8.81226 14.4375 8.78698 14.4378 8.78698 14.4378C8.48869 14.4446 8.20531 14.5695 7.99917 14.7853C7.79913 14.9946 7.6875 15.273 7.6875 15.5625L7.68779 15.588C7.69456 15.8863 7.81954 16.1697 8.03525 16.3758L12.1556 20.3133C12.5901 20.7286 13.2744 20.7289 13.7094 20.314L21.9638 12.4393C22.1797 12.2333 22.3052 11.9498 22.3122 11.6515C22.3126 11.6335 22.3126 11.6154 22.3122 11.5974C22.3053 11.3178 22.1945 11.0508 22.0015 10.8484C21.7892 10.6259 21.4951 10.5 21.1875 10.5L21.1557 10.5004C20.8776 10.5083 20.6123 10.6189 20.4109 10.811L12.9335 17.9445L9.58975 14.7492Z" fill="#999999"/>
<path fill-rule="evenodd" clip-rule="evenodd" d="M15 0.375C15 0.375 17.9747 0.375 20.6931 1.52477C20.6931 1.52477 23.3178 2.63495 25.3414 4.65856C25.3414 4.65856 27.3651 6.68218 28.4752 9.30694C28.4752 9.30694 29.625 12.0253 29.625 15C29.625 15 29.625 17.9747 28.4752 20.6931C28.4752 20.6931 27.3651 23.3178 25.3414 25.3414C25.3414 25.3414 23.3178 27.3651 20.6931 28.4752C20.6931 28.4752 17.9747 29.625 15 29.625C15 29.625 12.0253 29.625 9.30695 28.4752C9.30695 28.4752 6.68218 27.3651 4.65856 25.3414C4.65856 25.3414 2.63495 23.3178 1.52477 20.6931C1.52477 20.6931 0.375 17.9747 0.375 15C0.375 15 0.375 12.0253 1.52477 9.30694C1.52477 9.30694 2.63495 6.68217 4.65856 4.65856C4.65856 4.65856 6.68218 2.63495 9.30695 1.52477C9.30695 1.52477 12.0253 0.375 15 0.375ZM15 2.625C15 2.625 12.4816 2.625 10.1834 3.59703C10.1834 3.59703 7.96285 4.53625 6.24955 6.24955C6.24955 6.24955 4.53626 7.96285 3.59703 10.1834C3.59703 10.1834 2.625 12.4816 2.625 15C2.625 15 2.625 17.5184 3.59703 19.8166C3.59703 19.8166 4.53626 22.0371 6.24955 23.7504C6.24955 23.7504 7.96285 25.4637 10.1834 26.403C10.1834 26.403 12.4816 27.375 15 27.375C15 27.375 17.5184 27.375 19.8166 26.403C19.8166 26.403 22.0371 25.4637 23.7504 23.7504C23.7504 23.7504 25.4638 22.0371 26.403 19.8166C26.403 19.8166 27.375 17.5184 27.375 15C27.375 15 27.375 12.4816 26.403 10.1834C26.403 10.1834 25.4637 7.96285 23.7504 6.24955C23.7504 6.24955 22.0371 4.53625 19.8166 3.59703C19.8166 3.59703 17.5184 2.625 15 2.625Z" fill="#999999"/>
</svg>
