<svg width="10" height="10" viewBox="0 0 10 10" fill="none" xmlns="http://www.w3.org/2000/svg">
<path d="M1.06694 0.183058C0.822864 -0.0610194 0.427136 -0.0610194 0.183058 0.183058C-0.0610194 0.427136 -0.0610194 0.822864 0.183058 1.06694L3.71862 4.6025L0.183105 8.13801C-0.0609722 8.38209 -0.0609724 8.77782 0.183105 9.02189C0.427183 9.26597 0.822911 9.26597 1.06699 9.02189L4.6025 5.48638L8.13801 9.02189C8.38209 9.26597 8.77782 9.26597 9.02189 9.02189C9.26597 8.77782 9.26597 8.38209 9.02189 8.13801L5.48638 4.6025L9.02194 1.06694C9.26602 0.822865 9.26602 0.427137 9.02194 0.183059C8.77786 -0.0610185 8.38214 -0.0610185 8.13806 0.183059L4.6025 3.71862L1.06694 0.183058Z" fill="white"/>
</svg>
