<svg width="60" height="60" viewBox="0 0 60 60" fill="none" xmlns="http://www.w3.org/2000/svg">
<circle cx="30" cy="30" r="30" fill="#D9D9D9"/>
<path fill-rule="evenodd" clip-rule="evenodd" d="M18 20C18 20 18 19.1716 18.5858 18.5858C18.5858 18.5858 19.1716 18 20 18H40C40 18 40.8284 18 41.4142 18.5858C41.4142 18.5858 42 19.1716 42 20V40C42 40 42 40.8284 41.4142 41.4142C41.4142 41.4142 40.8284 42 40 42H20C20 42 19.1716 42 18.5858 41.4142C18.5858 41.4142 18 40.8284 18 40V20ZM20 20V40H40V20H20Z" fill="#F7F9FB"/>
<path d="M18.2933 35.2924C18.1057 35.4799 18 35.7347 18 35.9999C18 36.0159 18.0004 36.0319 18.0012 36.0479C18.0131 36.2962 18.1171 36.5312 18.2929 36.707C18.4804 36.8945 18.7348 36.9999 19 36.9999C19.2652 36.9999 19.5196 36.8945 19.7071 36.707L23.9946 32.4195C24 32.4141 24 32.4141 24 32.4141L26.5804 34.9945C26.8569 35.2753 27.2276 35.4305 27.2276 35.4305C27.5982 35.5857 28 35.5857 28 35.5857C28.4018 35.5857 28.7724 35.4305 28.7724 35.4305C29.1431 35.2753 29.425 34.9891 29.425 34.9891L34.9946 29.4195L35 29.4141L40.2929 34.707C40.4804 34.8945 40.7348 34.9999 41 34.9999C41.2652 34.9999 41.5196 34.8945 41.7071 34.707C41.8946 34.5195 42 34.2651 42 33.9999C42 33.7347 41.8946 33.4803 41.7071 33.2928L36.425 28.0107C36.1431 27.7244 35.7724 27.5692 35.7724 27.5692C35.4018 27.4141 35 27.4141 35 27.4141C34.5982 27.4141 34.2276 27.5692 34.2276 27.5692C33.8569 27.7244 33.5804 28.0053 33.5804 28.0053L28 33.5857L27.9946 33.5803L25.425 31.0107C25.1431 30.7244 24.7724 30.5692 24.7724 30.5692C24.4018 30.4141 24 30.4141 24 30.4141C23.5982 30.4141 23.2276 30.5692 23.2276 30.5692C22.8569 30.7244 22.5804 31.0053 22.5804 31.0053L18.2933 35.2924Z" fill="#F7F9FB"/>
<path d="M28 25.5C28 26.3284 27.3284 27 26.5 27C25.6716 27 25 26.3284 25 25.5C25 24.6716 25.6716 24 26.5 24C27.3284 24 28 24.6716 28 25.5Z" fill="#F7F9FB"/>
</svg>
