<svg width="85" height="72" viewBox="0 0 85 72" fill="none" xmlns="http://www.w3.org/2000/svg">
<path d="M78.25 0.25H6.75C5.02609 0.25 3.37279 0.934819 2.15381 2.15381C0.934819 3.37279 0.25 5.02609 0.25 6.75V65.25C0.25 66.9739 0.934819 68.6272 2.15381 69.8462C3.37279 71.0652 5.02609 71.75 6.75 71.75H78.25C79.9739 71.75 81.6272 71.0652 82.8462 69.8462C84.0652 68.6272 84.75 66.9739 84.75 65.25V6.75C84.75 5.02609 84.0652 3.37279 82.8462 2.15381C81.6272 0.934819 79.9739 0.25 78.25 0.25ZM78.25 6.75V48.4922L67.6591 37.9053C67.0555 37.3016 66.3388 36.8227 65.5501 36.4959C64.7614 36.1692 63.9161 36.001 63.0623 36.001C62.2086 36.001 61.3633 36.1692 60.5746 36.4959C59.7858 36.8227 59.0692 37.3016 58.4656 37.9053L50.3406 46.0303L32.4656 28.1553C31.2468 26.9372 29.5941 26.253 27.8709 26.253C26.1478 26.253 24.4951 26.9372 23.2763 28.1553L6.75 44.6816V6.75H78.25ZM6.75 53.875L27.875 32.75L60.375 65.25H6.75V53.875ZM78.25 65.25H69.5684L54.9434 50.625L63.0684 42.5L78.25 57.6856V65.25ZM49 24.625C49 23.6608 49.2859 22.7183 49.8216 21.9166C50.3573 21.1149 51.1186 20.4901 52.0094 20.1211C52.9002 19.7521 53.8804 19.6556 54.8261 19.8437C55.7717 20.0318 56.6404 20.4961 57.3221 21.1779C58.0039 21.8596 58.4682 22.7283 58.6563 23.6739C58.8444 24.6196 58.7479 25.5998 58.3789 26.4906C58.0099 27.3814 57.3851 28.1427 56.5834 28.6784C55.7817 29.2141 54.8392 29.5 53.875 29.5C52.5821 29.5 51.3421 28.9864 50.4279 28.0721C49.5136 27.1579 49 25.9179 49 24.625Z" fill="#999999"/>
</svg>
