<svg width="18" height="18" viewBox="0 0 18 18" fill="none" xmlns="http://www.w3.org/2000/svg">
<path fill-rule="evenodd" clip-rule="evenodd" d="M11.8465 2.26238C10.4873 1.6875 9 1.6875 9 1.6875C7.51265 1.6875 6.15347 2.26238 6.15347 2.26238C4.84109 2.81747 3.82928 3.82928 3.82928 3.82928C2.81748 4.84109 2.26238 6.15347 2.26238 6.15347C1.6875 7.51265 1.6875 9 1.6875 9C1.6875 10.4873 2.26238 11.8465 2.26238 11.8465C2.81747 13.1589 3.82928 14.1707 3.82928 14.1707C3.90704 14.2485 3.98657 14.3235 4.06715 14.3959C4.09662 14.4287 4.1301 14.4583 4.16709 14.4837C5.11036 15.2964 6.15347 15.7376 6.15347 15.7376C7.51265 16.3125 9 16.3125 9 16.3125C10.4873 16.3125 11.8465 15.7376 11.8465 15.7376C12.6786 15.3857 13.3899 14.8501 13.799 14.5053C13.8585 14.4704 13.9102 14.4253 13.9523 14.373C14.0928 14.2486 14.1707 14.1707 14.1707 14.1707C15.1825 13.1589 15.7376 11.8465 15.7376 11.8465C16.3125 10.4873 16.3125 9 16.3125 9C16.3125 7.51265 15.7376 6.15347 15.7376 6.15347C15.1825 4.84109 14.1707 3.82928 14.1707 3.82928C13.1589 2.81747 11.8465 2.26238 11.8465 2.26238ZM6.59172 14.7015C6.04988 14.4723 5.56846 14.151 5.21752 13.882C5.81067 12.9896 6.64596 12.4769 6.64596 12.4769C7.7291 11.8121 9 11.8125 9 11.8125C10.2709 11.8125 11.354 12.4769 11.354 12.4769C12.036 12.8955 12.5166 13.4997 12.7791 13.8899C12.0784 14.418 11.4083 14.7015 11.4083 14.7015C10.2592 15.1875 9 15.1875 9 15.1875C7.74079 15.1875 6.59172 14.7015 6.59172 14.7015ZM6.05746 11.5181C6.05746 11.5181 6.39649 11.3101 6.93432 11.1023C6.82429 11.0195 6.71668 10.9271 6.61351 10.824C6.61351 10.824 5.625 9.83547 5.625 8.4375C5.625 8.4375 5.625 7.03953 6.61351 6.05101C6.61351 6.05101 7.60203 5.0625 9 5.0625C9 5.0625 10.398 5.0625 11.3865 6.05101C11.3865 6.05101 12.375 7.03953 12.375 8.4375C12.375 8.4375 12.375 9.83547 11.3865 10.824C11.3865 10.824 11.2708 10.9397 11.0625 11.092C11.3547 11.2016 11.654 11.341 11.9425 11.5181C11.9425 11.5181 12.8853 12.0968 13.6153 13.1114C13.9039 12.7751 14.3886 12.148 14.7015 11.4083C14.7015 11.4083 15.1875 10.2592 15.1875 9C15.1875 9 15.1875 7.74079 14.7015 6.59172C14.7015 6.59172 14.2319 5.48143 13.3752 4.62478C13.3752 4.62478 12.5186 3.76813 11.4083 3.29851C11.4083 3.29851 10.2592 2.8125 9 2.8125C9 2.8125 7.74078 2.8125 6.59172 3.29851C6.59172 3.29851 5.48143 3.76813 4.62478 4.62478C4.62478 4.62478 3.76813 5.48143 3.29851 6.59172C3.29851 6.59172 2.8125 7.74078 2.8125 9C2.8125 9 2.8125 10.2592 3.29851 11.4083C3.29851 11.4083 3.68218 12.3154 4.38853 13.1224C4.73326 12.6405 5.2946 11.9864 6.05746 11.5181ZM10.591 10.0285C9.93198 10.6875 9 10.6875 9 10.6875C8.06802 10.6875 7.40901 10.0285 7.40901 10.0285C6.75 9.36948 6.75 8.4375 6.75 8.4375C6.75 7.50552 7.40901 6.84651 7.40901 6.84651C8.06802 6.1875 9 6.1875 9 6.1875C9.93198 6.1875 10.591 6.84651 10.591 6.84651C11.25 7.50552 11.25 8.4375 11.25 8.4375C11.25 9.36948 10.591 10.0285 10.591 10.0285Z" fill="black" fill-opacity="0.4"/>
</svg>
