<svg width="32" height="32" viewBox="0 0 32 32" fill="none" xmlns="http://www.w3.org/2000/svg">
<g id="UsersFour">
<path id="Vector" d="M3.2 14.3996C4.08498 13.2117 5.26589 12.2764 6.625 11.6871C5.8814 11.0068 5.36074 10.1177 5.1313 9.13635C4.90185 8.15498 4.97433 7.12718 5.33924 6.18772C5.70414 5.24826 6.34443 4.44101 7.17614 3.87181C8.00785 3.30261 8.99216 2.99805 10 2.99805C11.0078 2.99805 11.9921 3.30261 12.8239 3.87181C13.6556 4.44101 14.2959 5.24826 14.6608 6.18772C15.0257 7.12718 15.0981 8.15498 14.8687 9.13635C14.6393 10.1177 14.1186 11.0068 13.375 11.6871C14.3544 12.113 15.2449 12.7194 16 13.4746C16.7551 12.7194 17.6456 12.113 18.625 11.6871C17.8814 11.0068 17.3607 10.1177 17.1313 9.13635C16.9019 8.15498 16.9743 7.12718 17.3392 6.18772C17.7041 5.24826 18.3444 4.44101 19.1761 3.87181C20.0079 3.30261 20.9922 2.99805 22 2.99805C23.0078 2.99805 23.9921 3.30261 24.8239 3.87181C25.6556 4.44101 26.2959 5.24826 26.6608 6.18772C27.0257 7.12718 27.0981 8.15498 26.8687 9.13635C26.6393 10.1177 26.1186 11.0068 25.375 11.6871C26.7341 12.2764 27.915 13.2117 28.8 14.3996C28.8788 14.5047 28.9361 14.6242 28.9687 14.7515C29.0013 14.8787 29.0085 15.0111 28.99 15.1411C28.9714 15.2711 28.9274 15.3961 28.8605 15.5091C28.7936 15.6221 28.7051 15.7208 28.6 15.7996C28.3867 15.9556 28.1209 16.0219 27.8593 15.9846C27.5977 15.9472 27.3611 15.8091 27.2 15.5996C26.5945 14.7924 25.8095 14.1371 24.9069 13.6859C24.0043 13.2346 23.0091 12.9996 22 12.9996C20.9909 12.9996 19.9957 13.2346 19.0931 13.6859C18.1906 14.1371 17.4055 14.7924 16.8 15.5996L16.725 15.6746H16.7125L16.65 15.7371L16.6125 15.7621C16.6125 15.7655 16.6112 15.7686 16.6088 15.771C16.6065 15.7733 16.6033 15.7746 16.6 15.7746L16.5625 15.7996L16.525 15.8246L16.4625 15.8621H16.4375L16.225 15.9371H15.8125L15.7125 15.9121H15.675L15.5625 15.8621L15.525 15.8371C15.4847 15.8165 15.447 15.7914 15.4125 15.7621H15.4L15.3625 15.7246H15.3375C15.3125 15.6996 15.2875 15.6871 15.275 15.6621H15.2625L15.1875 15.5746C14.5808 14.7705 13.7956 14.1183 12.8937 13.6696C11.9918 13.2209 10.998 12.988 9.99063 12.9892C8.9833 12.9904 7.99003 13.2257 7.08922 13.6766C6.18841 14.1275 5.40472 14.7815 4.8 15.5871C4.70817 15.7136 4.58797 15.8168 4.44903 15.8885C4.3101 15.9601 4.15631 15.9982 4 15.9996C3.78318 16.0025 3.57176 15.932 3.4 15.7996C3.29494 15.7208 3.20643 15.6221 3.13953 15.5091C3.07262 15.3961 3.02862 15.2711 3.01005 15.1411C2.99148 15.0111 2.9987 14.8787 3.03129 14.7515C3.06388 14.6242 3.12121 14.5047 3.2 14.3996ZM25.375 24.6871C26.1186 24.0068 26.6393 23.1177 26.8687 22.1364C27.0981 21.155 27.0257 20.1272 26.6608 19.1877C26.2959 18.2483 25.6556 17.441 24.8239 16.8718C23.9921 16.3026 23.0078 15.998 22 15.998C20.9922 15.998 20.0079 16.3026 19.1761 16.8718C18.3444 17.441 17.7041 18.2483 17.3392 19.1877C16.9743 20.1272 16.9019 21.155 17.1313 22.1364C17.3607 23.1177 17.8814 24.0068 18.625 24.6871C17.6456 25.113 16.7551 25.7194 16 26.4746C15.2449 25.7194 14.3544 25.113 13.375 24.6871C14.1186 24.0068 14.6393 23.1177 14.8687 22.1364C15.0981 21.155 15.0257 20.1272 14.6608 19.1877C14.2959 18.2483 13.6556 17.441 12.8239 16.8718C11.9921 16.3026 11.0078 15.998 10 15.998C8.99216 15.998 8.00785 16.3026 7.17614 16.8718C6.34443 17.441 5.70414 18.2483 5.33924 19.1877C4.97433 20.1272 4.90185 21.155 5.1313 22.1364C5.36074 23.1177 5.8814 24.0068 6.625 24.6871C5.26589 25.2764 4.08498 26.2117 3.2 27.3996C3.08857 27.5482 3.02072 27.7249 3.00404 27.9098C2.98736 28.0948 3.02252 28.2807 3.10557 28.4468C3.18863 28.613 3.31629 28.7527 3.47427 28.8503C3.63225 28.9479 3.81429 28.9996 4 28.9996H28C28.1857 28.9996 28.3678 28.9479 28.5257 28.8503C28.6837 28.7527 28.8114 28.613 28.8944 28.4468C28.9775 28.2807 29.0126 28.0948 28.996 27.9098C28.9793 27.7249 28.9114 27.5482 28.8 27.3996C27.915 26.2117 26.7341 25.2764 25.375 24.6871Z" fill="#5E52FF"/>
</g>
</svg>
