<svg width="51" height="51" viewBox="0 0 51 51" fill="none" xmlns="http://www.w3.org/2000/svg">
<path d="M43.5226 22.0538C43.6807 23.0289 43.7592 24.0153 43.7574 25.0032C43.7579 28.7119 42.6587 32.3375 40.5987 35.4215C38.5386 38.5055 35.6104 40.9094 32.1842 42.3291C28.758 43.7489 24.9877 44.1207 21.3501 43.3977C17.7125 42.6747 14.3711 40.8893 11.7482 38.2672C9.1254 35.6451 7.339 32.3041 6.61495 28.6667C5.8909 25.0294 6.26171 21.259 7.6805 17.8324C9.09928 14.4058 11.5023 11.4768 14.5857 9.41591C17.6691 7.35502 21.2944 6.25474 25.0031 6.25422C25.991 6.25214 26.9774 6.33039 27.9526 6.4882" fill="url(#paint0_radial_1146_9113)"/>
<path d="M43.5226 22.0538C43.6807 23.0289 43.7592 24.0153 43.7574 25.0032C43.7579 28.7119 42.6587 32.3375 40.5987 35.4215C38.5386 38.5055 35.6104 40.9094 32.1842 42.3291C28.758 43.7489 24.9877 44.1207 21.3501 43.3977C17.7125 42.6747 14.3711 40.8893 11.7482 38.2672C9.1254 35.6451 7.339 32.3041 6.61495 28.6667C5.8909 25.0294 6.26171 21.259 7.6805 17.8324C9.09928 14.4058 11.5023 11.4768 14.5857 9.41591C17.6691 7.35502 21.2944 6.25474 25.0031 6.25422C25.991 6.25214 26.9774 6.33039 27.9526 6.4882" stroke="black" stroke-width="3.12528" stroke-linecap="round" stroke-linejoin="round"/>
<path d="M26 43.9998C19.2 44.7998 14.1667 40.6665 12.5 38.4998C19.5 29.9996 25 31.9998 28 31.4998C31 30.9998 34.5 34.9998 36.5 37.4998C38.5 39.9998 34.5 42.9998 26 43.9998Z" fill="url(#paint1_radial_1146_9113)"/>
<path d="M43.5226 22.0538C43.6807 23.0289 43.7592 24.0153 43.7574 25.0032C43.7579 28.7119 42.6587 32.3375 40.5987 35.4215C38.5386 38.5055 35.6104 40.9094 32.1842 42.3291C28.758 43.7489 24.9877 44.1207 21.3501 43.3977C17.7125 42.6747 14.3711 40.8893 11.7482 38.2672C9.1254 35.6451 7.339 32.3041 6.61495 28.6667C5.8909 25.0294 6.26171 21.259 7.6805 17.8324C9.09928 14.4058 11.5023 11.4768 14.5857 9.41591C17.6691 7.35502 21.2944 6.25474 25.0031 6.25422C25.991 6.25214 26.9774 6.33039 27.9526 6.4882" stroke="black" stroke-width="3.12528" stroke-linecap="round" stroke-linejoin="round"/>
<path d="M25.0066 31.2561C29.3217 31.2555 32.8193 27.7569 32.8186 23.4418C32.818 19.1267 29.3195 15.6291 25.0043 15.6298C20.6892 15.6304 17.1917 19.1289 17.1923 23.444C17.1929 27.7591 20.6915 31.2567 25.0066 31.2561Z" fill="#FFD6C0" stroke="black" stroke-width="3.12528" stroke-miterlimit="10"/>
<path d="M12.4676 38.954C13.643 36.6381 15.4368 34.6928 17.65 33.3339C19.8633 31.975 22.4096 31.2554 25.0067 31.2551C27.6039 31.2547 30.1504 31.9735 32.364 33.3318C34.5777 34.6901 36.3719 36.6349 37.548 38.9505" stroke="black" stroke-width="3.12528" stroke-linecap="round" stroke-linejoin="round"/>
<path d="M34.3796 10.9409L43.7555 10.9396" stroke="black" stroke-width="3.12528" stroke-linecap="round" stroke-linejoin="round"/>
<path d="M39.0669 6.25195L39.0682 15.6278" stroke="black" stroke-width="3.12528" stroke-linecap="round" stroke-linejoin="round"/>
<defs>
<radialGradient id="paint0_radial_1146_9113" cx="0" cy="0" r="1" gradientUnits="userSpaceOnUse" gradientTransform="translate(20.0001 32.5) rotate(-41.6335) scale(30.104 30.104)">
<stop stop-color="#E3F5FF"/>
<stop offset="1" stop-color="white" stop-opacity="0"/>
<stop offset="1" stop-color="white"/>
</radialGradient>
<radialGradient id="paint1_radial_1146_9113" cx="0" cy="0" r="1" gradientUnits="userSpaceOnUse" gradientTransform="translate(20.5 42.5) rotate(-41.3255) scale(38.6167 74.8481)">
<stop stop-color="#E3F5FF"/>
<stop offset="0.390625" stop-color="#FFD6C0"/>
</radialGradient>
</defs>
</svg>
