<svg width="24" height="25" viewBox="0 0 24 25" fill="none" xmlns="http://www.w3.org/2000/svg">
<path fill-rule="evenodd" clip-rule="evenodd" d="M23.3616 9.973C23.3616 9.973 23.661 10.2558 23.8271 10.6327C23.8271 10.6327 23.9932 11.0096 23.9999 11.4213L24 23C24 23 24 23.8285 23.4142 24.4142C23.4142 24.4142 22.8284 25 22 25H2C2 25 1.17157 25 0.585787 24.4142C0.585787 24.4142 0 23.8285 0 23V11.4375C0 11.4375 0.00679326 11.0096 0.172876 10.6327C0.172876 10.6327 0.338958 10.2558 0.638383 9.973L10.6525 0.872458C10.6525 0.872458 11.2232 0.350342 12 0.350342C12 0.350342 12.7768 0.350342 13.35 0.874707L23.3468 9.95932L23.3616 9.973ZM21.9905 11.4293L12 2.35034L11.9975 2.35259L2.01162 11.427C2.01162 11.427 2.00611 11.4322 2.00305 11.4392C2.00305 11.4392 2.00162 11.4424 2.00086 11.4423C2.00086 11.4423 2 11.4421 2 11.4376V23H22L22.0001 11.4537C22.0001 11.4537 22 11.4461 21.9969 11.4392C21.9969 11.4392 21.9945 11.4337 21.9905 11.4293Z" fill="#999999"/>
</svg>
