<svg width="40" height="40" viewBox="0 0 40 40" fill="none" xmlns="http://www.w3.org/2000/svg">
<path d="M27.3438 12.4531C26.8359 12.0234 24.8047 10.5391 20.3516 10.5391C20.3516 10.5391 15.0781 10.2266 12.5 12.5703C11.0547 14.0156 10.5469 16.0859 10.5078 18.7031C10.4688 21.2812 10.3906 26.1641 15.0781 27.4922V29.4844C15.0781 29.4844 15.0391 30.3047 15.5859 30.5C16.25 30.6953 16.6016 30.0703 17.2266 29.4062C17.5781 29.0156 18.0469 28.5078 18.3984 28.0781C21.6016 28.3516 24.0625 27.7266 24.375 27.6484C25 27.4141 28.6719 26.9453 29.2578 22.1016C29.8828 17.0625 28.9844 13.8984 27.3438 12.4531ZM27.8516 21.7109C27.3828 25.7734 24.375 26.0469 23.8281 26.2422C23.5938 26.2812 21.4453 26.8281 18.7109 26.6719C18.7109 26.6719 16.6797 29.0938 16.0547 29.7578C15.8594 29.9531 15.625 29.9531 15.625 29.5234C15.625 29.25 15.625 26.1641 15.625 26.1641C11.6797 25.0703 11.9141 20.9297 11.9531 18.7812C11.9922 16.5938 12.3828 14.8359 13.5938 13.625C15.7812 11.6328 20.2734 11.9453 20.2734 11.9453C24.0625 11.9453 25.8594 13.1172 26.2891 13.4688C27.6953 14.6797 28.3984 17.5312 27.8516 21.7109ZM22.4219 18.5859C22.4609 18.8984 21.9531 18.9375 21.9531 18.5859C21.875 17.7266 21.4844 17.3359 20.6641 17.2578C20.3125 17.2578 20.3516 16.75 20.7031 16.75C21.7969 16.8281 22.3828 17.4531 22.4219 18.5859ZM23.2422 19.0156C23.2812 17.375 22.2266 16.0469 20.2734 15.9297C19.9219 15.8906 19.9609 15.3828 20.3125 15.4219C22.5781 15.5781 23.7891 17.1406 23.75 19.0156C23.75 19.3672 23.2422 19.3281 23.2422 19.0156ZM25.0781 19.5234C25.0781 19.875 24.5703 19.875 24.5703 19.5234C24.5312 16.3594 22.4219 14.6406 19.8438 14.6016C19.5312 14.6016 19.5312 14.0938 19.8438 14.0938C22.7344 14.1328 25.0391 16.125 25.0781 19.5234ZM24.6094 23.3516V23.3906C24.2188 24.1328 23.3984 24.9531 22.6172 24.6797H22.5781C21.7578 24.4453 19.8438 23.4297 18.5938 22.4531C17.9688 21.9453 17.3828 21.3594 16.9531 20.8125C16.5625 20.3047 16.1328 19.7188 15.7422 18.9766C14.9219 17.4922 14.7266 16.7891 14.7266 16.7891C14.4531 16.0078 15.2734 15.1875 16.0156 14.7969H16.0547C16.4062 14.6016 16.7578 14.6406 16.9531 14.9531C16.9531 14.9531 17.4609 15.5 17.6562 15.8125C17.8516 16.0469 18.125 16.4766 18.2422 16.7109C18.4766 17.1406 18.3594 17.5703 18.125 17.7656L17.6562 18.1562C17.4219 18.3516 17.4219 18.7031 17.4219 18.7031C17.4219 18.7031 18.125 21.3203 20.7422 21.9844C20.7422 21.9844 21.0938 22.0234 21.2891 21.7891L21.6406 21.3203C21.8359 21.0859 22.2656 20.9297 22.6953 21.1641C23.2812 21.4766 23.9844 21.9844 24.4922 22.4531C24.7656 22.6875 24.8047 23 24.6094 23.3516Z" fill="#1C1C1C"/>
</svg>
