<svg width="20" height="20" viewBox="0 0 20 20" fill="none" xmlns="http://www.w3.org/2000/svg">
<rect width="20" height="20" rx="10" fill="url(#paint0_radial_3514_16326)"/>
<path d="M14.4062 11.4251L12.2078 10.4876C12.0944 10.4367 11.9699 10.4156 11.846 10.4263C11.7222 10.437 11.6031 10.479 11.5 10.5485L10.3234 11.3313C9.60637 10.983 9.02579 10.4058 8.67344 9.69069L9.45156 8.50006C9.52058 8.39688 9.56274 8.27809 9.5742 8.15449C9.58566 8.03088 9.56606 7.90637 9.51719 7.79225L8.575 5.59381C8.50925 5.44537 8.39793 5.32172 8.25718 5.24081C8.11642 5.1599 7.95355 5.12592 7.79219 5.14381C7.15918 5.22674 6.57783 5.53671 6.15621 6.01609C5.7346 6.49548 5.50141 7.11165 5.5 7.75006C5.5 11.4719 8.52812 14.5001 12.25 14.5001C12.8884 14.4987 13.5046 14.2655 13.984 13.8439C14.4634 13.4222 14.7733 12.8409 14.8563 12.2079C14.8741 12.0465 14.8402 11.8836 14.7593 11.7429C14.6783 11.6021 14.5547 11.4908 14.4062 11.4251Z" fill="#F7F9FB"/>
<path d="M11.3781 6.236C11.9489 6.39194 12.4692 6.69403 12.8876 7.11244C13.306 7.53085 13.6081 8.05113 13.7641 8.62193C13.7848 8.70207 13.8314 8.77312 13.8967 8.82399C13.962 8.87486 14.0422 8.90271 14.125 8.90318C14.1583 8.90312 14.1915 8.89839 14.2234 8.88912C14.2711 8.87665 14.3158 8.85479 14.3549 8.82482C14.394 8.79485 14.4268 8.75738 14.4512 8.71459C14.4757 8.67181 14.4913 8.62458 14.4973 8.57567C14.5033 8.52676 14.4994 8.47715 14.4859 8.42975C14.2985 7.73069 13.9303 7.09327 13.4186 6.5815C12.9068 6.06972 12.2694 5.70161 11.5703 5.51412C11.5214 5.4963 11.4693 5.48886 11.4174 5.49227C11.3654 5.49569 11.3147 5.50988 11.2686 5.53395C11.2224 5.55802 11.1818 5.59144 11.1492 5.63207C11.1167 5.67271 11.093 5.71968 11.0796 5.76999C11.0662 5.8203 11.0634 5.87284 11.0714 5.92428C11.0795 5.97572 11.0981 6.02492 11.1262 6.06876C11.1543 6.1126 11.1912 6.1501 11.2346 6.1789C11.2779 6.20769 11.3268 6.22713 11.3781 6.236Z" fill="#F7F9FB"/>
<path d="M10.9891 7.68444C11.3063 7.77129 11.5955 7.9393 11.8281 8.17191C12.0608 8.40452 12.2288 8.69371 12.3156 9.011C12.3356 9.09154 12.382 9.16304 12.4474 9.21405C12.5129 9.26505 12.5936 9.29259 12.6766 9.29225C12.7084 9.29256 12.74 9.28782 12.7703 9.27819C12.8184 9.26623 12.8636 9.24474 12.9032 9.21499C12.9429 9.18524 12.9761 9.14784 13.001 9.10501C13.026 9.06217 13.042 9.01476 13.0483 8.96561C13.0545 8.91645 13.0509 8.86653 13.0375 8.81881C12.9191 8.37327 12.6851 7.96693 12.3591 7.64095C12.0331 7.31498 11.6268 7.08094 11.1812 6.96256C11.1323 6.94474 11.0802 6.9373 11.0283 6.94072C10.9763 6.94413 10.9257 6.95833 10.8795 6.98239C10.8333 7.00646 10.7927 7.03988 10.7602 7.08052C10.7276 7.12116 10.7039 7.16813 10.6905 7.21843C10.6771 7.26874 10.6743 7.32129 10.6824 7.37273C10.6904 7.42417 10.709 7.47337 10.7371 7.5172C10.7652 7.56104 10.8021 7.59855 10.8455 7.62734C10.8889 7.65613 10.9378 7.67558 10.9891 7.68444Z" fill="#F7F9FB"/>
<defs>
<radialGradient id="paint0_radial_3514_16326" cx="0" cy="0" r="1" gradientUnits="userSpaceOnUse" gradientTransform="translate(15.5 7) rotate(123.179) scale(15.5322)">
<stop stop-color="#46EB93"/>
<stop offset="1" stop-color="#2DB754"/>
</radialGradient>
</defs>
</svg>
