<svg width="24" height="24" viewBox="0 0 24 24" fill="none" xmlns="http://www.w3.org/2000/svg">
<path d="M0 12C0 18.6274 5.37258 24 12 24C18.6274 24 24 18.6274 24 12C24 5.37258 18.6274 0 12 0C5.37258 0 0 5.37258 0 12Z" fill="black" fill-opacity="0.1"/>
<path fill-rule="evenodd" clip-rule="evenodd" d="M15.7071 9.70662C16.0976 9.31609 16.0976 8.68293 15.7071 8.2924C15.3166 7.90188 14.6834 7.90188 14.2929 8.2924L12 10.5853L9.70711 8.2924C9.31658 7.90188 8.68342 7.90188 8.29289 8.2924C7.90237 8.68293 7.90237 9.31609 8.29289 9.70662L10.5858 11.9995L8.29289 14.2924C7.90237 14.6829 7.90237 15.3161 8.29289 15.7066C8.68342 16.0971 9.31658 16.0971 9.70711 15.7066L12 13.4137L14.2929 15.7066C14.6834 16.0971 15.3166 16.0971 15.7071 15.7066C16.0976 15.3161 16.0976 14.6829 15.7071 14.2924L13.4142 11.9995L15.7071 9.70662Z" fill="white"/>
</svg>
