<svg width="30" height="30" viewBox="0 0 30 30" fill="none" xmlns="http://www.w3.org/2000/svg">
<path d="M20.2951 11.2959C20.5061 11.0849 20.625 10.7984 20.625 10.5C20.625 10.2016 20.5065 9.91548 20.2955 9.7045L20.2858 9.69491C20.0757 9.4902 19.7933 9.375 19.5 9.375C19.2016 9.375 18.9155 9.49353 18.7045 9.7045L15 13.409L11.2955 9.7045C11.0845 9.49353 10.7984 9.375 10.5 9.375C10.2016 9.375 9.91548 9.49353 9.7045 9.7045C9.49353 9.91548 9.375 10.2016 9.375 10.5C9.375 10.7984 9.49353 11.0845 9.7045 11.2955L13.409 15L9.70493 18.7041C9.49395 18.9151 9.375 19.2016 9.375 19.5C9.375 19.5023 9.37501 19.5045 9.37502 19.5068C9.37511 19.5225 9.37554 19.5383 9.3763 19.554C9.38973 19.8334 9.50674 20.0977 9.7045 20.2955C9.91548 20.5065 10.2016 20.625 10.5 20.625C10.7984 20.625 11.0845 20.5065 11.2955 20.2955L15 16.591L18.7045 20.2955C18.9155 20.5065 19.2016 20.625 19.5 20.625C19.7984 20.625 20.0845 20.5065 20.2955 20.2955C20.5065 20.0845 20.625 19.7984 20.625 19.5C20.625 19.2016 20.5065 18.9155 20.2955 18.7045L16.591 15L20.2951 11.2959Z" fill="#999999"/>
<path fill-rule="evenodd" clip-rule="evenodd" d="M15 0.375C15 0.375 17.9747 0.375 20.6931 1.52477C20.6931 1.52477 23.3178 2.63495 25.3414 4.65856C25.3414 4.65856 27.3651 6.68218 28.4752 9.30694C28.4752 9.30694 29.625 12.0253 29.625 15C29.625 15 29.625 17.9747 28.4752 20.6931C28.4752 20.6931 27.3651 23.3178 25.3414 25.3414C25.3414 25.3414 23.3178 27.3651 20.6931 28.4752C20.6931 28.4752 17.9747 29.625 15 29.625C15 29.625 12.0253 29.625 9.30695 28.4752C9.30695 28.4752 6.68218 27.3651 4.65856 25.3414C4.65856 25.3414 2.63495 23.3178 1.52477 20.6931C1.52477 20.6931 0.375 17.9747 0.375 15C0.375 15 0.375 12.0253 1.52477 9.30694C1.52477 9.30694 2.63495 6.68217 4.65856 4.65856C4.65856 4.65856 6.68218 2.63495 9.30695 1.52477C9.30695 1.52477 12.0253 0.375 15 0.375ZM15 2.625C15 2.625 12.4816 2.625 10.1834 3.59703C10.1834 3.59703 7.96285 4.53625 6.24955 6.24955C6.24955 6.24955 4.53626 7.96285 3.59703 10.1834C3.59703 10.1834 2.625 12.4816 2.625 15C2.625 15 2.625 17.5184 3.59703 19.8166C3.59703 19.8166 4.53626 22.0371 6.24955 23.7504C6.24955 23.7504 7.96285 25.4637 10.1834 26.403C10.1834 26.403 12.4816 27.375 15 27.375C15 27.375 17.5184 27.375 19.8166 26.403C19.8166 26.403 22.0371 25.4637 23.7504 23.7504C23.7504 23.7504 25.4638 22.0371 26.403 19.8166C26.403 19.8166 27.375 17.5184 27.375 15C27.375 15 27.375 12.4816 26.403 10.1834C26.403 10.1834 25.4637 7.96285 23.7504 6.24955C23.7504 6.24955 22.0371 4.53625 19.8166 3.59703C19.8166 3.59703 17.5184 2.625 15 2.625Z" fill="#999999"/>
</svg>
