<svg width="19" height="19" viewBox="0 0 19 19" fill="none" xmlns="http://www.w3.org/2000/svg">
<path d="M3.52239 0.095342C4.17296 -0.0072504 4.83459 -0.00786473 5.49192 0.00687908L5.4354 0.0590967C4.57534 0.622433 3.86211 1.39587 3.34669 2.28357C2.3134 4.06081 1.93681 6.16242 2.02221 8.19952C2.10698 9.8582 2.50507 11.5261 3.34915 12.9679C3.49044 13.2259 3.72573 13.4539 3.72942 13.7672C3.75583 14.4392 3.42348 15.0726 2.9738 15.553C3.00328 15.5837 3.03216 15.6144 3.06164 15.6451C3.48246 16.1047 3.93153 16.5365 4.3591 16.9899C4.96667 17.6767 5.65901 18.2849 6.25429 18.984C5.264 18.9988 4.26204 19.0448 3.28342 18.8599C2.05169 18.6209 0.958194 17.767 0.436018 16.6256C0.11964 15.9658 0.0250338 15.228 0.000460744 14.505C-0.000153581 11.1667 -0.000153581 7.82909 0.000460744 4.49146C0.0139759 3.37584 0.309467 2.20862 1.09457 1.38113C1.71627 0.68018 2.5966 0.22435 3.52239 0.095342Z" fill="#0068FF"/>
<path d="M12.542 6.2251C12.8055 6.2251 13.069 6.2251 13.3332 6.2251C13.3289 7.7689 13.3289 9.31331 13.3332 10.8571C13.0752 10.8209 12.6458 10.9861 12.5487 10.6427C12.5327 9.17079 12.5475 7.69764 12.542 6.2251Z" fill="#0068FF"/>
<path d="M4.48134 6.27994C5.70754 6.27871 6.9325 6.27073 8.15808 6.27933C8.14948 6.51953 8.13596 6.78123 7.97501 6.97536C7.13707 8.01848 6.31695 9.07512 5.47962 10.1182C6.36978 10.1238 7.25994 10.1201 8.15009 10.1201C8.13351 10.3283 8.20661 10.571 8.07146 10.7516C7.98668 10.8683 7.8331 10.8579 7.70594 10.8591C6.59216 10.853 5.47839 10.8647 4.36523 10.853C4.36831 10.6177 4.37076 10.3572 4.5354 10.1699C5.36351 9.13103 6.20145 8.09957 7.02588 7.05829C6.17872 7.05952 5.33095 7.05276 4.4838 7.06198C4.47827 6.80151 4.48011 6.54042 4.48134 6.27994Z" fill="#0068FF"/>
<path d="M15.2941 7.30181C16.1763 7.10461 17.1334 7.68392 17.3748 8.55257C17.6777 9.45625 17.1248 10.5307 16.2113 10.8059C15.4354 11.0793 14.5066 10.7224 14.1042 10.0073C13.7884 9.47898 13.7694 8.78724 14.0562 8.24357C14.2995 7.76378 14.7695 7.413 15.2941 7.30181ZM15.2794 8.08446C14.7412 8.27428 14.4513 8.92915 14.6614 9.45809C14.8352 9.95815 15.4207 10.2641 15.9293 10.1105C16.5099 9.97166 16.8606 9.29161 16.6548 8.73441C16.4828 8.18275 15.8163 7.86453 15.2794 8.08446Z" fill="#0068FF"/>
<path d="M8.75976 7.94509C9.18426 7.41923 9.92759 7.15998 10.5825 7.34735C10.7987 7.40203 10.9947 7.51015 11.1839 7.62503C11.182 7.56728 11.1777 7.4524 11.1759 7.39466C11.4235 7.39343 11.6704 7.39404 11.918 7.39281C11.9168 8.54775 11.9155 9.70268 11.9186 10.8582C11.7368 10.8533 11.5519 10.8748 11.3731 10.838C11.2478 10.787 11.2091 10.65 11.1593 10.5382C10.4762 11.0689 9.40296 10.9485 8.83532 10.3023C8.23021 9.67626 8.19888 8.60979 8.75976 7.94509ZM9.75988 8.0999C9.19102 8.30017 8.91518 9.03306 9.2033 9.56138C9.44903 10.0762 10.1408 10.2924 10.6353 10.0086C11.0942 9.7678 11.3061 9.17006 11.1089 8.69211C10.9179 8.17239 10.2735 7.8812 9.75988 8.0999Z" fill="#0068FF"/>
<path d="M5.43855 0.0593216C5.57616 0.0200048 5.71991 0.00771825 5.86244 0.00341797C8.31913 0.0126329 10.7758 0.00218932 13.2325 0.0064896C13.8892 0.0144758 14.5496 -0.0297556 15.2014 0.0703794C16.1039 0.139184 16.9725 0.521294 17.644 1.12518C18.4868 1.93056 18.9365 3.0904 18.9506 4.24718C18.9513 7.50372 18.9494 10.7627 18.9525 14.018C18.9439 14.0371 18.9273 14.0764 18.9187 14.096C18.0433 15.0753 16.8662 15.7381 15.6357 16.1669C13.9777 16.7321 12.2017 16.914 10.4588 16.7813C8.71598 16.6314 6.95962 16.1762 5.48156 15.2129C4.72594 15.5489 3.8923 15.7136 3.0648 15.6454C3.03531 15.6147 3.00644 15.5839 2.97695 15.5532C3.42664 15.0728 3.75899 14.4395 3.73257 13.7674C3.72888 13.4541 3.4936 13.2262 3.3523 12.9681C2.50822 11.5263 2.11014 9.85843 2.02536 8.19975C1.93997 6.16265 2.31655 4.06104 3.34985 2.28379C3.86527 1.39609 4.5785 0.622658 5.43855 0.0593216ZM12.5451 6.22531C12.5506 7.69784 12.5359 9.171 12.5518 10.6429C12.6489 10.9863 13.0783 10.8211 13.3363 10.8573C13.332 9.31352 13.332 7.76911 13.3363 6.22531C13.0722 6.22531 12.8086 6.22531 12.5451 6.22531ZM4.48266 6.27998C4.48143 6.54046 4.47959 6.80154 4.48512 7.06202C5.33227 7.0528 6.18004 7.05956 7.0272 7.05833C6.20277 8.09961 5.36483 9.13107 4.53672 10.1699C4.37208 10.3573 4.36963 10.6177 4.36655 10.853C5.47971 10.8647 6.59348 10.853 7.70726 10.8592C7.83442 10.8579 7.988 10.8684 8.07278 10.7517C8.20793 10.571 8.13483 10.3284 8.15141 10.1201C7.26126 10.1201 6.3711 10.1238 5.48094 10.1183C6.31827 9.07516 7.13839 8.01852 7.97633 6.9754C8.13728 6.78127 8.1508 6.51957 8.1594 6.27937C6.93382 6.27077 5.70886 6.27875 4.48266 6.27998ZM15.2979 7.30222C14.7732 7.41341 14.3033 7.76419 14.06 8.24398C13.7731 8.78766 13.7922 9.47939 14.1079 10.0077C14.5103 10.7228 15.4392 11.0797 16.215 10.8063C17.1286 10.5311 17.6814 9.45666 17.3786 8.55299C17.1372 7.68433 16.18 7.10502 15.2979 7.30222ZM8.76267 7.94542C8.20179 8.61012 8.23312 9.67659 8.83823 10.3026C9.40587 10.9489 10.4791 11.0693 11.1622 10.5385C11.212 10.6503 11.2507 10.7873 11.376 10.8383C11.5548 10.8751 11.7397 10.8536 11.9215 10.8586C11.9185 9.703 11.9197 8.54807 11.9209 7.39314C11.6733 7.39437 11.4264 7.39375 11.1788 7.39498C11.1807 7.45273 11.185 7.56761 11.1868 7.62535C10.9976 7.51048 10.8016 7.40235 10.5854 7.34768C9.9305 7.16031 9.18717 7.41956 8.76267 7.94542Z" fill="white"/>
<path d="M9.76181 8.09978C10.2754 7.88108 10.9198 8.17227 11.1109 8.69199C11.3081 9.16993 11.0961 9.76767 10.6372 10.0085C10.1427 10.2923 9.45096 10.0761 9.20523 9.56126C8.91711 9.03294 9.19295 8.30005 9.76181 8.09978Z" fill="white"/>
<path d="M15.2825 8.08443C15.8194 7.8645 16.4859 8.18272 16.6579 8.73438C16.8637 9.29158 16.513 9.97163 15.9324 10.1105C15.4238 10.2641 14.8383 9.95812 14.6645 9.45806C14.4544 8.92912 14.7443 8.27425 15.2825 8.08443Z" fill="white"/>
<path d="M18.9164 14.0958L18.9649 14.043C18.9901 15.0032 18.8863 16.0051 18.4151 16.8597C17.8671 17.8622 16.8732 18.6068 15.7551 18.8452C15.1279 18.9748 14.4847 19.0036 13.8458 18.9957C11.8805 18.9963 9.9153 18.9957 7.95007 18.9963C7.38489 18.9871 6.81849 19.0135 6.25515 18.984C5.65987 18.2849 4.96752 17.6767 4.35996 16.9899C3.93238 16.5365 3.48331 16.1046 3.0625 15.6451C3.89 15.7133 4.72364 15.5487 5.47926 15.2126C6.95732 16.1759 8.71368 16.6311 10.4565 16.781C12.1994 16.9137 13.9754 16.7319 15.6334 16.1667C16.8639 15.7379 18.041 15.075 18.9164 14.0958Z" fill="#005BE0"/>
</svg>
