<svg width="32" height="32" viewBox="0 0 32 32" fill="none" xmlns="http://www.w3.org/2000/svg">
<g clip-path="url(#clip0_3753_8585)">
<path d="M7.84309 3.13174C8.73325 2.99136 9.63855 2.99052 10.538 3.01069L10.4606 3.08214C9.28383 3.85295 8.30792 4.91123 7.60268 6.12587C6.18883 8.55765 5.67356 11.4333 5.7904 14.2206C5.9064 16.4902 6.45109 18.7723 7.60604 20.7451C7.79938 21.0982 8.12132 21.41 8.12636 21.8387C8.1625 22.7583 7.70775 23.625 7.09245 24.2823C7.1328 24.3243 7.17231 24.3663 7.21265 24.4084C7.78845 25.0371 8.40291 25.628 8.98795 26.2484C9.81928 27.1882 10.7666 28.0203 11.5811 28.9769C10.2261 28.9971 8.85514 29.0601 7.5161 28.8071C5.83075 28.4801 4.33452 27.3117 3.62004 25.7499C3.18714 24.8472 3.05769 23.8376 3.02407 22.8483C3.02323 18.2806 3.02323 13.7137 3.02407 9.14689C3.04256 7.62041 3.44688 6.02332 4.52113 4.89106C5.37179 3.93196 6.57634 3.30826 7.84309 3.13174Z" fill="#999999"/>
<path d="M20.1844 11.519C20.545 11.519 20.9056 11.519 21.2671 11.519C21.2612 13.6313 21.2612 15.7446 21.2671 17.8569C20.914 17.8073 20.3265 18.0334 20.1936 17.5636C20.1718 15.5495 20.192 13.5338 20.1844 11.519Z" fill="#999999"/>
<path d="M9.1527 11.5938C10.8305 11.5921 12.5066 11.5812 14.1835 11.593C14.1718 11.9216 14.1533 12.2797 13.9331 12.5453C12.7865 13.9726 11.6643 15.4184 10.5186 16.8457C11.7366 16.8533 12.9546 16.8482 14.1726 16.8482C14.1499 17.1332 14.25 17.4652 14.065 17.7124C13.949 17.8721 13.7389 17.8578 13.5649 17.8595C12.0409 17.8511 10.517 17.867 8.99384 17.8511C8.99804 17.5291 9.0014 17.1727 9.22667 16.9163C10.3598 15.4949 11.5063 14.0836 12.6344 12.6588C11.4752 12.6605 10.3152 12.6513 9.15607 12.6639C9.1485 12.3075 9.15102 11.9502 9.1527 11.5938Z" fill="#999999"/>
<path d="M23.951 12.9925C25.1581 12.7227 26.4677 13.5154 26.798 14.704C27.2124 15.9404 26.4559 17.4106 25.206 17.7872C24.1443 18.1612 22.8734 17.6729 22.3228 16.6944C21.8908 15.9715 21.8647 15.0251 22.2573 14.2811C22.5901 13.6247 23.2332 13.1447 23.951 12.9925ZM23.9308 14.0634C23.1945 14.3232 22.7977 15.2192 23.0852 15.943C23.3231 16.6272 24.1242 17.0458 24.8202 16.8357C25.6145 16.6457 26.0945 15.7152 25.8129 14.9528C25.5775 14.1979 24.6655 13.7625 23.9308 14.0634Z" fill="#999999"/>
<path d="M15.009 13.8726C15.5898 13.1531 16.6069 12.7983 17.5029 13.0547C17.7988 13.1295 18.067 13.2775 18.3259 13.4347C18.3234 13.3556 18.3175 13.1985 18.3149 13.1194C18.6537 13.1178 18.9916 13.1186 19.3304 13.1169C19.3287 14.6972 19.327 16.2775 19.3312 17.8586C19.0824 17.8519 18.8294 17.8813 18.5848 17.8309C18.4133 17.7611 18.3603 17.5737 18.2922 17.4207C17.3575 18.1469 15.889 17.9822 15.1124 17.0979C14.2844 16.2413 14.2415 14.7821 15.009 13.8726ZM16.3774 14.0844C15.599 14.3585 15.2216 15.3613 15.6159 16.0842C15.9521 16.7886 16.8986 17.0844 17.5752 16.6961C18.2031 16.3666 18.4931 15.5487 18.2233 14.8947C17.9619 14.1836 17.0801 13.7852 16.3774 14.0844Z" fill="#999999"/>
<path d="M10.4606 3.08217C10.6489 3.02837 10.8456 3.01156 11.0406 3.00568C14.4021 3.01828 17.7636 3.004 21.125 3.00988C22.0236 3.02081 22.9272 2.96029 23.8191 3.0973C25.0539 3.19144 26.2424 3.71428 27.1612 4.54057C28.3145 5.64256 28.9298 7.22957 28.9491 8.81237C28.9499 13.2683 28.9474 17.7275 28.9516 22.1817C28.9398 22.2078 28.9172 22.2616 28.9054 22.2885C27.7076 23.6283 26.097 24.5353 24.4134 25.1221C22.1446 25.8954 19.7145 26.1442 17.3298 25.9626C14.9451 25.7575 12.5419 25.1347 10.5195 23.8166C9.48558 24.2764 8.34492 24.5017 7.21266 24.4084C7.17231 24.3664 7.13281 24.3243 7.09246 24.2823C7.70776 23.625 8.16251 22.7584 8.12637 21.8388C8.12132 21.4101 7.79938 21.0982 7.60605 20.7452C6.4511 18.7723 5.90641 16.4902 5.79041 14.2206C5.67357 11.4333 6.18884 8.55768 7.60269 6.12589C8.30793 4.91126 9.28384 3.85298 10.4606 3.08217ZM20.1844 11.519C20.192 13.5339 20.1718 15.5496 20.1937 17.5636C20.3265 18.0335 20.914 17.8074 21.2671 17.857C21.2612 15.7446 21.2612 13.6314 21.2671 11.519C20.9056 11.519 20.545 11.519 20.1844 11.519ZM9.15271 11.5938C9.15103 11.9502 9.14851 12.3075 9.15607 12.6639C10.3152 12.6513 11.4752 12.6605 12.6344 12.6588C11.5063 14.0836 10.3598 15.4949 9.22668 16.9164C9.0014 17.1727 8.99804 17.5291 8.99384 17.8511C10.517 17.867 12.0409 17.8511 13.5649 17.8595C13.7389 17.8578 13.949 17.8721 14.065 17.7124C14.25 17.4653 14.1499 17.1332 14.1726 16.8483C12.9546 16.8483 11.7366 16.8533 10.5186 16.8457C11.6643 15.4184 12.7865 13.9727 13.9331 12.5454C14.1533 12.2797 14.1718 11.9217 14.1836 11.593C12.5066 11.5812 10.8305 11.5922 9.15271 11.5938ZM23.951 12.9925C23.2332 13.1447 22.5901 13.6247 22.2573 14.2812C21.8647 15.0251 21.8908 15.9715 22.3228 16.6944C22.8734 17.6729 24.1444 18.1612 25.206 17.7872C26.4559 17.4106 27.2125 15.9404 26.7981 14.704C26.4677 13.5154 25.1581 12.7227 23.951 12.9925ZM15.009 13.8726C14.2416 14.7821 14.2844 16.2414 15.1124 17.0979C15.8891 17.9822 17.3576 18.147 18.2923 17.4207C18.3604 17.5737 18.4133 17.7611 18.5848 17.8309C18.8294 17.8813 19.0824 17.8519 19.3312 17.8586C19.327 16.2775 19.3287 14.6972 19.3304 13.117C18.9916 13.1186 18.6537 13.1178 18.315 13.1195C18.3175 13.1985 18.3234 13.3557 18.3259 13.4347C18.067 13.2775 17.7989 13.1296 17.503 13.0548C16.6069 12.7984 15.5898 13.1531 15.009 13.8726Z" fill="white"/>
<path d="M16.3775 14.0845C17.0802 13.7852 17.9619 14.1836 18.2234 14.8948C18.4932 15.5487 18.2032 16.3666 17.5753 16.6961C16.8986 17.0845 15.9521 16.7886 15.6159 16.0842C15.2217 15.3613 15.5991 14.3585 16.3775 14.0845Z" fill="white"/>
<path d="M23.9308 14.0634C24.6655 13.7625 25.5775 14.1979 25.8129 14.9528C26.0945 15.7152 25.6145 16.6457 24.8202 16.8356C24.1242 17.0458 23.3231 16.6272 23.0852 15.943C22.7977 15.2192 23.1945 14.3232 23.9308 14.0634Z" fill="white"/>
<path d="M28.9054 22.2885L28.9718 22.2162C29.0062 23.53 28.8642 24.901 28.2195 26.0702C27.4697 27.442 26.1096 28.4608 24.5798 28.787C23.7215 28.9643 22.8415 29.0038 21.9673 28.9929C19.2783 28.9937 16.5893 28.9929 13.9003 28.9937C13.1269 28.9811 12.3519 29.0173 11.5811 28.9769C10.7666 28.0204 9.81927 27.1882 8.98794 26.2484C8.4029 25.6281 7.78844 25.0372 7.21265 24.4084C8.3449 24.5017 9.48556 24.2764 10.5195 23.8166C12.5419 25.1347 14.9451 25.7575 17.3298 25.9626C19.7145 26.1442 22.1446 25.8954 24.4133 25.1221C26.097 24.5353 27.7076 23.6284 28.9054 22.2885Z" fill="#999999"/>
</g>
<defs>
<clipPath id="clip0_3753_8585">
<rect width="26" height="26" fill="white" transform="translate(3 3)"/>
</clipPath>
</defs>
</svg>
