<svg width="40" height="40" viewBox="0 0 40 40" fill="none" xmlns="http://www.w3.org/2000/svg">
<path d="M13.7255 10.1013C14.4102 9.99335 15.1066 9.9927 15.7985 10.0082L15.739 10.0632C14.8338 10.6561 14.0831 11.4702 13.5406 12.4045C12.453 14.2751 12.0566 16.4871 12.1465 18.6312C12.2357 20.377 12.6547 22.1325 13.5431 23.6501C13.6919 23.9217 13.9395 24.1616 13.9434 24.4913C13.9712 25.1987 13.6214 25.8653 13.1481 26.371C13.1791 26.4033 13.2095 26.4356 13.2405 26.468C13.6835 26.9516 14.1561 27.4062 14.6062 27.8834C15.2456 28.6063 15.9743 29.2464 16.6009 29.9822C15.5586 29.9977 14.504 30.0462 13.474 29.8516C12.1775 29.6001 11.0266 28.7013 10.477 27.4999C10.144 26.8055 10.0444 26.0289 10.0186 25.2679C10.0179 21.7543 10.0179 18.2413 10.0186 14.7284C10.0328 13.5542 10.3438 12.3256 11.1701 11.4547C11.8245 10.7169 12.7511 10.2371 13.7255 10.1013Z" fill="#1C1C1C"/>
<path d="M23.2188 16.5527C23.4962 16.5527 23.7735 16.5527 24.0516 16.5527C24.0471 18.1776 24.0471 19.8032 24.0516 21.4281C23.78 21.3899 23.328 21.5639 23.2259 21.2024C23.2091 19.6532 23.2246 18.1026 23.2188 16.5527Z" fill="#1C1C1C"/>
<path d="M14.733 16.6103C16.0237 16.609 17.313 16.6006 18.6029 16.6096C18.5939 16.8624 18.5796 17.1379 18.4102 17.3422C17.5283 18.4401 16.6651 19.5523 15.7838 20.6502C16.7207 20.656 17.6576 20.6521 18.5945 20.6521C18.5771 20.8713 18.654 21.1267 18.5118 21.3168C18.4225 21.4397 18.2609 21.4287 18.127 21.43C16.9548 21.4235 15.7825 21.4358 14.6108 21.4235C14.6141 21.1759 14.6167 20.9017 14.7899 20.7045C15.6616 19.6111 16.5435 18.5255 17.4112 17.4295C16.5196 17.4308 15.6273 17.4237 14.7356 17.4334C14.7298 17.1592 14.7318 16.8844 14.733 16.6103Z" fill="#1C1C1C"/>
<path d="M26.1164 17.6862C27.0449 17.4786 28.0523 18.0883 28.3064 19.0026C28.6252 19.9538 28.0432 21.0847 27.0817 21.3743C26.2651 21.6621 25.2874 21.2864 24.8639 20.5338C24.5316 19.9777 24.5115 19.2496 24.8135 18.6774C25.0695 18.1724 25.5642 17.8032 26.1164 17.6862ZM26.1009 18.5099C25.5344 18.7097 25.2292 19.399 25.4504 19.9557C25.6334 20.482 26.2496 20.804 26.785 20.6424C27.396 20.4963 27.7652 19.7805 27.5486 19.194C27.3675 18.6134 26.666 18.2784 26.1009 18.5099Z" fill="#1C1C1C"/>
<path d="M19.2378 18.364C19.6846 17.8105 20.467 17.5376 21.1563 17.7348C21.3839 17.7924 21.5901 17.9062 21.7893 18.0271C21.7874 17.9663 21.7828 17.8454 21.7809 17.7846C22.0415 17.7833 22.3014 17.784 22.562 17.7827C22.5607 18.9983 22.5594 20.2139 22.5626 21.4301C22.3712 21.4249 22.1766 21.4476 21.9884 21.4088C21.8565 21.3551 21.8158 21.2109 21.7634 21.0932C21.0444 21.6519 19.9148 21.5252 19.3174 20.8449C18.6805 20.1861 18.6475 19.0636 19.2378 18.364ZM20.2905 18.5269C19.6917 18.7377 19.4014 19.5091 19.7047 20.0652C19.9633 20.607 20.6914 20.8346 21.2119 20.5359C21.6949 20.2824 21.918 19.6533 21.7104 19.1502C21.5093 18.6032 20.831 18.2967 20.2905 18.5269Z" fill="#1C1C1C"/>
<path d="M15.7391 10.0627C15.8839 10.0214 16.0352 10.0084 16.1852 10.0039C18.771 10.0136 21.3567 10.0026 23.9424 10.0071C24.6336 10.0155 25.3287 9.96899 26.0148 10.0744C26.9646 10.1468 27.8789 10.549 28.5856 11.1846C29.4728 12.0323 29.9461 13.2531 29.961 14.4706C29.9616 17.8982 29.9597 21.3284 29.9629 24.7547C29.9538 24.7748 29.9364 24.8161 29.9273 24.8368C29.0059 25.8675 27.7671 26.5652 26.4719 27.0165C24.7268 27.6114 22.8574 27.8028 21.0231 27.6631C19.1887 27.5053 17.34 27.0262 15.7843 26.0123C14.989 26.366 14.1116 26.5393 13.2406 26.4675C13.2096 26.4352 13.1792 26.4029 13.1482 26.3706C13.6215 25.8649 13.9713 25.1983 13.9435 24.4909C13.9396 24.1611 13.6919 23.9212 13.5432 23.6497C12.6548 22.1321 12.2358 20.3766 12.1466 18.6308C12.0567 16.4867 12.4531 14.2747 13.5406 12.4041C14.0831 11.4697 14.8338 10.6557 15.7391 10.0627ZM23.2189 16.5526C23.2247 18.1025 23.2092 19.6531 23.226 21.2023C23.3282 21.5638 23.7801 21.3898 24.0517 21.428C24.0472 19.8031 24.0472 18.1775 24.0517 16.5526C23.7737 16.5526 23.4963 16.5526 23.2189 16.5526ZM14.733 16.6102C14.7317 16.8843 14.7297 17.1591 14.7356 17.4333C15.6272 17.4236 16.5195 17.4307 17.4112 17.4294C16.5434 18.5254 15.6615 19.611 14.7899 20.7044C14.6166 20.9016 14.614 21.1758 14.6108 21.4234C15.7824 21.4357 16.9547 21.4234 18.1269 21.4299C18.2608 21.4286 18.4224 21.4396 18.5117 21.3168C18.6539 21.1267 18.577 20.8713 18.5944 20.6521C17.6575 20.6521 16.7206 20.6559 15.7837 20.6501C16.665 19.5522 17.5282 18.44 18.4102 17.3421C18.5796 17.1378 18.5938 16.8624 18.6028 16.6095C17.3129 16.6005 16.0236 16.6089 14.733 16.6102ZM26.1163 17.6861C25.5641 17.8032 25.0695 18.1724 24.8134 18.6773C24.5114 19.2496 24.5315 19.9777 24.8638 20.5337C25.2874 21.2864 26.265 21.662 27.0817 21.3743C28.0431 21.0846 28.6251 19.9537 28.3063 19.0026C28.0522 18.0883 27.0448 17.4786 26.1163 17.6861ZM19.2378 18.3631C18.6475 19.0627 18.6804 20.1852 19.3173 20.8441C19.9148 21.5243 21.0444 21.651 21.7634 21.0924C21.8158 21.2101 21.8565 21.3543 21.9884 21.4079C22.1766 21.4467 22.3712 21.4241 22.5626 21.4293C22.5594 20.213 22.5607 18.9974 22.562 17.7818C22.3014 17.7831 22.0414 17.7825 21.7809 17.7838C21.7828 17.8445 21.7873 17.9654 21.7893 18.0262C21.5901 17.9053 21.3839 17.7915 21.1563 17.734C20.467 17.5368 19.6846 17.8096 19.2378 18.3631Z" fill="white"/>
<path d="M20.2903 18.5265C20.8308 18.2963 21.5091 18.6028 21.7102 19.1498C21.9178 19.6529 21.6947 20.282 21.2117 20.5355C20.6912 20.8342 19.9631 20.6066 19.7045 20.0647C19.4012 19.5087 19.6915 18.7373 20.2903 18.5265Z" fill="white"/>
<path d="M26.1008 18.5095C26.6659 18.278 27.3674 18.613 27.5485 19.1936C27.7651 19.7801 27.3959 20.4958 26.7849 20.642C26.2495 20.8036 25.6333 20.4816 25.4503 19.9553C25.2292 19.3986 25.5343 18.7093 26.1008 18.5095Z" fill="white"/>
<path d="M29.9274 24.8369L29.9785 24.7812C30.005 25.7919 29.8958 26.8465 29.3998 27.7459C28.823 28.8011 27.7769 29.5848 26.6 29.8357C25.9399 29.9721 25.2629 30.0025 24.5904 29.9941C22.522 29.9948 20.4535 29.9941 18.385 29.9948C17.7902 29.9851 17.194 30.0129 16.6011 29.9818C15.9745 29.246 15.2458 28.6059 14.6063 27.883C14.1563 27.4058 13.6836 26.9512 13.2407 26.4676C14.1117 26.5393 14.9891 26.3661 15.7844 26.0124C17.3401 27.0262 19.1888 27.5054 21.0232 27.6631C22.8575 27.8028 24.7269 27.6114 26.472 27.0165C27.7672 26.5652 29.006 25.8675 29.9274 24.8369Z" fill="#1C1C1C"/>
</svg>
